<?xml version="1.0" encoding="UTF-8" standalone="no"?><!DOCTYPE svg PUBLIC "-//W3C//DTD SVG 1.1//EN" "http://www.w3.org/Graphics/SVG/1.1/DTD/svg11.dtd"><svg width="100%" height="100%" viewBox="0 0 1028 697" version="1.1" xmlns="http://www.w3.org/2000/svg" xmlns:xlink="http://www.w3.org/1999/xlink" xml:space="preserve" xmlns:serif="http://www.serif.com/" style="fill-rule:evenodd;clip-rule:evenodd;stroke-linejoin:round;stroke-miterlimit:2;"><rect x="270" y="461.902" width="428" height="116" style="fill:#3c3456;"/><circle cx="696.248" cy="355.702" r="76.752" style="fill:#754cf0;fill-opacity:0.4;"/><path d="M670.587,174.506l-17.09,8.088l15.125,-11.31c-2.458,-3.837 -5.22,-7.471 -8.258,-10.867l-74.117,18.422l66.948,-25.538c-3.059,-2.7 -6.308,-5.176 -9.722,-7.41l-112.936,18.191c-11.989,14.991 -18.528,33.624 -18.537,52.82l170,0c-0.007,-14.889 -3.945,-29.516 -11.413,-42.396Z" style="fill:#d6dee6;fill-rule:nonzero;"/><path d="M684.123,50.195c-67.93,-33.132 -142.544,-50.302 -218.123,-50.195c-153.83,0 -291.361,69.753 -382.71,179.349c156.426,-34.275 428.777,-93.606 600.833,-129.154Z" style="fill:#d6dee6;fill-rule:nonzero;"/><rect x="0" y="693.902" width="1020" height="2" style="fill:#2f2e41;"/><path d="M595.864,216.902l-57.864,-85.951c0,0 87.631,30.593 77.686,85.951l-19.822,0Z" style="fill:#f0e34c;fill-rule:nonzero;"/><path d="M598.136,216.902l57.864,-85.951c0,0 -87.631,30.593 -77.686,85.951l19.822,0Z" style="fill:#92ce55;fill-rule:nonzero;"/><path d="M698.5,695.902l-429,0l0,-640l429,0l0,640Zm-427,-2l425,0l0,-636l-425,0l0,636Z" style="fill:#33323d;fill-rule:nonzero;"/><rect x="271" y="71.083" width="427" height="2" style="fill:#33323d;"/><circle cx="282" cy="63.902" r="4" style="fill:#92ce55;"/><circle cx="293" cy="63.902" r="4" style="fill:#92ce55;"/><circle cx="304" cy="63.902" r="4" style="fill:#92ce55;"/><rect x="286" y="84.902" width="18" height="10" style="fill:#92ce55;"/><rect x="286" y="163.902" width="88" height="10" style="fill:#f0e34c;"/><rect x="599" y="84.902" width="88" height="10" style="fill:#c6d1dd;"/><rect x="286" y="180.902" width="148" height="6" style="fill:#c6d1dd;"/><rect x="286" y="193.902" width="140" height="6" style="fill:#c6d1dd;"/><rect x="286" y="206.902" width="102" height="6" style="fill:#c6d1dd;"/><rect x="320" y="384.902" width="58" height="6" style="fill:#c6d1dd;"/><rect x="320" y="397.902" width="54.865" height="6" style="fill:#c6d1dd;"/><rect x="320" y="410.902" width="39.973" height="6" style="fill:#c6d1dd;"/><rect x="455" y="384.902" width="58" height="6" style="fill:#c6d1dd;"/><rect x="455" y="397.902" width="54.865" height="6" style="fill:#c6d1dd;"/><rect x="455" y="410.902" width="39.973" height="6" style="fill:#c6d1dd;"/><rect x="595" y="384.902" width="58" height="6" style="fill:#c6d1dd;"/><rect x="595" y="397.902" width="54.865" height="6" style="fill:#c6d1dd;"/><rect x="595" y="410.902" width="39.973" height="6" style="fill:#c6d1dd;"/><rect x="410" y="611.902" width="88" height="10" style="fill:#f0e34c;"/><rect x="410" y="628.902" width="148" height="6" style="fill:#c6d1dd;"/><rect x="410" y="641.902" width="140" height="6" style="fill:#c6d1dd;"/><rect x="410" y="654.902" width="102" height="6" style="fill:#c6d1dd;"/><rect x="312.5" y="271.902" width="348" height="2" style="fill:#754cf0;fill-opacity:0.3;"/><rect x="312" y="306.902" width="74" height="66" style="fill:#f04cf0;fill-opacity:0.3;"/><rect x="447" y="306.902" width="74" height="66" style="fill:#3c3456;"/><rect x="587" y="306.902" width="74" height="66" style="fill:#3c3456;"/><path d="M474.359,372.625l-0.977,-0.02c0.021,-1.081 0.631,-26.561 10.663,-33.604l0.56,0.799c-9.626,6.759 -10.242,32.565 -10.246,32.825Z" style="fill:#f04cf0;fill-rule:nonzero;"/><circle cx="489.206" cy="333.798" r="4.881" style="fill:#f04cf0;"/><path d="M488.219,351.034c-2.539,0.797 -5.243,0.914 -7.841,0.338c3.364,-4.283 8.955,-6.201 14.24,-4.884c-1.698,2.049 -3.905,3.617 -6.399,4.546Z" style="fill:#f04cf0;fill-rule:nonzero;"/><path d="M614.359,372.625l-0.977,-0.02c0.021,-1.081 0.631,-26.561 10.663,-33.604l0.56,0.799c-9.626,6.759 -10.242,32.565 -10.246,32.825Z" style="fill:#f04cf0;fill-rule:nonzero;"/><circle cx="629.206" cy="333.798" r="4.881" style="fill:#f04cf0;"/><path d="M628.219,351.034c-2.539,0.797 -5.243,0.914 -7.841,0.338c3.364,-4.283 8.955,-6.201 14.24,-4.884c-1.698,2.049 -3.905,3.617 -6.399,4.546Z" style="fill:#f04cf0;fill-rule:nonzero;"/><rect x="286" y="498.902" width="88" height="10" style="fill:#92ce55;"/><rect x="286" y="515.902" width="148" height="6" style="fill:#c6d1dd;"/><rect x="286" y="528.902" width="140" height="6" style="fill:#c6d1dd;"/><rect x="286" y="541.902" width="102" height="6" style="fill:#c6d1dd;"/><circle cx="167.5" cy="582.402" r="79" style="fill:#35323d;"/><rect x="131.5" y="644.402" width="24" height="43" style="fill:#35323d;"/><rect x="179.5" y="644.402" width="24" height="43" style="fill:#35323d;"/><ellipse cx="151.5" cy="687.902" rx="20" ry="7.5" style="fill:#35323d;"/><ellipse cx="199.5" cy="686.902" rx="20" ry="7.5" style="fill:#35323d;"/><circle cx="169.5" cy="562.402" r="27" style="fill:#fff;"/><circle cx="169.5" cy="550.402" r="9" style="fill:#3f3d56;"/><path d="M90.867,508.934c-6.379,-28.567 14.012,-57.434 45.544,-64.475c31.532,-7.04 62.265,10.41 68.644,38.978c6.379,28.568 -14.518,39.104 -46.05,46.145c-31.533,7.041 -61.759,7.92 -68.138,-20.648Z" style="fill:#92ce55;fill-rule:nonzero;"/><path d="M216.031,489.761c9.187,-19.771 21.684,-33.48 27.891,-30.596c6.206,2.884 3.787,21.276 -5.4,41.047c-9.187,19.77 -21.684,33.48 -27.891,30.596c-6.207,-2.884 -3.787,-21.277 5.4,-41.047Z" style="fill:#35323d;"/><path d="M63.797,484.075c6.049,-3.201 19.24,9.842 29.439,29.11c10.199,19.268 13.568,37.51 7.52,40.712c-6.049,3.202 -19.24,-9.842 -29.439,-29.11c-10.199,-19.267 -13.569,-37.51 -7.52,-40.712Z" style="fill:#35323d;"/><path d="M805.797,486.795c6.386,-2.461 17.936,12.056 25.777,32.397c7.84,20.342 9.021,38.856 2.635,41.317c-6.386,2.462 -17.936,-12.055 -25.776,-32.397c-7.841,-20.342 -9.022,-38.856 -2.636,-41.317Z" style="fill:#35323d;"/><circle cx="893.19" cy="583.104" r="79" style="fill:#35323d;"/><path d="M905.48,688.066l24,-0.067l-0.12,-43l-24,0.067l0.12,43Z" style="fill:#35323d;"/><path d="M857.484,688.204l24,-0.067l-0.121,-43l-24,0.067l0.121,43Z" style="fill:#35323d;"/><path d="M909.464,681.059c11.038,-0.031 20.009,3.304 20.021,7.443c0.012,4.14 -8.941,7.526 -19.979,7.556c-11.038,0.031 -20.009,-3.304 -20.021,-7.443c-0.011,-4.14 8.941,-7.526 19.979,-7.556Z" style="fill:#35323d;"/><path d="M861.461,680.193c11.039,-0.031 20.01,3.305 20.021,7.444c0.012,4.139 -8.94,7.525 -19.979,7.556c-11.038,0.031 -20.009,-3.305 -20.02,-7.444c-0.012,-4.139 8.94,-7.525 19.978,-7.556Z" style="fill:#35323d;"/><circle cx="891.134" cy="563.109" r="27" style="fill:#fff;"/><circle cx="891.134" cy="563.109" r="9" style="fill:#3f3d56;"/><path d="M976.722,535.009c19.671,-9.397 38.037,-12.013 40.987,-5.838c2.95,6.176 -10.626,18.819 -30.297,28.216c-19.671,9.398 -38.037,12.013 -40.987,5.838c-2.95,-6.175 10.625,-18.818 30.297,-28.216Z" style="fill:#35323d;"/><path d="M932.074,611.495c0.021,7.732 -19.844,23.056 -41.936,23.118c-22.091,0.061 -42.865,-21.648 -42.887,-29.38c-0.021,-7.732 20.718,1.442 42.809,1.38c22.091,-0.062 41.992,-2.85 42.014,4.882Z" style="fill:#fff;fill-rule:nonzero;"/><circle cx="190.405" cy="348.59" r="79" style="fill:#35323d;"/><path d="M167.552,407.461l-23.616,-4.275l-7.659,42.312l23.616,4.275l7.659,-42.312Z" style="fill:#35323d;"/><path d="M214.785,416.011l-23.616,-4.275l-7.66,42.312l23.616,4.276l7.66,-42.313Z" style="fill:#35323d;"/><path d="M184.173,448.579c2.675,-3.158 11.686,0.069 20.109,7.202c8.424,7.134 13.091,15.49 10.416,18.649c-2.676,3.159 -11.686,-0.068 -20.11,-7.202c-8.423,-7.134 -13.09,-15.49 -10.415,-18.649Z" style="fill:#35323d;"/><path d="M137.925,440.207c2.675,-3.159 11.686,0.068 20.109,7.202c8.424,7.134 13.09,15.49 10.415,18.649c-2.675,3.159 -11.686,-0.068 -20.109,-7.202c-8.423,-7.134 -13.09,-15.49 -10.415,-18.649Z" style="fill:#35323d;"/><circle cx="195.936" cy="329.266" r="27" style="fill:#fff;"/><circle cx="207.032" cy="319.588" r="9" style="fill:#3f3d56;"/><path d="M128.085,262.647c-1.188,-29.247 24.019,-54.02 56.301,-55.331c32.282,-1.311 59.414,21.335 60.602,50.582c1.189,29.247 -21.252,35.892 -53.534,37.203c-32.282,1.312 -62.181,-3.207 -63.369,-32.454Z" style="fill:#92ce55;fill-rule:nonzero;"/><path d="M260.58,322.111c21.249,-4.871 39.743,-3.409 41.272,3.262c1.529,6.67 -14.482,16.041 -35.731,20.912c-21.25,4.87 -39.743,3.409 -41.272,-3.262c-1.529,-6.671 14.481,-16.041 35.731,-20.912Z" style="fill:#35323d;"/><path d="M105.506,347.899c21.249,-4.87 39.743,-3.409 41.272,3.262c1.529,6.671 -14.482,16.041 -35.731,20.912c-21.25,4.871 -39.743,3.409 -41.272,-3.262c-1.529,-6.67 14.481,-16.041 35.731,-20.912Z" style="fill:#35323d;"/><path d="M168.707,379.723c-0.191,1.058 -0.287,2.131 -0.287,3.207c0,9.874 8.125,18 18,18c8.669,0 16.167,-6.263 17.712,-14.794c1.771,-9.782 -5.793,-13.244 -15.575,-15.015c-9.782,-1.77 -18.079,-1.18 -19.85,8.602Z" style="fill:#fff;fill-rule:nonzero;"/><path d="M376.418,284.417l-70.883,-21.25l-18.953,63.22l70.883,21.25l18.953,-63.22Z" style="fill:#3c3456;"/><path d="M312.868,333.977l-0.93,-0.298c0.331,-1.03 8.232,-25.261 19.863,-29.127l0.308,0.926c-11.162,3.71 -19.162,28.252 -19.241,28.499Z" style="fill:#f04cf0;fill-rule:nonzero;"/><circle cx="338.24" cy="301.05" r="4.881" style="fill:#f04cf0;"/><path d="M332.345,317.276c-2.661,0.035 -5.285,-0.63 -7.609,-1.927c4.453,-3.137 10.359,-3.368 15.043,-0.59c-2.215,1.476 -4.779,2.344 -7.434,2.517Z" style="fill:#f04cf0;fill-rule:nonzero;"/><circle cx="917.248" cy="468.702" r="110.248" style="fill:#754cf0;fill-opacity:0.4;"/><path d="M969.616,509.422c6.299,-28.586 -14.173,-57.395 -45.724,-64.347c-31.552,-6.953 -62.236,10.584 -68.535,39.169c-6.299,28.586 14.628,39.063 46.18,46.016c31.552,6.952 61.78,7.747 68.079,-20.838Z" style="fill:#f0e34c;fill-rule:nonzero;"/><circle cx="553.92" cy="527.626" r="21.92" style="fill:#f09e4c;"/><circle cx="611.752" cy="512.702" r="31.248" style="fill:#92ce55;"/></svg>