<?xml version="1.0" encoding="UTF-8" standalone="no"?><!DOCTYPE svg PUBLIC "-//W3C//DTD SVG 1.1//EN" "http://www.w3.org/Graphics/SVG/1.1/DTD/svg11.dtd"><svg width="100%" height="100%" viewBox="0 0 909 557" version="1.1" xmlns="http://www.w3.org/2000/svg" xmlns:xlink="http://www.w3.org/1999/xlink" xml:space="preserve" xmlns:serif="http://www.serif.com/" style="fill-rule:evenodd;clip-rule:evenodd;stroke-linejoin:round;stroke-miterlimit:2;"><path d="M715.795,318.691l-9.73,-8.181l0.914,-1.086l0.914,0.769c-0.14,-0.503 -0.166,-1.031 -0.076,-1.545c0.116,-0.519 0.363,-1 0.718,-1.397c0.464,-0.574 1.092,-0.993 1.8,-1.2c0.717,-0.199 1.477,-0.178 2.182,0.06c0.789,0.255 1.518,0.665 2.147,1.205c0.677,0.551 1.228,1.24 1.618,2.022c0.35,0.691 0.482,1.472 0.378,2.239c-0.091,0.714 -0.385,1.388 -0.846,1.941c-0.306,0.377 -0.702,0.672 -1.151,0.858c-0.408,0.17 -0.847,0.253 -1.29,0.243l3.425,2.879l-1.003,1.193Zm-5.265,-6.27c0.665,0.656 1.539,1.058 2.469,1.138c0.679,0.025 1.332,-0.266 1.768,-0.786c0.447,-0.534 0.621,-1.246 0.472,-1.926c-0.25,-0.936 -0.818,-1.756 -1.607,-2.318c-0.669,-0.654 -1.545,-1.057 -2.478,-1.14c-0.679,-0.039 -1.338,0.242 -1.78,0.759c-0.436,0.547 -0.592,1.268 -0.421,1.947c0.24,0.934 0.797,1.757 1.577,2.326Z" style="fill:#292730;fill-rule:nonzero;"/><path d="M718.774,309.675l-1.496,-5.644l-5.377,-0.462l1.253,-1.49l2.557,0.307c0.485,0.06 0.885,0.117 1.2,0.172c-0.128,-0.439 -0.236,-0.835 -0.324,-1.188l-0.665,-2.583l1.197,-1.424l1.268,5.215l5.922,0.513l-1.231,1.464l-3.399,-0.394l-0.913,-0.111l1.222,4.181l-1.214,1.444Z" style="fill:#292730;fill-rule:nonzero;"/><path d="M690.047,328.656l-6.436,7.654l7.655,6.435l6.435,-7.654l-7.654,-6.435Z" style="fill:#292730;"/><path d="M700.343,316.409l-6.435,7.654l7.654,6.435l6.435,-7.654l-7.654,-6.435Z" style="fill:#292730;"/><path d="M715.795,318.691l-9.73,-8.181l0.914,-1.086l0.914,0.769c-0.14,-0.503 -0.166,-1.031 -0.076,-1.545c0.116,-0.519 0.363,-1 0.718,-1.397c0.464,-0.574 1.092,-0.993 1.8,-1.2c0.717,-0.199 1.477,-0.178 2.182,0.06c0.789,0.255 1.518,0.665 2.147,1.205c0.677,0.551 1.228,1.24 1.618,2.022c0.35,0.691 0.482,1.472 0.378,2.239c-0.091,0.714 -0.385,1.388 -0.846,1.941c-0.306,0.377 -0.702,0.672 -1.151,0.858c-0.408,0.17 -0.847,0.253 -1.29,0.243l3.425,2.879l-1.003,1.193Zm-5.265,-6.27c0.665,0.656 1.539,1.058 2.469,1.138c0.679,0.025 1.332,-0.266 1.768,-0.786c0.447,-0.534 0.621,-1.246 0.472,-1.926c-0.25,-0.936 -0.818,-1.756 -1.607,-2.318c-0.669,-0.654 -1.545,-1.057 -2.478,-1.14c-0.679,-0.039 -1.338,0.242 -1.78,0.759c-0.436,0.547 -0.592,1.268 -0.421,1.947c0.24,0.934 0.797,1.757 1.577,2.326Z" style="fill:#292730;fill-rule:nonzero;"/><path d="M718.774,309.675l-1.496,-5.644l-5.377,-0.462l1.253,-1.49l2.557,0.307c0.485,0.06 0.885,0.117 1.2,0.172c-0.128,-0.439 -0.236,-0.835 -0.324,-1.188l-0.665,-2.583l1.197,-1.424l1.268,5.215l5.922,0.513l-1.231,1.464l-3.399,-0.394l-0.913,-0.111l1.222,4.181l-1.214,1.444Z" style="fill:#292730;fill-rule:nonzero;"/><path d="M690.047,328.656l-6.436,7.654l7.655,6.435l6.435,-7.654l-7.654,-6.435Z" style="fill:#292730;"/><path d="M700.343,316.409l-6.435,7.654l7.654,6.435l6.435,-7.654l-7.654,-6.435Z" style="fill:#292730;"/><circle cx="483.07" cy="82.416" r="11.409" style="fill:#cc24cc;"/><path d="M202.247,116.822c-0.133,-9.049 -5.829,-17.137 -14.305,-20.31c8.298,-3.353 13.758,-11.449 13.758,-20.398c0,-12.069 -9.931,-22 -22,-22c-12.069,0 -22,9.931 -22,22c0,9.162 5.723,17.407 14.306,20.611c-8.297,3.35 -13.757,11.444 -13.757,20.392c0,9.16 5.723,17.403 14.306,20.604c-8.298,3.353 -13.758,11.449 -13.758,20.398c0,12.069 9.931,22 22,22c12.069,0 22,-9.931 22,-22c0,-9.162 -5.723,-17.407 -14.306,-20.611c8.388,-3.399 13.865,-11.636 13.756,-20.686Zm-42.545,-40.434c-0.002,-0.095 -0.002,-0.19 -0.002,-0.284c0,-10.972 9.028,-20 20,-20c10.971,0 20,9.028 20,20c0,9.176 -6.316,17.232 -15.227,19.422c-2.984,-0.584 -6.057,-0.543 -9.025,0.12c-9.053,-1.977 -15.607,-9.993 -15.746,-19.258Zm41.093,81.457c0.002,0.095 0.002,0.19 0.002,0.285c0,10.971 -9.028,20 -20,20c-10.971,0 -20,-9.029 -20,-20c0,-9.177 6.316,-17.232 15.227,-19.422c2.984,0.583 6.057,0.542 9.025,-0.121c9.053,1.977 15.607,9.993 15.746,19.258Zm-15.773,-21.323c-2.985,-0.583 -6.058,-0.542 -9.026,0.121c-9.157,-1.985 -15.748,-10.157 -15.748,-19.526c0,-9.173 6.318,-17.224 15.227,-19.406c2.985,0.584 6.058,0.543 9.026,-0.12c9.156,1.984 15.747,10.156 15.747,19.525c0,9.173 -6.317,17.224 -15.227,19.406l0.001,0Z" style="fill:#cc24cc;fill-rule:nonzero;"/><path d="M106.196,198.825l-16.535,0l0,209.203l104.961,0l0,-16.535l-88.426,0l0,-192.668Z" style="fill:#754cf0;fill-rule:nonzero;"/><path d="M252.135,198.825l-16.535,0l0,209.203l104.961,0l0,-209.203l-88.426,0Zm71.891,192.668l-71.891,0l0,-176.133l71.891,0l0,176.133Z" style="fill:#754cf0;fill-rule:nonzero;"/><path d="M630.642,199.185l-88.426,0l0,209.203l104.961,0l0,-209.203l-16.535,0Zm0,192.668l-71.891,0l0,-176.133l71.891,0l0,176.133Z" style="fill:#754cf0;fill-rule:nonzero;"/><path d="M468.887,303.427l-13.66,0l0,16.535l13.66,0l0,71.891l-71.891,0l0,-176.133l88.426,0l0,-16.535l-88.426,0l-16.535,0l0,209.203l104.961,0l0,-16.535l0,-71.891l13.659,0l0,-16.535l-13.659,0l-16.535,0Z" style="fill:#754cf0;fill-rule:nonzero;"/><rect x="150.881" y="180.217" width="5.317" height="1.772" style="fill:#292730;"/><path d="M569.757,181.989l-10.884,0l0,-1.772l10.884,0l0,1.772Zm-21.766,0l-10.883,0l0,-1.772l10.883,0l0,1.772Zm-21.767,0l-10.883,0l0,-1.772l10.883,0l0,1.772Zm-21.766,0l-10.883,0l0,-1.772l10.883,0l0,1.772Zm-21.766,0l-10.883,0l0,-1.772l10.883,0l0,1.772Zm-21.766,0l-10.884,0l0,-1.772l10.884,0l0,1.772Zm-21.767,0l-10.882,0l0,-1.772l10.882,0l0,1.772Zm-21.766,0l-10.883,0l0,-1.772l10.883,0l0,1.772Zm-21.766,0l-10.884,0l0,-1.772l10.884,0l0,1.772Zm-21.766,0l-10.883,0l0,-1.772l10.883,0l0,1.772Zm-21.767,0l-10.883,0l0,-1.772l10.883,0l0,1.772Zm-21.766,0l-10.883,0l0,-1.772l10.883,0l0,1.772Zm-21.766,0l-10.883,0l0,-1.772l10.883,0l0,1.772Zm-21.766,0l-10.884,0l0,-1.772l10.884,0l0,1.772Zm-21.767,0l-10.883,0l0,-1.772l10.883,0l0,1.772Zm-21.766,0l-10.883,0l0,-1.772l10.883,0l0,1.772Zm-21.766,0l-10.883,0l0,-1.772l10.883,0l0,1.772Zm-21.766,0l-10.884,0l0,-1.772l10.884,0l0,1.772Zm-21.767,0l-10.883,0l0,-1.772l10.883,0l0,1.772Z" style="fill:#292730;fill-rule:nonzero;"/><rect x="580.64" y="180.217" width="5.317" height="1.772" style="fill:#292730;"/><rect x="664.155" y="226.294" width="1.772" height="5.317" style="fill:#292730;"/><path d="M665.927,364.526l-1.772,0l0,-11.076l1.772,0l0,11.076Zm0,-22.153l-1.772,0l0,-11.076l1.772,0l0,11.076Zm0,-22.152l-1.772,0l0,-11.076l1.772,0l0,11.076Zm0,-22.153l-1.772,0l0,-11.076l1.772,0l0,11.076Zm0,-22.152l-1.772,0l0,-11.076l1.772,0l0,11.076Zm0,-22.153l-1.772,0l0,-11.076l1.772,0l0,11.076Z" style="fill:#292730;fill-rule:nonzero;"/><rect x="664.155" y="375.602" width="1.772" height="5.317" style="fill:#292730;"/><rect x="89.076" y="119.298" width="1.772" height="368.618" style="fill:#cc24cc;"/><rect x="646.433" y="119.076" width="1.772" height="368.618" style="fill:#cc24cc;"/><rect x="0.687" y="407.059" width="735.463" height="1.772" style="fill:#cc24cc;"/><rect x="0.466" y="197.939" width="735.463" height="1.772" style="fill:#cc24cc;"/><path d="M792.051,110.486c0.067,1.249 -0.169,2.496 -0.686,3.635c-0.705,1.068 -1.652,1.953 -2.765,2.584l-8.078,5.448c-2.382,1.607 -5.075,4.454 -3.547,6.887c0.59,0.786 1.388,1.39 2.304,1.744c8.273,3.972 17.716,4.727 26.891,4.581c5.852,-0.094 11.972,-0.612 16.927,-3.726c2.358,-1.483 4.394,-3.523 6.983,-4.551c1.791,-0.711 4.12,-1.231 4.579,-3.104c0.621,-2.537 -2.719,-3.943 -5.129,-4.949c-5.16,-2.153 -8.744,-7.128 -10.423,-12.461c-1.679,-5.333 -1.691,-11.037 -1.427,-16.622c0.145,-0.804 -0.04,-1.633 -0.514,-2.299c-0.535,-0.437 -1.206,-0.672 -1.896,-0.666c-5.561,-0.561 -11.159,-0.655 -16.735,-0.282c-2.075,-0.021 -4.119,0.511 -5.921,1.541c-3.393,2.324 -1.468,6.264 -1.109,9.535c0.454,4.219 0.637,8.462 0.546,12.705Z" style="fill:#9f616a;fill-rule:nonzero;"/><path d="M826.993,0c-3.114,3.476 -7.383,5.712 -12.014,6.293c-8.009,1.144 -1.716,13.73 -1.716,13.73c0,0 -2.288,-4.577 2.288,-8.581c4.577,-4.005 11.442,-6.293 11.442,-11.442Z" style="fill:#312a45;fill-rule:nonzero;"/><circle cx="811.552" cy="22.655" r="9.875" style="fill:#292730;"/><path d="M823.08,32.378c-7.629,-3.985 -20.753,-7.119 -27.726,-6.895l1.764,-6.743c6.173,4.194 19.229,7.386 27.726,6.895l-1.764,6.743Z" style="fill:#843984;fill-rule:nonzero;"/><circle cx="801.096" cy="60.412" r="35.434" style="fill:#292730;"/><rect x="774.084" y="503.918" width="16.265" height="27.882" style="fill:#9f616a;"/><rect x="821.136" y="503.918" width="16.265" height="27.882" style="fill:#9f616a;"/><path d="M770.018,215.218l-7.876,26.283l79.906,1.6l-6.39,-27.883l-20.912,-13.941l-44.728,13.941Z" style="fill:#9f616a;fill-rule:nonzero;"/><circle cx="797.901" cy="75.806" r="25.559" style="fill:#9f616a;"/><path d="M751.099,181.283c-1.814,4.549 -2.687,9.418 -2.565,14.314c0.225,5.677 1.994,12.937 0.892,17.862c-4.262,19.051 -10.584,47.34 -22.012,62.768c-2.683,3.622 -7.931,5.619 -11.911,8.363c-3.979,2.744 -7.767,5.743 -9.923,10.598c-1.678,3.777 -1.621,8.362 -1.494,12.648c0.071,2.365 0.3,5.065 2.35,6.625c0.869,-0.366 1.419,-1.242 1.372,-2.184c0.102,-0.971 -0.092,-1.963 0.074,-2.965c0.394,-1.788 1.576,-3.305 3.213,-4.123c9.333,-5.767 19.318,-10.8 24.264,-20.839c4.945,-10.039 8.696,-18.993 15.392,-27.835c1.892,-2.233 3.649,-4.577 5.263,-7.018c2.602,-4.469 4.559,-9.285 5.812,-14.302c2.737,-10.514 3.972,-21.584 4.807,-32.309c0.426,-5.481 0.396,-11.352 -3.764,-14.896c-3.848,-3.278 -8.533,-2.863 -11.77,-6.707Z" style="fill:#9f616a;fill-rule:nonzero;"/><path d="M866.629,168.985c1.339,4.831 1.788,9.865 1.327,14.857c-0.561,6.046 -2.455,12.07 -1.604,18.082c3.292,23.26 -0.299,47.324 1.551,70.742c0.434,5.499 2.202,11.583 2.517,17.089c0.314,5.507 -0.324,11.251 -3.127,16.002c-2.179,3.695 -5.512,6.543 -8.782,9.32c-1.804,1.531 -4.18,3.159 -6.339,2.192c-0.39,-0.885 -0.162,-1.927 0.562,-2.568c0.644,-0.689 1.494,-1.171 2.087,-1.904c1.144,-1.416 1.097,-3.421 0.969,-5.237c-0.761,-10.784 -2.347,-21.841 0.597,-32.244c2.935,-10.371 1.132,-21.697 -1.859,-32.053c-0.8,-2.768 -1.842,-5.465 -2.537,-8.261c-1.206,-4.849 -1.345,-9.89 -1.478,-14.885l-0.822,-30.819c-0.14,-5.25 0.181,-11.442 4.558,-14.344c4.049,-2.685 9.194,-2.302 12.38,-5.969Z" style="fill:#9f616a;fill-rule:nonzero;"/><path d="M842.035,231.72c-5.22,2.844 -10.497,5.713 -16.226,7.3c-5.998,1.661 -12.289,1.863 -18.51,2.055c-7.423,0.74 -14.916,-0.321 -21.842,-3.091l-22.589,-7.71c-15.98,38.376 -22.261,80.899 -13.589,121.555c3.157,14.802 -0.15,30.134 -0.145,45.27c-0.094,5.364 0.101,10.729 0.585,16.073c0.447,4.121 1.238,8.198 1.78,12.308c3.302,25.036 -2.657,50.653 1.063,75.63c0.51,3.43 4.669,5.328 7.976,6.37c1.669,0.477 3.372,0.82 5.095,1.025c8.758,1.282 17.619,2.567 26.43,1.725c2.153,-0.205 4.705,-0.866 5.36,-2.927c0.522,-1.644 -0.429,-3.609 0.467,-5.082c5.722,-9.403 1.459,-22.287 2.046,-33.278c1.555,-29.076 -0.346,-58.304 2.337,-87.298c0.513,-5.549 -0.219,-10.449 0.284,-16l0.341,-3.77l1.037,-11.453c0.62,15.964 1.286,31.545 1.905,47.508c0.18,4.642 0.37,9.346 1.732,13.787c0.721,2.351 1.762,4.602 2.354,6.988c0.546,2.581 0.825,5.211 0.834,7.849l2.642,70.327c-0.013,2.531 -0.192,5.058 -0.538,7.565c-0.259,2.877 -0.312,6.267 1.952,8.062c1.182,0.81 2.572,1.263 4.003,1.304c4.309,0.404 8.632,-0.357 12.892,-1.116c4.312,-0.768 13.271,-1.536 17.582,-2.304c0.653,-0.084 1.29,-0.263 1.89,-0.534c1.944,-0.994 2.425,-3.569 2.242,-5.745c-0.184,-2.177 -0.787,-4.42 -0.114,-6.498c8.729,-26.941 -1.868,-56.521 0.098,-84.773c1.751,-25.159 1.505,-50.409 1.257,-75.628c-0.146,-14.913 -1.155,-29.501 -0.843,-44.412c0.38,-18.168 1.733,-37.197 -5.965,-53.658c-1.359,-2.906 -3.122,-5.693 -5.823,-7.424Z" style="fill:#843984;fill-rule:nonzero;"/><path d="M792.673,521.345c0,0 -16.846,-8.133 -19.75,0c-2.905,8.132 -8.714,27.301 -2.324,31.948c4.198,3.061 9.711,3.697 14.495,1.671c4.127,-1.754 8.168,-3.97 7.579,-5.737c-1.162,-3.485 0,-27.882 0,-27.882Z" style="fill:#312a45;fill-rule:nonzero;"/><path d="M818.813,521.345c0,0 16.845,-8.133 19.75,0c2.904,8.132 8.713,27.301 2.323,31.948c-4.198,3.061 -9.71,3.697 -14.495,1.671c-4.127,-1.754 -8.167,-3.97 -7.578,-5.737c1.161,-3.485 0,-27.882 0,-27.882Z" style="fill:#312a45;fill-rule:nonzero;"/><path d="M839.683,123.53c-24.352,-0.433 -48.71,0.492 -72.96,2.771c-1.805,0.054 -3.582,0.465 -5.228,1.209c-1.378,0.836 -2.584,1.928 -3.553,3.216c-10.852,13.024 -17.143,29.252 -17.904,46.188c-0.092,2.19 -0.007,4.613 1.476,6.226c6.723,7.311 15.246,12.648 20.574,21.03c1.236,2.263 2.733,4.373 4.46,6.287c-0.985,5.99 -1.131,12.088 -0.435,18.118c3.53,-4.615 8.809,-7.647 14.334,-9.448c5.525,-1.8 11.343,-2.471 17.116,-3.133c8.425,-0.965 17.441,-1.827 24.947,2.117c5.891,3.096 10.183,8.863 16.378,11.292c0.839,-5.192 1.323,-10.435 1.448,-15.693c0.175,-7.363 5.702,-12.8 8.614,-19.565c0.793,-1.997 1.757,-3.922 2.882,-5.752c2.949,-4.496 7.755,-7.518 12.829,-9.296c5.074,-1.778 10.462,-2.429 15.801,-3.069c2.428,-3.416 1.647,-7.785 -0.042,-11.622c-1.688,-3.836 -4.506,-7.039 -6.946,-10.447c-4.739,-6.619 -8.142,-14.167 -13.35,-20.423c-4.981,-6.209 -12.482,-9.881 -20.441,-10.006Z" style="fill:#cec455;fill-rule:nonzero;"/><path d="M808.236,35.722c0,0 -12.022,15.457 -36.065,18.891c-24.043,3.435 -5.152,41.218 -5.152,41.218c0,0 -6.87,-13.739 6.869,-25.761c13.739,-12.022 34.348,-18.891 34.348,-34.348Z" style="fill:#2f2e41;fill-rule:nonzero;"/><path d="M808.236,35.722c0,0 6.87,24.044 17.174,27.478c10.304,3.435 5.152,39.5 -12.022,42.935c0,0 14.598,-19.75 6.011,-35.206c-8.587,-15.457 -13.739,-27.479 -11.163,-35.207Z" style="fill:#2f2e41;fill-rule:nonzero;"/><path d="M808.236,35.722c0,0 -12.022,15.457 -36.065,18.891c-24.043,3.435 -5.152,41.218 -5.152,41.218c0,0 -6.87,-13.739 6.869,-25.761c13.739,-12.022 34.348,-18.891 34.348,-34.348Z" style="fill:#312a45;fill-rule:nonzero;"/><path d="M808.236,35.722c0,0 6.87,24.044 17.174,27.478c10.304,3.435 5.152,39.5 -12.022,42.935c0,0 14.598,-19.75 6.011,-35.206c-8.587,-15.457 -13.739,-27.479 -11.163,-35.207Z" style="fill:#312a45;fill-rule:nonzero;"/><path d="M384.808,166.482l0,-12.712l1.419,0l0,1.194c0.295,-0.43 0.682,-0.79 1.134,-1.051c0.472,-0.246 0.999,-0.366 1.531,-0.351c0.738,-0.013 1.462,0.198 2.077,0.606c0.614,0.421 1.087,1.016 1.359,1.709c0.311,0.768 0.467,1.59 0.458,2.419c0.014,0.873 -0.159,1.739 -0.506,2.54c-0.303,0.712 -0.817,1.316 -1.471,1.73c-0.605,0.39 -1.309,0.599 -2.029,0.602c-0.486,0.008 -0.966,-0.105 -1.398,-0.329c-0.393,-0.204 -0.739,-0.486 -1.017,-0.831l0,4.474l-1.557,0Zm1.41,-8.065c-0.074,0.931 0.181,1.859 0.719,2.622c0.417,0.536 1.06,0.849 1.739,0.848c0.696,-0.002 1.353,-0.327 1.778,-0.878c0.556,-0.794 0.817,-1.756 0.74,-2.722c0.07,-0.934 -0.185,-1.863 -0.723,-2.63c-0.406,-0.545 -1.046,-0.869 -1.726,-0.874c-0.699,0.018 -1.352,0.362 -1.761,0.93c-0.561,0.785 -0.832,1.741 -0.766,2.704Z" style="fill:#292730;fill-rule:nonzero;"/><path d="M393.626,162.96l3.357,-4.777l-3.106,-4.413l1.947,0l1.41,2.155c0.266,0.41 0.479,0.753 0.64,1.03c0.254,-0.381 0.488,-0.719 0.701,-1.013l1.549,-2.172l1.861,0l-3.176,4.327l3.418,4.863l-1.912,0l-1.887,-2.856l-0.502,-0.77l-2.414,3.626l-1.886,0Z" style="fill:#292730;fill-rule:nonzero;"/><rect x="334.611" y="153.185" width="10" height="10" style="fill:#292730;"/><rect x="350.611" y="153.185" width="10" height="10" style="fill:#292730;"/><rect x="366.611" y="153.185" width="10" height="10" style="fill:#292730;"/></svg>