<?xml version="1.0" encoding="UTF-8" standalone="no"?><!DOCTYPE svg PUBLIC "-//W3C//DTD SVG 1.1//EN" "http://www.w3.org/Graphics/SVG/1.1/DTD/svg11.dtd"><svg width="100%" height="100%" viewBox="0 0 252 252" version="1.1" xmlns="http://www.w3.org/2000/svg" xmlns:xlink="http://www.w3.org/1999/xlink" xml:space="preserve" xmlns:serif="http://www.serif.com/" style="fill-rule:evenodd;clip-rule:evenodd;stroke-linejoin:round;stroke-miterlimit:2;"><rect id="square-logo-blue-purple-no-bg" x="0" y="0" width="252" height="252" style="fill:none;"/><g><path d="M133.498,133.498l47.728,-47.728c0.932,-0.932 2.004,-1.6 3.214,-2.005c1.211,-0.405 2.461,-0.569 3.75,-0.492c1.289,0.077 2.56,0.4 3.813,0.969c1.252,0.569 2.404,1.379 3.455,2.43c1.051,1.051 1.861,2.203 2.43,3.455c0.569,1.253 0.892,2.524 0.969,3.813c0.077,1.289 -0.095,2.53 -0.518,3.723c-0.422,1.194 -1.1,2.256 -2.032,3.188l-47.728,47.728l15.081,15.081l47.728,-47.728c0.932,-0.932 1.995,-1.609 3.188,-2.032c1.193,-0.422 2.435,-0.595 3.724,-0.518c1.289,0.078 2.559,0.401 3.812,0.97c1.253,0.569 2.404,1.379 3.455,2.43c1.051,1.051 1.861,2.202 2.43,3.455c0.569,1.253 0.892,2.523 0.97,3.812c0.077,1.289 -0.096,2.531 -0.518,3.724c-0.423,1.193 -1.1,2.256 -2.032,3.188l-47.728,47.728l15.081,15.081l47.728,-47.728c2.765,-2.766 4.781,-5.955 6.046,-9.567c1.266,-3.613 1.783,-7.353 1.551,-11.22c-0.231,-3.867 -1.202,-7.696 -2.911,-11.487c-1.709,-3.791 -4.122,-7.245 -7.24,-10.363c-2.802,-2.803 -5.942,-5.057 -9.42,-6.764c-3.478,-1.707 -7.09,-2.755 -10.834,-3.144c-0.389,-3.744 -1.428,-7.347 -3.118,-10.807c-1.689,-3.461 -3.935,-6.592 -6.737,-9.395c-3.118,-3.117 -6.572,-5.531 -10.363,-7.24c-3.791,-1.709 -7.62,-2.679 -11.487,-2.911c-3.867,-0.231 -7.607,0.286 -11.22,1.551c-3.613,1.266 -6.802,3.282 -9.567,6.047l-47.728,47.728l0.032,0.032l-47.728,47.728c-0.932,0.932 -2.004,1.6 -3.214,2.005c-1.211,0.405 -2.461,0.569 -3.75,0.492c-1.289,-0.077 -2.56,-0.4 -3.813,-0.969c-1.252,-0.569 -2.404,-1.379 -3.455,-2.43c-1.051,-1.051 -1.861,-2.203 -2.43,-3.455c-0.569,-1.253 -0.892,-2.524 -0.969,-3.813c-0.077,-1.289 0.095,-2.53 0.518,-3.723c0.422,-1.194 1.1,-2.256 2.032,-3.188l47.728,-47.728l-15.081,-15.081l-47.728,47.728c-0.932,0.932 -1.995,1.609 -3.188,2.032c-1.193,0.422 -2.435,0.595 -3.724,0.518c-1.289,-0.078 -2.559,-0.401 -3.812,-0.97c-1.253,-0.569 -2.404,-1.379 -3.455,-2.43c-1.051,-1.051 -1.861,-2.202 -2.43,-3.455c-0.569,-1.253 -0.892,-2.523 -0.97,-3.812c-0.077,-1.289 0.096,-2.531 0.518,-3.724c0.423,-1.193 1.1,-2.256 2.032,-3.188l47.728,-47.728l-15.081,-15.081l-47.728,47.728c-2.765,2.766 -4.781,5.955 -6.046,9.567c-1.266,3.613 -1.783,7.353 -1.551,11.22c0.231,3.867 1.202,7.696 2.911,11.487c1.709,3.791 4.122,7.245 7.24,10.363c2.802,2.803 5.942,5.057 9.42,6.764c3.478,1.707 7.09,2.755 10.834,3.144c0.389,3.744 1.428,7.347 3.118,10.807c1.689,3.461 3.935,6.592 6.737,9.395c3.118,3.117 6.572,5.531 10.363,7.24c3.791,1.709 7.62,2.679 11.487,2.911c3.867,0.231 7.607,-0.286 11.22,-1.551c3.613,-1.266 6.802,-3.282 9.567,-6.047l47.728,-47.728" style="fill:#ea86ea;"/><path d="M133.53,133.53l47.728,-47.728c2.765,-2.765 4.781,-5.954 6.047,-9.567c1.265,-3.613 1.782,-7.353 1.551,-11.22c-0.232,-3.867 -1.202,-7.696 -2.911,-11.487c-1.709,-3.791 -4.123,-7.245 -7.24,-10.363c-2.803,-2.802 -5.943,-5.057 -9.421,-6.764c-3.478,-1.706 -7.089,-2.754 -10.834,-3.143c-0.389,-3.745 -1.428,-7.348 -3.117,-10.808c-1.689,-3.46 -3.935,-6.592 -6.738,-9.394c-3.118,-3.118 -6.572,-5.531 -10.363,-7.24c-3.791,-1.709 -7.62,-2.68 -11.487,-2.911c-3.867,-0.232 -7.607,0.285 -11.22,1.551c-3.612,1.265 -6.801,3.281 -9.567,6.046l-47.728,47.728l15.029,15.029l47.728,-47.728c0.932,-0.932 2.003,-1.601 3.214,-2.006c1.211,-0.405 2.461,-0.569 3.75,-0.492c1.289,0.078 2.559,0.401 3.812,0.97c1.253,0.569 2.404,1.379 3.455,2.43c1.051,1.051 1.861,2.202 2.43,3.455c0.569,1.253 0.892,2.523 0.97,3.812c0.077,1.289 -0.096,2.531 -0.518,3.724c-0.423,1.193 -1.1,2.256 -2.032,3.188l-47.728,47.728l15.081,15.081l47.728,-47.728c0.932,-0.932 1.994,-1.61 3.188,-2.032c1.193,-0.423 2.434,-0.595 3.723,-0.518c1.289,0.077 2.56,0.4 3.813,0.969c1.252,0.569 2.404,1.379 3.455,2.43c1.051,1.051 1.861,2.203 2.43,3.455c0.569,1.253 0.892,2.524 0.969,3.813c0.077,1.289 -0.095,2.53 -0.518,3.723c-0.422,1.194 -1.1,2.256 -2.032,3.188l-47.728,47.728l0.021,0.021l-47.728,47.728c-2.765,2.765 -4.781,5.954 -6.047,9.567c-1.265,3.613 -1.782,7.353 -1.551,11.22c0.232,3.867 1.202,7.696 2.911,11.487c1.709,3.791 4.123,7.245 7.24,10.363c2.803,2.802 5.943,5.057 9.421,6.764c3.478,1.706 7.089,2.754 10.834,3.143c0.389,3.745 1.428,7.348 3.117,10.808c1.689,3.46 3.935,6.592 6.738,9.394c3.118,3.118 6.572,5.531 10.363,7.24c3.791,1.709 7.62,2.68 11.487,2.911c3.867,0.232 7.607,-0.285 11.22,-1.551c3.612,-1.265 6.801,-3.281 9.567,-6.046l47.728,-47.728l-15.029,-15.029l-47.728,47.728c-0.932,0.932 -2.003,1.601 -3.214,2.006c-1.211,0.405 -2.461,0.569 -3.75,0.492c-1.289,-0.078 -2.559,-0.401 -3.812,-0.97c-1.253,-0.569 -2.404,-1.379 -3.455,-2.43c-1.051,-1.051 -1.861,-2.202 -2.43,-3.455c-0.569,-1.253 -0.892,-2.523 -0.97,-3.812c-0.077,-1.289 0.096,-2.531 0.518,-3.724c0.423,-1.193 1.1,-2.256 2.032,-3.188l47.728,-47.728l-15.081,-15.081l-47.728,47.728c-0.932,0.932 -1.994,1.61 -3.188,2.032c-1.193,0.423 -2.434,0.595 -3.723,0.518c-1.289,-0.077 -2.56,-0.4 -3.813,-0.969c-1.252,-0.569 -2.404,-1.379 -3.455,-2.43c-1.051,-1.051 -1.861,-2.203 -2.43,-3.455c-0.569,-1.253 -0.892,-2.524 -0.969,-3.813c-0.077,-1.289 0.095,-2.53 0.518,-3.723c0.422,-1.194 1.1,-2.256 2.032,-3.188l47.728,-47.728" style="fill:#b8ea86;"/></g></svg>