<?xml version="1.0" encoding="UTF-8" standalone="no"?><!DOCTYPE svg PUBLIC "-//W3C//DTD SVG 1.1//EN" "http://www.w3.org/Graphics/SVG/1.1/DTD/svg11.dtd"><svg width="100%" height="100%" viewBox="0 0 5250 970" version="1.1" xmlns="http://www.w3.org/2000/svg" xmlns:xlink="http://www.w3.org/1999/xlink" xml:space="preserve" xmlns:serif="http://www.serif.com/" style="fill-rule:evenodd;clip-rule:evenodd;stroke-linejoin:round;stroke-miterlimit:1.41421;"><rect id="os-logo-blue-purple-no-bg" x="0" y="0" width="5250" height="970" style="fill:none;"/><path d="M513.922,513.922l184.091,-184.092c3.596,-3.595 7.728,-6.174 12.398,-7.737c4.67,-1.562 9.491,-2.194 14.463,-1.896c4.972,0.297 9.874,1.544 14.706,3.738c4.831,2.195 9.274,5.319 13.327,9.373c4.054,4.054 7.178,8.496 9.373,13.328c2.194,4.831 3.441,9.733 3.738,14.705c0.298,4.972 -0.368,9.759 -1.998,14.361c-1.63,4.603 -4.242,8.702 -7.838,12.297l-184.091,184.092l58.169,58.169l184.091,-184.092c3.596,-3.595 7.695,-6.208 12.297,-7.838c4.603,-1.629 9.39,-2.295 14.362,-1.998c4.972,0.298 9.874,1.544 14.705,3.739c4.832,2.195 9.274,5.319 13.328,9.373c4.053,4.053 7.178,8.496 9.372,13.327c2.195,4.832 3.441,9.733 3.739,14.705c0.298,4.972 -0.368,9.759 -1.998,14.362c-1.63,4.602 -4.243,8.701 -7.838,12.297l-184.092,184.091l58.17,58.17l184.091,-184.092c10.667,-10.667 18.441,-22.968 23.323,-36.902c4.882,-13.935 6.876,-28.361 5.983,-43.276c-0.893,-14.916 -4.636,-29.685 -11.228,-44.307c-6.592,-14.622 -15.901,-27.946 -27.926,-39.971c-10.81,-10.81 -22.922,-19.506 -36.337,-26.089c-13.414,-6.584 -27.344,-10.625 -41.788,-12.125c-1.5,-14.444 -5.508,-28.34 -12.023,-41.687c-6.516,-13.347 -15.178,-25.425 -25.988,-36.235c-12.026,-12.026 -25.349,-21.334 -39.971,-27.926c-14.622,-6.592 -29.391,-10.335 -44.307,-11.228c-14.916,-0.893 -29.341,1.101 -43.276,5.983c-13.935,4.882 -26.236,12.656 -36.902,23.323l-184.092,184.091l0.123,0.123l-184.091,184.092c-3.596,3.595 -7.728,6.174 -12.398,7.737c-4.67,1.562 -9.491,2.194 -14.463,1.896c-4.972,-0.297 -9.874,-1.544 -14.706,-3.738c-4.831,-2.195 -9.274,-5.319 -13.327,-9.373c-4.054,-4.054 -7.178,-8.496 -9.373,-13.328c-2.194,-4.831 -3.441,-9.733 -3.738,-14.705c-0.298,-4.972 0.368,-9.759 1.998,-14.361c1.63,-4.603 4.242,-8.702 7.838,-12.297l184.091,-184.092l-58.169,-58.169l-184.091,184.092c-3.596,3.595 -7.695,6.208 -12.297,7.838c-4.603,1.629 -9.39,2.295 -14.362,1.998c-4.972,-0.298 -9.874,-1.544 -14.705,-3.739c-4.832,-2.195 -9.274,-5.319 -13.328,-9.373c-4.053,-4.053 -7.178,-8.496 -9.372,-13.327c-2.195,-4.832 -3.441,-9.733 -3.739,-14.705c-0.298,-4.972 0.368,-9.759 1.998,-14.362c1.63,-4.602 4.243,-8.701 7.838,-12.297l184.092,-184.091l-58.17,-58.17l-184.091,184.092c-10.667,10.667 -18.441,22.968 -23.323,36.902c-4.882,13.935 -6.876,28.361 -5.983,43.276c0.893,14.916 4.636,29.685 11.228,44.307c6.592,14.622 15.901,27.946 27.926,39.971c10.81,10.81 22.922,19.506 36.337,26.089c13.414,6.584 27.344,10.625 41.788,12.125c1.5,14.444 5.508,28.34 12.023,41.687c6.516,13.347 15.178,25.425 25.988,36.235c12.026,12.026 25.349,21.334 39.971,27.926c14.622,6.592 29.391,10.335 44.307,11.228c14.916,0.893 29.341,-1.101 43.276,-5.983c13.935,-4.882 26.236,-12.656 36.902,-23.323l184.092,-184.091" style="fill:#d369d3;"/><path d="M514.045,514.045l184.091,-184.092c10.667,-10.666 18.441,-22.967 23.323,-36.902c4.882,-13.935 6.876,-28.36 5.983,-43.276c-0.893,-14.916 -4.636,-29.685 -11.228,-44.307c-6.592,-14.622 -15.9,-27.945 -27.926,-39.971c-10.81,-10.81 -22.922,-19.506 -36.336,-26.089c-13.415,-6.583 -27.344,-10.625 -41.788,-12.125c-1.5,-14.444 -5.508,-28.34 -12.024,-41.687c-6.515,-13.347 -15.178,-25.425 -25.988,-36.235c-12.025,-12.025 -25.349,-21.334 -39.971,-27.926c-14.622,-6.592 -29.391,-10.335 -44.307,-11.228c-14.915,-0.893 -29.341,1.101 -43.276,5.983c-13.934,4.882 -26.235,12.656 -36.902,23.323l-184.092,184.091l57.967,57.967l184.091,-184.092c3.596,-3.595 7.729,-6.174 12.399,-7.736c4.67,-1.563 9.491,-2.195 14.463,-1.897c4.972,0.298 9.873,1.544 14.705,3.739c4.831,2.194 9.274,5.319 13.327,9.372c4.054,4.054 7.178,8.496 9.373,13.328c2.195,4.831 3.441,9.733 3.739,14.705c0.297,4.972 -0.369,9.759 -1.998,14.362c-1.63,4.602 -4.243,8.701 -7.838,12.297l-184.092,184.091l58.169,58.169l184.092,-184.091c3.595,-3.596 7.694,-6.208 12.297,-7.838c4.602,-1.63 9.389,-2.296 14.361,-1.998c4.972,0.297 9.874,1.544 14.705,3.738c4.832,2.195 9.274,5.319 13.328,9.373c4.054,4.053 7.178,8.496 9.373,13.327c2.194,4.832 3.441,9.734 3.738,14.706c0.298,4.972 -0.368,9.759 -1.998,14.361c-1.63,4.603 -4.242,8.702 -7.838,12.297l-184.091,184.092l0.079,0.079l-184.091,184.092c-10.667,10.666 -18.441,22.967 -23.323,36.902c-4.882,13.935 -6.876,28.36 -5.983,43.276c0.893,14.916 4.636,29.685 11.228,44.307c6.592,14.622 15.9,27.945 27.926,39.971c10.81,10.81 22.922,19.506 36.336,26.089c13.415,6.583 27.344,10.625 41.788,12.125c1.5,14.444 5.508,28.34 12.024,41.687c6.515,13.347 15.178,25.425 25.988,36.235c12.025,12.025 25.349,21.334 39.971,27.926c14.622,6.592 29.391,10.335 44.307,11.228c14.915,0.893 29.341,-1.101 43.276,-5.983c13.934,-4.882 26.235,-12.656 36.902,-23.323l184.092,-184.091l-57.967,-57.967l-184.091,184.092c-3.596,3.595 -7.729,6.174 -12.399,7.736c-4.67,1.563 -9.491,2.195 -14.463,1.897c-4.972,-0.298 -9.873,-1.544 -14.705,-3.739c-4.831,-2.194 -9.274,-5.319 -13.327,-9.372c-4.054,-4.054 -7.178,-8.496 -9.373,-13.328c-2.195,-4.831 -3.441,-9.733 -3.739,-14.705c-0.297,-4.972 0.369,-9.759 1.998,-14.362c1.63,-4.602 4.243,-8.701 7.838,-12.297l184.092,-184.091l-58.169,-58.169l-184.092,184.091c-3.595,3.596 -7.694,6.208 -12.297,7.838c-4.602,1.63 -9.389,2.296 -14.361,1.998c-4.972,-0.297 -9.874,-1.544 -14.705,-3.738c-4.832,-2.195 -9.274,-5.319 -13.328,-9.373c-4.054,-4.053 -7.178,-8.496 -9.373,-13.327c-2.194,-4.832 -3.441,-9.734 -3.738,-14.706c-0.298,-4.972 0.368,-9.759 1.998,-14.361c1.63,-4.603 4.242,-8.702 7.838,-12.297l184.091,-184.092" style="fill:#9ed369;"/><path d="M1673.24,537.73l-90.457,0l0,-323.876c0,-6.325 -1.213,-12.229 -3.638,-17.712c-2.425,-5.482 -5.693,-10.279 -9.804,-14.391c-4.112,-4.111 -8.909,-7.327 -14.391,-9.646c-5.483,-2.32 -11.387,-3.479 -17.712,-3.479c-6.326,0 -12.23,1.159 -17.712,3.479c-5.483,2.319 -10.28,5.535 -14.391,9.646c-4.112,4.112 -7.328,8.909 -9.647,14.391c-2.319,5.483 -3.479,11.387 -3.479,17.712l0,323.876l-90.774,0l0,-323.876c0,-6.325 -1.16,-12.229 -3.479,-17.712c-2.319,-5.482 -5.535,-10.279 -9.647,-14.391c-4.111,-4.111 -8.908,-7.327 -14.391,-9.646c-5.482,-2.32 -11.386,-3.479 -17.712,-3.479c-6.325,0 -12.229,1.159 -17.712,3.479c-5.482,2.319 -10.279,5.535 -14.39,9.646c-4.112,4.112 -7.328,8.909 -9.647,14.391c-2.32,5.483 -3.479,11.387 -3.479,17.712l0,323.876l-90.774,0l0,-323.876c0,-18.766 3.532,-36.425 10.596,-52.977c7.063,-16.553 16.763,-30.996 29.098,-43.331c12.335,-12.336 26.779,-22.035 43.331,-29.099c16.552,-7.063 34.211,-10.595 52.977,-10.595c16.869,0 33.105,3.004 48.708,9.014c15.604,6.009 29.626,14.707 42.066,26.093c12.441,-11.386 26.41,-20.084 41.908,-26.093c15.498,-6.01 31.681,-9.014 48.55,-9.014c18.766,0 36.425,3.532 52.977,10.595c16.553,7.064 30.996,16.763 43.331,29.099c12.335,12.335 22.035,26.778 29.099,43.331c7.063,16.552 10.595,34.211 10.595,52.977l0,323.876Z" style="fill:#9ed369;fill-rule:nonzero;stroke:#1f1f1f;stroke-width:4.17px;"/><path d="M1895.41,454.863c3.374,1.054 6.748,1.74 10.121,2.056c3.374,0.316 6.748,0.474 10.121,0.474c8.435,0 16.553,-1.159 24.354,-3.479c7.802,-2.319 15.129,-5.64 21.982,-9.963c6.853,-4.322 12.968,-9.594 18.345,-15.814c5.376,-6.22 9.752,-13.126 13.125,-20.717l63.257,63.574c-8.012,11.386 -17.237,21.613 -27.675,30.679c-10.437,9.067 -21.718,16.763 -33.842,23.089c-12.124,6.326 -24.881,11.123 -38.271,14.391c-13.389,3.268 -27.147,4.903 -41.275,4.903c-23.826,0 -46.23,-4.428 -67.21,-13.284c-20.98,-8.856 -39.325,-21.192 -55.034,-37.006c-15.709,-15.814 -28.096,-34.633 -37.163,-56.457c-9.067,-21.823 -13.6,-45.808 -13.6,-71.954c0,-26.779 4.533,-51.239 13.6,-73.378c9.067,-22.14 21.454,-41.012 37.163,-56.615c15.709,-15.604 34.054,-27.728 55.034,-36.373c20.98,-8.645 43.384,-12.968 67.21,-12.968c14.128,0 27.939,1.687 41.434,5.061c13.494,3.373 26.304,8.223 38.428,14.549c12.124,6.326 23.458,14.074 34.001,23.247c10.543,9.172 19.82,19.451 27.833,30.838l-161.938,195.147Zm44.28,-178.068c-4.006,-1.476 -7.96,-2.425 -11.861,-2.847c-3.901,-0.421 -7.96,-0.632 -12.177,-0.632c-11.808,0 -22.93,2.161 -33.368,6.484c-10.437,4.322 -19.504,10.49 -27.2,18.502c-7.696,8.013 -13.759,17.659 -18.187,28.94c-4.428,11.281 -6.642,23.985 -6.642,38.113c0,3.162 0.159,6.747 0.475,10.753c0.316,4.007 0.843,8.066 1.581,12.177c0.738,4.112 1.634,8.066 2.689,11.861c1.054,3.795 2.425,7.169 4.111,10.121l100.579,-133.472Z" style="fill:#9ed369;fill-rule:nonzero;stroke:#1f1f1f;stroke-width:4.17px;"/><path d="M2289.95,537.73c-20.874,0 -40.484,-3.954 -58.829,-11.861c-18.344,-7.907 -34.422,-18.766 -48.233,-32.577c-13.811,-13.811 -24.67,-29.889 -32.577,-48.234c-7.907,-18.344 -11.861,-37.954 -11.861,-58.829l0,-100.578l-42.066,0l0,-86.03l42.066,0l0,-135.369l86.029,0l0,135.369l130.942,0l0,86.03l-130.942,0l0,100.578c0,9.067 1.687,17.554 5.061,25.461c3.374,7.907 8.013,14.813 13.917,20.717c5.903,5.904 12.862,10.596 20.874,14.075c8.013,3.479 16.553,5.218 25.619,5.218l65.471,0l0,86.03l-65.471,0Z" style="fill:#9ed369;fill-rule:nonzero;stroke:#1f1f1f;stroke-width:4.17px;"/><path d="M2751.24,537.73l-20.875,0l-33.526,-46.494c-8.224,7.38 -16.922,14.285 -26.094,20.717c-9.172,6.431 -18.819,12.018 -28.94,16.763c-10.121,4.744 -20.506,8.487 -31.154,11.228c-10.648,2.741 -21.455,4.112 -32.419,4.112c-23.827,0 -46.23,-4.007 -67.211,-12.019c-20.98,-8.013 -39.324,-19.663 -55.033,-34.95c-15.709,-15.287 -28.097,-34 -37.164,-56.14c-9.066,-22.14 -13.6,-47.338 -13.6,-75.592c0,-26.357 4.534,-50.553 13.6,-72.588c9.067,-22.034 21.455,-40.959 37.164,-56.773c15.709,-15.814 34.053,-28.096 55.033,-36.847c20.981,-8.751 43.384,-13.126 67.211,-13.126c10.964,0 21.824,1.371 32.577,4.112c10.754,2.741 21.191,6.536 31.312,11.386c10.122,4.85 19.768,10.543 28.941,17.079c9.172,6.537 17.764,13.601 25.777,21.192l33.526,-40.169l20.875,0l0,338.109Zm-86.979,-172.375c0,-11.808 -2.266,-23.247 -6.8,-34.317c-4.533,-11.07 -10.701,-20.875 -18.502,-29.415c-7.802,-8.539 -16.922,-15.392 -27.359,-20.558c-10.437,-5.166 -21.56,-7.749 -33.368,-7.749c-11.808,0 -22.931,2.003 -33.368,6.009c-10.437,4.006 -19.504,9.91 -27.201,17.712c-7.696,7.802 -13.758,17.448 -18.186,28.94c-4.428,11.492 -6.642,24.618 -6.642,39.378c0,14.76 2.214,27.885 6.642,39.377c4.428,11.492 10.49,21.138 18.186,28.94c7.697,7.802 16.764,13.706 27.201,17.712c10.437,4.006 21.56,6.009 33.368,6.009c11.808,0 22.931,-2.583 33.368,-7.748c10.437,-5.166 19.557,-12.019 27.359,-20.559c7.801,-8.54 13.969,-18.345 18.502,-29.414c4.534,-11.07 6.8,-22.509 6.8,-34.317Z" style="fill:#9ed369;fill-rule:nonzero;stroke:#1f1f1f;stroke-width:4.17px;"/><path d="M3267.24,537.73l-86.029,0l0,-215.074c0,-5.904 -1.107,-11.492 -3.321,-16.763c-2.214,-5.271 -5.324,-9.91 -9.331,-13.916c-4.006,-4.007 -8.645,-7.117 -13.916,-9.331c-5.271,-2.214 -10.859,-3.321 -16.763,-3.321c-5.904,0 -11.439,1.107 -16.605,3.321c-5.166,2.214 -9.7,5.324 -13.6,9.331c-3.901,4.006 -6.959,8.645 -9.173,13.916c-2.214,5.271 -3.321,10.859 -3.321,16.763l0,215.074l-86.345,0l0,-215.074c0,-5.904 -1.107,-11.492 -3.321,-16.763c-2.214,-5.271 -5.324,-9.91 -9.331,-13.916c-4.006,-4.007 -8.645,-7.117 -13.916,-9.331c-5.272,-2.214 -10.859,-3.321 -16.763,-3.321c-5.904,0 -11.439,1.107 -16.605,3.321c-5.166,2.214 -9.7,5.324 -13.601,9.331c-3.9,4.006 -6.958,8.645 -9.172,13.916c-2.214,5.271 -3.321,10.859 -3.321,16.763l0,215.074l-86.346,0l0,-338.741l20.875,0l23.405,25.935c12.019,-10.121 25.25,-17.975 39.694,-23.563c14.444,-5.588 29.467,-8.382 45.071,-8.382c15.814,0 31.259,2.952 46.335,8.856c15.077,5.904 28.308,16.131 39.694,30.68c5.272,-7.169 11.281,-13.284 18.028,-18.344c6.748,-5.061 13.864,-9.173 21.35,-12.336c7.485,-3.162 15.234,-5.429 23.246,-6.8c8.013,-1.37 15.92,-2.056 23.722,-2.056c17.923,0 34.738,3.374 50.447,10.122c15.709,6.747 29.415,15.972 41.117,27.674c11.703,11.703 20.928,25.461 27.675,41.276c6.748,15.814 10.121,32.682 10.121,50.605l0,215.074Z" style="fill:#9ed369;fill-rule:nonzero;stroke:#1f1f1f;stroke-width:4.17px;"/><path d="M3676.96,365.355c0,25.302 -4.533,48.866 -13.6,70.689c-9.067,21.824 -21.402,40.696 -37.005,56.615c-15.604,15.92 -33.896,28.466 -54.876,37.638c-20.98,9.172 -43.489,13.759 -67.527,13.759c-23.826,0 -46.23,-4.587 -67.21,-13.759c-20.98,-9.172 -39.325,-21.718 -55.034,-37.638c-15.708,-15.919 -28.096,-34.791 -37.163,-56.615c-9.067,-21.823 -13.6,-45.387 -13.6,-70.689c0,-25.725 4.533,-49.552 13.6,-71.481c9.067,-21.929 21.455,-40.853 37.163,-56.773c15.709,-15.92 34.054,-28.413 55.034,-37.48c20.98,-9.066 43.384,-13.6 67.21,-13.6c24.038,0 46.547,4.27 67.527,12.81c20.98,8.539 39.272,20.664 54.876,36.372c15.603,15.709 27.938,34.581 37.005,56.615c9.067,22.035 13.6,46.547 13.6,73.537Zm-86.978,0c0,-13.917 -2.267,-26.516 -6.8,-37.796c-4.534,-11.281 -10.701,-20.981 -18.503,-29.099c-7.802,-8.118 -16.921,-14.338 -27.359,-18.66c-10.437,-4.323 -21.56,-6.484 -33.368,-6.484c-11.808,0 -22.93,2.161 -33.368,6.484c-10.437,4.322 -19.504,10.542 -27.2,18.66c-7.696,8.118 -13.758,17.818 -18.186,29.099c-4.428,11.28 -6.642,23.879 -6.642,37.796c0,13.073 2.214,25.197 6.642,36.372c4.428,11.176 10.49,20.875 18.186,29.099c7.696,8.223 16.763,14.707 27.2,19.451c10.438,4.744 21.56,7.116 33.368,7.116c11.808,0 22.931,-2.214 33.368,-6.641c10.438,-4.428 19.557,-10.649 27.359,-18.661c7.802,-8.013 13.969,-17.712 18.503,-29.098c4.533,-11.387 6.8,-23.933 6.8,-37.638Z" style="fill:#9ed369;fill-rule:nonzero;stroke:#1f1f1f;stroke-width:4.17px;"/><path d="M4071.51,537.73l-20.874,0l-33.527,-46.494c-8.223,7.38 -16.921,14.285 -26.093,20.717c-9.172,6.431 -18.819,12.018 -28.94,16.763c-10.121,4.744 -20.506,8.487 -31.154,11.228c-10.648,2.741 -21.455,4.112 -32.419,4.112c-23.827,0 -46.231,-4.481 -67.211,-13.443c-20.98,-8.961 -39.325,-21.402 -55.033,-37.321c-15.709,-15.92 -28.097,-34.792 -37.164,-56.615c-9.067,-21.824 -13.6,-45.598 -13.6,-71.322c0,-25.514 4.533,-49.235 13.6,-71.164c9.067,-21.93 21.455,-40.907 37.164,-56.932c15.708,-16.025 34.053,-28.571 55.033,-37.638c20.98,-9.066 43.384,-13.6 67.211,-13.6c7.591,0 15.445,0.633 23.563,1.898c8.118,1.265 16.025,3.321 23.721,6.167c7.697,2.847 14.918,6.59 21.666,11.229c6.747,4.638 12.44,10.332 17.079,17.079l0,-158.142l86.978,0l0,473.478Zm-86.978,-172.375c0,-11.808 -2.267,-23.247 -6.8,-34.317c-4.533,-11.07 -10.701,-20.875 -18.503,-29.415c-7.801,-8.539 -16.921,-15.392 -27.358,-20.558c-10.438,-5.166 -21.56,-7.749 -33.368,-7.749c-11.808,0 -22.931,2.108 -33.368,6.325c-10.438,4.218 -19.505,10.28 -27.201,18.187c-7.696,7.907 -13.758,17.554 -18.186,28.94c-4.428,11.386 -6.642,24.248 -6.642,38.587c0,12.44 2.214,24.248 6.642,35.424c4.428,11.175 10.49,20.98 18.186,29.414c7.696,8.434 16.763,15.076 27.201,19.926c10.437,4.85 21.56,7.274 33.368,7.274c11.808,0 22.93,-2.583 33.368,-7.748c10.437,-5.166 19.557,-12.019 27.358,-20.559c7.802,-8.54 13.97,-18.345 18.503,-29.414c4.533,-11.07 6.8,-22.509 6.8,-34.317Z" style="fill:#9ed369;fill-rule:nonzero;stroke:#1f1f1f;stroke-width:4.17px;"/><path d="M4291.47,454.863c3.373,1.054 6.747,1.74 10.121,2.056c3.373,0.316 6.747,0.474 10.121,0.474c8.434,0 16.552,-1.159 24.354,-3.479c7.801,-2.319 15.129,-5.64 21.981,-9.963c6.853,-4.322 12.968,-9.594 18.345,-15.814c5.377,-6.22 9.752,-13.126 13.126,-20.717l63.257,63.574c-8.013,11.386 -17.238,21.613 -27.675,30.679c-10.438,9.067 -21.718,16.763 -33.843,23.089c-12.124,6.326 -24.881,11.123 -38.27,14.391c-13.389,3.268 -27.148,4.903 -41.275,4.903c-23.827,0 -46.231,-4.428 -67.211,-13.284c-20.98,-8.856 -39.324,-21.192 -55.033,-37.006c-15.709,-15.814 -28.097,-34.633 -37.164,-56.457c-9.067,-21.823 -13.6,-45.808 -13.6,-71.954c0,-26.779 4.533,-51.239 13.6,-73.378c9.067,-22.14 21.455,-41.012 37.164,-56.615c15.709,-15.604 34.053,-27.728 55.033,-36.373c20.98,-8.645 43.384,-12.968 67.211,-12.968c14.127,0 27.938,1.687 41.433,5.061c13.495,3.373 26.304,8.223 38.429,14.549c12.124,6.326 23.457,14.074 34,23.247c10.543,9.172 19.821,19.451 27.833,30.838l-161.937,195.147Zm44.279,-178.068c-4.006,-1.476 -7.959,-2.425 -11.86,-2.847c-3.901,-0.421 -7.96,-0.632 -12.177,-0.632c-11.808,0 -22.931,2.161 -33.368,6.484c-10.438,4.322 -19.505,10.49 -27.201,18.502c-7.696,8.013 -13.758,17.659 -18.186,28.94c-4.428,11.281 -6.642,23.985 -6.642,38.113c0,3.162 0.158,6.747 0.474,10.753c0.317,4.007 0.844,8.066 1.582,12.177c0.738,4.112 1.634,8.066 2.688,11.861c1.054,3.795 2.425,7.169 4.112,10.121l100.578,-133.472Z" style="fill:#9ed369;fill-rule:nonzero;stroke:#1f1f1f;stroke-width:4.17px;"/><path d="M4602.51,537.73l-86.346,0l0,-338.741l20.875,0l28.465,40.168c13.917,-12.651 29.731,-22.403 47.443,-29.256c17.712,-6.853 36.056,-10.28 55.034,-10.28l76.224,0l0,86.03l-76.224,0c-9.067,0 -17.607,1.687 -25.62,5.06c-8.012,3.374 -14.97,8.013 -20.874,13.917c-5.904,5.904 -10.543,12.862 -13.917,20.875c-3.374,8.012 -5.06,16.552 -5.06,25.619l0,186.608Z" style="fill:#9ed369;fill-rule:nonzero;stroke:#1f1f1f;stroke-width:4.17px;"/><path d="M4890.16,537.73l-86.346,0l0,-338.741l20.875,0l28.465,32.893c13.917,-12.651 29.678,-22.403 47.285,-29.256c17.606,-6.853 36.004,-10.279 55.192,-10.279c20.664,0 40.168,3.953 58.512,11.861c18.345,7.907 34.37,18.766 48.076,32.577c13.705,13.811 24.512,29.941 32.419,48.391c7.907,18.45 11.86,38.113 11.86,58.988l0,193.566l-86.345,0l0,-193.566c0,-8.856 -1.687,-17.238 -5.061,-25.145c-3.374,-7.907 -8.012,-14.813 -13.916,-20.717c-5.904,-5.904 -12.757,-10.543 -20.559,-13.916c-7.802,-3.374 -16.13,-5.061 -24.986,-5.061c-9.067,0 -17.607,1.687 -25.619,5.061c-8.013,3.373 -14.971,8.012 -20.875,13.916c-5.904,5.904 -10.543,12.81 -13.917,20.717c-3.374,7.907 -5.06,16.289 -5.06,25.145l0,193.566Z" style="fill:#9ed369;fill-rule:nonzero;stroke:#1f1f1f;stroke-width:4.17px;"/><g transform="matrix(1.30526,0,0,1.30526,1462.96,-366.272)"><g transform="matrix(225.314,0,0,225.314,524.908,971.124)"><path d="M0.751,-0.347c0,0.033 -0.004,0.065 -0.013,0.096c-0.009,0.031 -0.021,0.059 -0.036,0.086c-0.016,0.027 -0.035,0.052 -0.057,0.074c-0.022,0.022 -0.047,0.041 -0.073,0.057c-0.027,0.015 -0.056,0.028 -0.087,0.036c-0.031,0.009 -0.063,0.013 -0.096,0.013c-0.033,0 -0.065,-0.004 -0.096,-0.013c-0.031,-0.008 -0.059,-0.021 -0.086,-0.036c-0.027,-0.016 -0.052,-0.035 -0.074,-0.057c-0.022,-0.022 -0.041,-0.047 -0.057,-0.074c-0.015,-0.027 -0.028,-0.055 -0.036,-0.086c-0.009,-0.031 -0.013,-0.063 -0.013,-0.096c0,-0.033 0.004,-0.065 0.013,-0.096c0.008,-0.031 0.021,-0.06 0.036,-0.087c0.016,-0.026 0.035,-0.051 0.057,-0.073c0.022,-0.022 0.047,-0.041 0.074,-0.057c0.027,-0.015 0.055,-0.027 0.086,-0.036c0.031,-0.009 0.063,-0.013 0.096,-0.013c0.033,0 0.065,0.004 0.096,0.013c0.031,0.009 0.06,0.021 0.087,0.036c0.026,0.016 0.051,0.035 0.073,0.057c0.022,0.022 0.041,0.047 0.057,0.073c0.015,0.027 0.027,0.056 0.036,0.087c0.009,0.031 0.013,0.063 0.013,0.096Zm-0.139,0c0,-0.031 -0.006,-0.06 -0.018,-0.087c-0.011,-0.027 -0.027,-0.051 -0.047,-0.071c-0.02,-0.02 -0.044,-0.036 -0.071,-0.047c-0.027,-0.012 -0.056,-0.018 -0.087,-0.018c-0.031,0 -0.06,0.006 -0.087,0.018c-0.027,0.011 -0.05,0.027 -0.071,0.047c-0.02,0.02 -0.036,0.044 -0.047,0.071c-0.012,0.027 -0.018,0.056 -0.018,0.087c0,0.03 0.006,0.059 0.018,0.086c0.011,0.027 0.027,0.05 0.047,0.071c0.021,0.02 0.044,0.036 0.071,0.047c0.027,0.012 0.056,0.018 0.087,0.018c0.031,0 0.06,-0.006 0.087,-0.018c0.027,-0.011 0.051,-0.027 0.071,-0.047c0.02,-0.021 0.036,-0.044 0.047,-0.071c0.012,-0.027 0.018,-0.056 0.018,-0.086Z" style="fill:#d7d1eb;fill-rule:nonzero;"/></g><g transform="matrix(225.314,0,0,225.314,767.759,971.124)"><path d="M0.205,-0.56l0,0.28l0.14,0c0.019,0 0.037,-0.003 0.054,-0.011c0.017,-0.007 0.032,-0.017 0.045,-0.03c0.013,-0.012 0.023,-0.027 0.03,-0.044c0.007,-0.018 0.011,-0.036 0.011,-0.055c0,-0.019 -0.004,-0.037 -0.011,-0.054c-0.007,-0.017 -0.017,-0.032 -0.03,-0.045c-0.013,-0.013 -0.028,-0.023 -0.045,-0.03c-0.017,-0.007 -0.035,-0.011 -0.054,-0.011l-0.14,0Zm0,0.56l-0.14,0l0,-0.7l0.28,0c0.026,0 0.051,0.003 0.074,0.01c0.024,0.006 0.046,0.016 0.067,0.028c0.021,0.012 0.04,0.027 0.057,0.044c0.017,0.017 0.031,0.036 0.044,0.057c0.012,0.021 0.021,0.043 0.028,0.067c0.007,0.024 0.01,0.048 0.01,0.074c0,0.038 -0.007,0.075 -0.022,0.109c-0.015,0.034 -0.035,0.063 -0.06,0.089c-0.025,0.025 -0.055,0.045 -0.089,0.06c-0.034,0.015 -0.07,0.022 -0.109,0.022l-0.14,0l0,0.14Z" style="fill:#d7d1eb;fill-rule:nonzero;"/></g><g transform="matrix(225.314,0,0,225.314,980.025,971.124)"><path d="M0.545,0l-0.48,0l0,-0.7l0.48,0l0,0.14l-0.34,0l0,0.14l0.23,0l0,0.14l-0.23,0l0,0.14l0.34,0l0,0.14Z" style="fill:#d7d1eb;fill-rule:nonzero;"/></g><g transform="matrix(225.314,0,0,225.314,1177.88,971.124)"><path d="M0.625,0l-0.15,0l-0.27,-0.461l0,0.461l-0.14,0l0,-0.7l0.15,0l0.27,0.461l0,-0.461l0.14,0l0,0.7Z" style="fill:#d7d1eb;fill-rule:nonzero;"/></g><g transform="matrix(225.314,0,0,225.314,1574.86,971.124)"><path d="M0.024,-0.49c0,-0.029 0.005,-0.056 0.017,-0.082c0.011,-0.025 0.026,-0.047 0.045,-0.066c0.019,-0.019 0.041,-0.035 0.066,-0.046c0.026,-0.011 0.053,-0.016 0.082,-0.016l0.321,0l0,0.14l-0.321,0c-0.01,0 -0.019,0.002 -0.027,0.005c-0.009,0.004 -0.016,0.009 -0.023,0.015c-0.006,0.007 -0.011,0.014 -0.015,0.022c-0.003,0.009 -0.005,0.018 -0.005,0.028c0,0.01 0.002,0.019 0.005,0.027c0.004,0.009 0.009,0.016 0.015,0.023c0.007,0.006 0.014,0.011 0.023,0.015c0.008,0.003 0.017,0.005 0.027,0.005l0.14,0c0.029,0 0.056,0.006 0.082,0.016c0.025,0.011 0.048,0.026 0.067,0.045c0.019,0.019 0.034,0.042 0.045,0.067c0.011,0.026 0.016,0.053 0.016,0.082c0,0.029 -0.005,0.056 -0.016,0.082c-0.011,0.025 -0.026,0.047 -0.045,0.066c-0.019,0.019 -0.042,0.034 -0.067,0.045c-0.026,0.011 -0.053,0.017 -0.082,0.017l-0.311,0l0,-0.14l0.311,0c0.01,0 0.019,-0.002 0.027,-0.006c0.009,-0.003 0.016,-0.008 0.023,-0.014c0.006,-0.007 0.011,-0.014 0.014,-0.023c0.004,-0.008 0.006,-0.017 0.006,-0.027c0,-0.01 -0.002,-0.019 -0.006,-0.027c-0.003,-0.009 -0.008,-0.016 -0.014,-0.023c-0.007,-0.006 -0.014,-0.011 -0.023,-0.014c-0.008,-0.004 -0.017,-0.006 -0.027,-0.006l-0.14,0c-0.029,0 -0.056,-0.005 -0.082,-0.016c-0.025,-0.011 -0.047,-0.027 -0.066,-0.046c-0.019,-0.019 -0.034,-0.041 -0.045,-0.066c-0.012,-0.026 -0.017,-0.053 -0.017,-0.082Z" style="fill:#d7d1eb;fill-rule:nonzero;"/></g><g transform="matrix(225.314,0,0,225.314,1780.09,971.124)"><path d="M0.751,-0.347c0,0.033 -0.004,0.065 -0.013,0.096c-0.009,0.031 -0.021,0.059 -0.036,0.086c-0.016,0.027 -0.035,0.052 -0.057,0.074c-0.022,0.022 -0.047,0.041 -0.073,0.057c-0.027,0.015 -0.056,0.028 -0.087,0.036c-0.031,0.009 -0.063,0.013 -0.096,0.013c-0.033,0 -0.065,-0.004 -0.096,-0.013c-0.031,-0.008 -0.059,-0.021 -0.086,-0.036c-0.027,-0.016 -0.052,-0.035 -0.074,-0.057c-0.022,-0.022 -0.041,-0.047 -0.057,-0.074c-0.015,-0.027 -0.028,-0.055 -0.036,-0.086c-0.009,-0.031 -0.013,-0.063 -0.013,-0.096c0,-0.033 0.004,-0.065 0.013,-0.096c0.008,-0.031 0.021,-0.06 0.036,-0.087c0.016,-0.026 0.035,-0.051 0.057,-0.073c0.022,-0.022 0.047,-0.041 0.074,-0.057c0.027,-0.015 0.055,-0.027 0.086,-0.036c0.031,-0.009 0.063,-0.013 0.096,-0.013c0.033,0 0.065,0.004 0.096,0.013c0.031,0.009 0.06,0.021 0.087,0.036c0.026,0.016 0.051,0.035 0.073,0.057c0.022,0.022 0.041,0.047 0.057,0.073c0.015,0.027 0.027,0.056 0.036,0.087c0.009,0.031 0.013,0.063 0.013,0.096Zm-0.139,0c0,-0.031 -0.006,-0.06 -0.018,-0.087c-0.011,-0.027 -0.027,-0.051 -0.047,-0.071c-0.02,-0.02 -0.044,-0.036 -0.071,-0.047c-0.027,-0.012 -0.056,-0.018 -0.087,-0.018c-0.031,0 -0.06,0.006 -0.087,0.018c-0.027,0.011 -0.05,0.027 -0.071,0.047c-0.02,0.02 -0.036,0.044 -0.047,0.071c-0.012,0.027 -0.018,0.056 -0.018,0.087c0,0.03 0.006,0.059 0.018,0.086c0.011,0.027 0.027,0.05 0.047,0.071c0.021,0.02 0.044,0.036 0.071,0.047c0.027,0.012 0.056,0.018 0.087,0.018c0.031,0 0.06,-0.006 0.087,-0.018c0.027,-0.011 0.051,-0.027 0.071,-0.047c0.02,-0.021 0.036,-0.044 0.047,-0.071c0.012,-0.027 0.018,-0.056 0.018,-0.086Z" style="fill:#d7d1eb;fill-rule:nonzero;"/></g><g transform="matrix(225.314,0,0,225.314,2022.94,971.124)"><path d="M0.617,-0.28c0,0.039 -0.007,0.075 -0.022,0.109c-0.014,0.034 -0.034,0.064 -0.06,0.089c-0.025,0.025 -0.055,0.045 -0.089,0.06c-0.034,0.015 -0.07,0.022 -0.109,0.022c-0.039,0 -0.075,-0.007 -0.109,-0.022c-0.034,-0.015 -0.064,-0.035 -0.089,-0.06c-0.025,-0.025 -0.045,-0.055 -0.06,-0.089c-0.015,-0.034 -0.022,-0.07 -0.022,-0.109l0,-0.42l0.14,0l0,0.42c0,0.019 0.003,0.037 0.011,0.054c0.007,0.017 0.017,0.032 0.03,0.045c0.012,0.013 0.027,0.023 0.044,0.03c0.018,0.007 0.036,0.011 0.055,0.011c0.019,0 0.037,-0.004 0.054,-0.011c0.017,-0.007 0.032,-0.017 0.045,-0.03c0.013,-0.013 0.023,-0.028 0.03,-0.045c0.007,-0.017 0.011,-0.035 0.011,-0.054l0,-0.42l0.14,0l0,0.42Z" style="fill:#d7d1eb;fill-rule:nonzero;"/></g><g transform="matrix(225.314,0,0,225.314,2242.35,971.124)"><path d="M0.205,-0.56l0,0.28l0.14,0c0.019,0 0.037,-0.003 0.054,-0.011c0.017,-0.007 0.032,-0.017 0.045,-0.03c0.013,-0.012 0.023,-0.027 0.03,-0.044c0.007,-0.018 0.011,-0.036 0.011,-0.055c0,-0.019 -0.004,-0.037 -0.011,-0.054c-0.007,-0.017 -0.017,-0.032 -0.03,-0.045c-0.013,-0.013 -0.028,-0.023 -0.045,-0.03c-0.017,-0.007 -0.035,-0.011 -0.054,-0.011l-0.14,0Zm0,0.56l-0.14,0l0,-0.7l0.28,0c0.026,0 0.051,0.003 0.074,0.01c0.024,0.006 0.046,0.016 0.067,0.028c0.021,0.012 0.04,0.027 0.057,0.044c0.017,0.017 0.031,0.036 0.044,0.057c0.012,0.021 0.021,0.043 0.028,0.067c0.007,0.024 0.01,0.048 0.01,0.074c0,0.024 -0.003,0.048 -0.009,0.07c-0.006,0.023 -0.015,0.045 -0.026,0.065c-0.011,0.021 -0.025,0.04 -0.041,0.057c-0.016,0.017 -0.035,0.032 -0.055,0.045l0.078,0.183l-0.149,0l-0.061,-0.141l-0.157,0.001l0,0.14Z" style="fill:#d7d1eb;fill-rule:nonzero;"/></g><g transform="matrix(225.314,0,0,225.314,2456.82,971.124)"><path d="M0.624,-0.072c-0.033,0.028 -0.069,0.05 -0.109,0.065c-0.041,0.015 -0.083,0.022 -0.126,0.022c-0.033,0 -0.065,-0.004 -0.096,-0.013c-0.031,-0.008 -0.059,-0.021 -0.086,-0.036c-0.027,-0.016 -0.052,-0.035 -0.074,-0.057c-0.022,-0.022 -0.041,-0.047 -0.057,-0.074c-0.015,-0.027 -0.028,-0.055 -0.036,-0.086c-0.009,-0.031 -0.013,-0.063 -0.013,-0.096c0,-0.033 0.004,-0.065 0.013,-0.096c0.008,-0.031 0.021,-0.06 0.036,-0.087c0.016,-0.027 0.035,-0.051 0.057,-0.074c0.022,-0.022 0.047,-0.041 0.074,-0.056c0.027,-0.016 0.055,-0.028 0.086,-0.037c0.031,-0.009 0.063,-0.013 0.096,-0.013c0.043,0 0.085,0.007 0.126,0.022c0.04,0.015 0.076,0.037 0.109,0.065l-0.074,0.122c-0.021,-0.022 -0.045,-0.039 -0.073,-0.051c-0.028,-0.012 -0.057,-0.018 -0.088,-0.018c-0.031,0 -0.06,0.006 -0.087,0.018c-0.027,0.011 -0.05,0.027 -0.071,0.047c-0.02,0.02 -0.036,0.044 -0.047,0.071c-0.012,0.027 -0.018,0.056 -0.018,0.087c0,0.03 0.006,0.059 0.018,0.086c0.011,0.027 0.027,0.05 0.047,0.071c0.021,0.02 0.044,0.036 0.071,0.047c0.027,0.012 0.056,0.018 0.087,0.018c0.031,0 0.06,-0.006 0.088,-0.018c0.028,-0.012 0.052,-0.029 0.073,-0.051l0.074,0.122Z" style="fill:#d7d1eb;fill-rule:nonzero;"/></g><g transform="matrix(225.314,0,0,225.314,2668.65,971.124)"><path d="M0.545,0l-0.48,0l0,-0.7l0.48,0l0,0.14l-0.34,0l0,0.14l0.23,0l0,0.14l-0.23,0l0,0.14l0.34,0l0,0.14Z" style="fill:#d7d1eb;fill-rule:nonzero;"/></g></g></svg>