<?xml version="1.0" encoding="UTF-8" standalone="no"?><!DOCTYPE svg PUBLIC "-//W3C//DTD SVG 1.1//EN" "http://www.w3.org/Graphics/SVG/1.1/DTD/svg11.dtd"><svg width="100%" height="100%" viewBox="0 0 1440 301" version="1.1" xmlns="http://www.w3.org/2000/svg" xmlns:xlink="http://www.w3.org/1999/xlink" xml:space="preserve" xmlns:serif="http://www.serif.com/" style="fill-rule:evenodd;clip-rule:evenodd;stroke-linejoin:round;stroke-miterlimit:2;"><rect id="os-logo-blue-purple-no-bg" x="0" y="0" width="1440" height="300.358" style="fill:none;"/><g><path d="M133.307,157.485l46.507,-46.507c0.908,-0.908 1.952,-1.56 3.132,-1.955c1.18,-0.394 2.398,-0.554 3.654,-0.479c1.256,0.075 2.494,0.39 3.715,0.945c1.22,0.554 2.343,1.344 3.367,2.368c1.024,1.024 1.813,2.146 2.368,3.367c0.554,1.22 0.869,2.458 0.944,3.715c0.075,1.256 -0.093,2.465 -0.505,3.628c-0.411,1.162 -1.071,2.198 -1.98,3.106l-46.507,46.508l14.695,14.695l46.508,-46.507c0.908,-0.909 1.943,-1.569 3.106,-1.98c1.163,-0.412 2.372,-0.58 3.628,-0.505c1.256,0.075 2.495,0.39 3.715,0.944c1.221,0.555 2.343,1.344 3.367,2.368c1.024,1.024 1.814,2.147 2.368,3.367c0.555,1.221 0.869,2.459 0.945,3.715c0.075,1.256 -0.093,2.466 -0.505,3.628c-0.412,1.163 -1.072,2.199 -1.98,3.107l-46.508,46.507l14.696,14.696l46.507,-46.508c2.695,-2.695 4.659,-5.802 5.892,-9.322c1.233,-3.521 1.737,-7.165 1.512,-10.933c-0.226,-3.769 -1.171,-7.5 -2.837,-11.194c-1.665,-3.694 -4.017,-7.06 -7.055,-10.098c-2.731,-2.731 -5.791,-4.927 -9.18,-6.591c-3.389,-1.663 -6.908,-2.684 -10.557,-3.063c-0.379,-3.649 -1.391,-7.159 -3.037,-10.531c-1.646,-3.372 -3.835,-6.423 -6.565,-9.154c-3.038,-3.038 -6.405,-5.39 -10.098,-7.055c-3.694,-1.666 -7.426,-2.611 -11.194,-2.837c-3.768,-0.225 -7.412,0.278 -10.933,1.512c-3.52,1.233 -6.628,3.197 -9.322,5.892l-46.508,46.507l0.031,0.031l-46.507,46.508c-0.908,0.908 -1.952,1.559 -3.132,1.954c-1.18,0.395 -2.398,0.555 -3.654,0.479c-1.256,-0.075 -2.494,-0.39 -3.715,-0.944c-1.22,-0.555 -2.343,-1.344 -3.367,-2.368c-1.024,-1.024 -1.813,-2.146 -2.368,-3.367c-0.554,-1.221 -0.869,-2.459 -0.944,-3.715c-0.075,-1.256 0.093,-2.465 0.505,-3.628c0.411,-1.163 1.071,-2.198 1.98,-3.107l46.507,-46.507l-14.695,-14.695l-46.508,46.507c-0.908,0.908 -1.943,1.568 -3.106,1.98c-1.163,0.412 -2.372,0.58 -3.628,0.505c-1.256,-0.075 -2.495,-0.39 -3.715,-0.945c-1.221,-0.554 -2.343,-1.343 -3.367,-2.368c-1.024,-1.024 -1.814,-2.146 -2.368,-3.367c-0.555,-1.22 -0.869,-2.458 -0.945,-3.714c-0.075,-1.257 0.093,-2.466 0.505,-3.629c0.412,-1.162 1.072,-2.198 1.98,-3.106l46.508,-46.508l-14.696,-14.695l-46.507,46.507c-2.695,2.695 -4.659,5.803 -5.892,9.323c-1.233,3.52 -1.737,7.165 -1.512,10.933c0.226,3.768 1.171,7.499 2.837,11.193c1.665,3.694 4.017,7.06 7.055,10.098c2.731,2.731 5.791,4.928 9.18,6.591c3.389,1.663 6.908,2.684 10.557,3.063c0.379,3.649 1.391,7.16 3.037,10.532c1.646,3.372 3.835,6.423 6.565,9.154c3.038,3.038 6.405,5.39 10.098,7.055c3.694,1.665 7.426,2.611 11.194,2.836c3.768,0.226 7.412,-0.278 10.933,-1.511c3.52,-1.233 6.628,-3.197 9.322,-5.892l46.508,-46.508" style="fill:#ea86ea;"/><path d="M133.338,157.516l46.507,-46.507c2.695,-2.695 4.659,-5.802 5.892,-9.323c1.233,-3.52 1.737,-7.164 1.512,-10.932c-0.226,-3.769 -1.172,-7.5 -2.837,-11.194c-1.665,-3.694 -4.017,-7.06 -7.055,-10.098c-2.731,-2.731 -5.791,-4.928 -9.18,-6.591c-3.389,-1.663 -6.908,-2.684 -10.557,-3.063c-0.379,-3.649 -1.391,-7.159 -3.037,-10.531c-1.646,-3.372 -3.835,-6.423 -6.566,-9.154c-3.038,-3.038 -6.404,-5.39 -10.098,-7.055c-3.694,-1.666 -7.425,-2.611 -11.193,-2.837c-3.768,-0.226 -7.412,0.278 -10.933,1.512c-3.52,1.233 -6.628,3.197 -9.322,5.892l-46.508,46.507l14.644,14.644l46.508,-46.507c0.908,-0.908 1.952,-1.56 3.132,-1.955c1.18,-0.394 2.398,-0.554 3.654,-0.479c1.256,0.075 2.494,0.39 3.715,0.945c1.22,0.554 2.343,1.343 3.367,2.367c1.024,1.025 1.813,2.147 2.367,3.367c0.555,1.221 0.87,2.459 0.945,3.715c0.075,1.256 -0.093,2.466 -0.505,3.629c-0.412,1.162 -1.072,2.198 -1.98,3.106l-46.507,46.508l14.695,14.695l46.507,-46.507c0.909,-0.909 1.944,-1.569 3.107,-1.981c1.163,-0.411 2.372,-0.58 3.628,-0.504c1.256,0.075 2.495,0.39 3.715,0.944c1.221,0.555 2.343,1.344 3.367,2.368c1.024,1.024 1.814,2.146 2.368,3.367c0.554,1.221 0.869,2.459 0.945,3.715c0.075,1.256 -0.094,2.465 -0.505,3.628c-0.412,1.163 -1.072,2.198 -1.98,3.107l-46.508,46.507l0.02,0.02l-46.507,46.507c-2.695,2.695 -4.659,5.803 -5.892,9.323c-1.233,3.521 -1.737,7.165 -1.512,10.933c0.226,3.768 1.172,7.499 2.837,11.193c1.665,3.694 4.017,7.06 7.055,10.098c2.731,2.731 5.791,4.928 9.18,6.591c3.389,1.663 6.908,2.684 10.557,3.063c0.379,3.649 1.391,7.16 3.037,10.532c1.646,3.372 3.835,6.423 6.566,9.154c3.038,3.038 6.404,5.39 10.098,7.055c3.694,1.665 7.425,2.611 11.193,2.836c3.768,0.226 7.412,-0.278 10.933,-1.511c3.52,-1.233 6.628,-3.197 9.322,-5.892l46.508,-46.507l-14.644,-14.645l-46.508,46.508c-0.908,0.908 -1.952,1.56 -3.132,1.954c-1.18,0.395 -2.398,0.555 -3.654,0.479c-1.256,-0.075 -2.494,-0.39 -3.715,-0.944c-1.22,-0.555 -2.343,-1.344 -3.367,-2.368c-1.024,-1.024 -1.813,-2.146 -2.367,-3.367c-0.555,-1.22 -0.87,-2.459 -0.945,-3.715c-0.075,-1.256 0.093,-2.465 0.505,-3.628c0.412,-1.163 1.072,-2.198 1.98,-3.107l46.507,-46.507l-14.695,-14.695l-46.507,46.507c-0.909,0.908 -1.944,1.568 -3.107,1.98c-1.163,0.412 -2.372,0.58 -3.628,0.505c-1.256,-0.075 -2.495,-0.39 -3.715,-0.945c-1.221,-0.554 -2.343,-1.343 -3.367,-2.367c-1.024,-1.024 -1.814,-2.147 -2.368,-3.367c-0.554,-1.221 -0.869,-2.459 -0.945,-3.715c-0.075,-1.256 0.094,-2.466 0.505,-3.629c0.412,-1.162 1.072,-2.198 1.98,-3.106l46.508,-46.507" style="fill:#b8ea86;"/></g><path d="M435.971,172.222l-27.137,0l0,-97.162c0,-1.898 -0.364,-3.669 -1.092,-5.314c-0.727,-1.645 -1.708,-3.084 -2.941,-4.317c-1.234,-1.234 -2.673,-2.198 -4.317,-2.894c-1.645,-0.696 -3.416,-1.044 -5.314,-1.044c-1.898,0 -3.669,0.348 -5.314,1.044c-1.644,0.696 -3.083,1.66 -4.317,2.894c-1.233,1.233 -2.198,2.672 -2.894,4.317c-0.696,1.645 -1.044,3.416 -1.044,5.314l0,97.162l-27.232,0l0,-97.162c0,-1.898 -0.348,-3.669 -1.043,-5.314c-0.696,-1.645 -1.661,-3.084 -2.894,-4.317c-1.234,-1.234 -2.673,-2.198 -4.318,-2.894c-1.644,-0.696 -3.416,-1.044 -5.313,-1.044c-1.898,0 -3.669,0.348 -5.314,1.044c-1.645,0.696 -3.084,1.66 -4.317,2.894c-1.234,1.233 -2.198,2.672 -2.894,4.317c-0.696,1.645 -1.044,3.416 -1.044,5.314l0,97.162l-27.232,0l0,-97.162c0,-5.63 1.06,-10.928 3.179,-15.894c2.119,-4.965 5.029,-9.298 8.729,-12.999c3.701,-3.701 8.034,-6.61 12.999,-8.729c4.966,-2.12 10.264,-3.179 15.894,-3.179c5.06,0 9.931,0.901 14.612,2.704c4.681,1.803 8.888,4.412 12.62,7.828c3.732,-3.416 7.923,-6.025 12.572,-7.828c4.65,-1.803 9.505,-2.704 14.565,-2.704c5.63,0 10.928,1.059 15.893,3.179c4.966,2.119 9.299,5.028 13,8.729c3.7,3.701 6.61,8.034 8.729,12.999c2.119,4.966 3.179,10.264 3.179,15.894l0,97.162Z" style="fill:#b8ea86;fill-rule:nonzero;"/><path d="M498.736,147.362c1.012,0.317 2.024,0.522 3.036,0.617c1.012,0.095 2.024,0.142 3.036,0.142c2.531,0 4.966,-0.348 7.306,-1.043c2.341,-0.696 4.539,-1.692 6.595,-2.989c2.056,-1.297 3.89,-2.878 5.503,-4.745c1.613,-1.866 2.926,-3.937 3.938,-6.215l18.977,19.072c-2.404,3.416 -5.171,6.484 -8.302,9.204c-3.131,2.72 -6.516,5.029 -10.153,6.927c-3.637,1.898 -7.464,3.337 -11.481,4.317c-4.017,0.981 -8.144,1.471 -12.383,1.471c-7.148,0 -13.869,-1.328 -20.163,-3.985c-6.294,-2.657 -11.797,-6.358 -16.51,-11.102c-4.713,-4.744 -8.429,-10.39 -11.149,-16.937c-2.72,-6.547 -4.08,-13.742 -4.08,-21.586c0,-8.034 1.36,-15.372 4.08,-22.014c2.72,-6.642 6.436,-12.303 11.149,-16.984c4.713,-4.681 10.216,-8.318 16.51,-10.912c6.294,-2.594 13.015,-3.89 20.163,-3.89c4.239,0 8.382,0.506 12.43,1.518c4.049,1.012 7.892,2.467 11.529,4.365c3.637,1.897 7.037,4.222 10.2,6.974c3.163,2.751 5.946,5.835 8.35,9.251l-48.581,58.544Zm13.284,-53.42c-1.202,-0.443 -2.388,-0.728 -3.559,-0.854c-1.17,-0.127 -2.388,-0.19 -3.653,-0.19c-3.542,0 -6.879,0.648 -10.01,1.945c-3.131,1.297 -5.851,3.147 -8.16,5.551c-2.309,2.404 -4.128,5.298 -5.456,8.682c-1.329,3.384 -1.993,7.195 -1.993,11.434c0,0.949 0.048,2.024 0.143,3.226c0.094,1.202 0.253,2.419 0.474,3.653c0.221,1.233 0.49,2.419 0.807,3.558c0.316,1.139 0.727,2.151 1.233,3.036l30.174,-40.041Z" style="fill:#b8ea86;fill-rule:nonzero;"/><path d="M613.213,172.222c-6.262,0 -12.145,-1.186 -17.649,-3.558c-5.503,-2.372 -10.326,-5.63 -14.47,-9.773c-4.143,-4.143 -7.401,-8.967 -9.773,-14.47c-2.372,-5.504 -3.558,-11.386 -3.558,-17.649l0,-30.173l-12.62,0l0,-25.809l12.62,0l0,-40.611l25.809,0l0,40.611l39.282,0l0,25.809l-39.282,0l0,30.173c0,2.72 0.506,5.266 1.518,7.638c1.012,2.373 2.404,4.444 4.175,6.215c1.771,1.772 3.859,3.179 6.262,4.223c2.404,1.044 4.966,1.565 7.686,1.565l19.641,0l0,25.809l-19.641,0Z" style="fill:#b8ea86;fill-rule:nonzero;"/><path d="M747.711,172.222l-6.262,0l-10.058,-13.948c-2.467,2.214 -5.076,4.286 -7.828,6.215c-2.752,1.929 -5.646,3.606 -8.682,5.029c-3.037,1.423 -6.152,2.546 -9.346,3.368c-3.195,0.823 -6.437,1.234 -9.726,1.234c-7.148,0 -13.869,-1.202 -20.163,-3.606c-6.294,-2.403 -11.798,-5.898 -16.51,-10.485c-4.713,-4.586 -8.429,-10.2 -11.149,-16.842c-2.72,-6.642 -4.08,-14.201 -4.08,-22.677c0,-7.907 1.36,-15.166 4.08,-21.776c2.72,-6.611 6.436,-12.288 11.149,-17.032c4.712,-4.745 10.216,-8.429 16.51,-11.055c6.294,-2.625 13.015,-3.937 20.163,-3.937c3.289,0 6.547,0.411 9.773,1.233c3.226,0.823 6.357,1.961 9.394,3.416c3.036,1.455 5.93,3.163 8.682,5.124c2.751,1.961 5.329,4.08 7.733,6.357l10.058,-12.05l6.262,0l0,101.432Zm-26.093,-51.712c0,-3.543 -0.68,-6.974 -2.04,-10.295c-1.36,-3.321 -3.211,-6.263 -5.551,-8.825c-2.341,-2.562 -5.077,-4.617 -8.208,-6.167c-3.131,-1.55 -6.468,-2.325 -10.01,-2.325c-3.543,0 -6.879,0.601 -10.011,1.803c-3.131,1.202 -5.851,2.973 -8.16,5.313c-2.309,2.341 -4.127,5.235 -5.456,8.682c-1.328,3.448 -1.992,7.386 -1.992,11.814c0,4.428 0.664,8.365 1.992,11.813c1.329,3.447 3.147,6.341 5.456,8.682c2.309,2.34 5.029,4.112 8.16,5.314c3.132,1.201 6.468,1.802 10.011,1.802c3.542,0 6.879,-0.775 10.01,-2.324c3.131,-1.55 5.867,-3.606 8.208,-6.168c2.34,-2.562 4.191,-5.503 5.551,-8.824c1.36,-3.321 2.04,-6.753 2.04,-10.295Z" style="fill:#b8ea86;fill-rule:nonzero;"/><path d="M898.625,172.222l-25.809,0l0,-64.522c0,-1.771 -0.332,-3.447 -0.997,-5.029c-0.664,-1.581 -1.597,-2.973 -2.799,-4.175c-1.202,-1.202 -2.593,-2.135 -4.175,-2.799c-1.581,-0.664 -3.257,-0.996 -5.029,-0.996c-1.771,0 -3.431,0.332 -4.981,0.996c-1.55,0.664 -2.91,1.597 -4.08,2.799c-1.17,1.202 -2.088,2.594 -2.752,4.175c-0.664,1.582 -0.996,3.258 -0.996,5.029l0,64.522l-25.904,0l0,-64.522c0,-1.771 -0.332,-3.447 -0.996,-5.029c-0.664,-1.581 -1.597,-2.973 -2.799,-4.175c-1.202,-1.202 -2.594,-2.135 -4.175,-2.799c-1.582,-0.664 -3.258,-0.996 -5.029,-0.996c-1.771,0 -3.432,0.332 -4.982,0.996c-1.549,0.664 -2.909,1.597 -4.08,2.799c-1.17,1.202 -2.087,2.594 -2.751,4.175c-0.665,1.582 -0.997,3.258 -0.997,5.029l0,64.522l-25.903,0l0,-101.622l6.262,0l7.022,7.781c3.605,-3.037 7.575,-5.393 11.908,-7.069c4.333,-1.677 8.84,-2.515 13.521,-2.515c4.744,0 9.378,0.886 13.901,2.657c4.522,1.771 8.492,4.839 11.908,9.204c1.581,-2.151 3.384,-3.985 5.408,-5.504c2.024,-1.518 4.159,-2.751 6.405,-3.7c2.246,-0.949 4.57,-1.629 6.974,-2.04c2.404,-0.411 4.776,-0.617 7.116,-0.617c5.377,0 10.422,1.012 15.135,3.036c4.712,2.025 8.824,4.792 12.335,8.303c3.511,3.511 6.278,7.638 8.302,12.383c2.024,4.744 3.037,9.804 3.037,15.181l0,64.522Z" style="fill:#b8ea86;fill-rule:nonzero;"/><path d="M1017.66,120.51c0,7.591 -1.36,14.66 -4.08,21.207c-2.72,6.547 -6.42,12.208 -11.101,16.984c-4.681,4.776 -10.169,8.54 -16.463,11.291c-6.294,2.752 -13.047,4.128 -20.258,4.128c-7.148,0 -13.869,-1.376 -20.163,-4.128c-6.294,-2.751 -11.797,-6.515 -16.51,-11.291c-4.713,-4.776 -8.429,-10.437 -11.149,-16.984c-2.72,-6.547 -4.08,-13.616 -4.08,-21.207c0,-7.718 1.36,-14.866 4.08,-21.444c2.72,-6.579 6.436,-12.256 11.149,-17.032c4.713,-4.776 10.216,-8.524 16.51,-11.244c6.294,-2.72 13.015,-4.08 20.163,-4.08c7.211,0 13.964,1.281 20.258,3.843c6.294,2.561 11.782,6.199 16.463,10.911c4.681,4.713 8.381,10.374 11.101,16.985c2.72,6.61 4.08,13.964 4.08,22.061Zm-26.093,0c0,-4.175 -0.68,-7.955 -2.04,-11.339c-1.36,-3.384 -3.21,-6.294 -5.551,-8.73c-2.34,-2.435 -5.076,-4.301 -8.207,-5.598c-3.132,-1.297 -6.469,-1.945 -10.011,-1.945c-3.542,0 -6.879,0.648 -10.01,1.945c-3.132,1.297 -5.852,3.163 -8.16,5.598c-2.309,2.436 -4.128,5.346 -5.456,8.73c-1.329,3.384 -1.993,7.164 -1.993,11.339c0,3.922 0.664,7.559 1.993,10.912c1.328,3.352 3.147,6.262 5.456,8.729c2.308,2.467 5.028,4.412 8.16,5.835c3.131,1.424 6.468,2.135 10.01,2.135c3.542,0 6.879,-0.664 10.011,-1.992c3.131,-1.329 5.867,-3.195 8.207,-5.598c2.341,-2.404 4.191,-5.314 5.551,-8.73c1.36,-3.416 2.04,-7.18 2.04,-11.291Z" style="fill:#b8ea86;fill-rule:nonzero;"/><path d="M1132.13,172.222l-6.263,0l-10.057,-13.948c-2.468,2.214 -5.077,4.286 -7.829,6.215c-2.751,1.929 -5.645,3.606 -8.682,5.029c-3.036,1.423 -6.151,2.546 -9.346,3.368c-3.194,0.823 -6.436,1.234 -9.726,1.234c-7.148,0 -13.869,-1.344 -20.163,-4.033c-6.294,-2.688 -11.797,-6.42 -16.51,-11.196c-4.712,-4.776 -8.429,-10.438 -11.149,-16.985c-2.72,-6.547 -4.08,-13.679 -4.08,-21.396c0,-7.654 1.36,-14.771 4.08,-21.35c2.72,-6.578 6.437,-12.271 11.149,-17.079c4.713,-4.807 10.216,-8.571 16.51,-11.291c6.294,-2.72 13.015,-4.08 20.163,-4.08c2.278,0 4.634,0.189 7.069,0.569c2.436,0.38 4.808,0.996 7.117,1.85c2.309,0.854 4.475,1.977 6.499,3.369c2.025,1.391 3.733,3.099 5.124,5.123l0,-47.442l26.094,0l0,142.043Zm-26.094,-51.712c0,-3.543 -0.68,-6.974 -2.04,-10.295c-1.36,-3.321 -3.21,-6.263 -5.551,-8.825c-2.34,-2.562 -5.076,-4.617 -8.207,-6.167c-3.131,-1.55 -6.468,-2.325 -10.011,-2.325c-3.542,0 -6.879,0.633 -10.01,1.898c-3.131,1.265 -5.851,3.084 -8.16,5.456c-2.309,2.372 -4.128,5.266 -5.456,8.682c-1.328,3.416 -1.993,7.274 -1.993,11.576c0,3.732 0.665,7.274 1.993,10.627c1.328,3.352 3.147,6.294 5.456,8.824c2.309,2.531 5.029,4.523 8.16,5.978c3.131,1.455 6.468,2.182 10.01,2.182c3.543,0 6.88,-0.775 10.011,-2.324c3.131,-1.55 5.867,-3.606 8.207,-6.168c2.341,-2.562 4.191,-5.503 5.551,-8.824c1.36,-3.321 2.04,-6.753 2.04,-10.295Z" style="fill:#b8ea86;fill-rule:nonzero;"/><path d="M1194.23,147.362c1.013,0.317 2.025,0.522 3.037,0.617c1.012,0.095 2.024,0.142 3.036,0.142c2.53,0 4.966,-0.348 7.306,-1.043c2.341,-0.696 4.539,-1.692 6.595,-2.989c2.056,-1.297 3.89,-2.878 5.503,-4.745c1.613,-1.866 2.926,-3.937 3.938,-6.215l18.977,19.072c-2.404,3.416 -5.171,6.484 -8.302,9.204c-3.132,2.72 -6.516,5.029 -10.153,6.927c-3.638,1.898 -7.465,3.337 -11.481,4.317c-4.017,0.981 -8.145,1.471 -12.383,1.471c-7.148,0 -13.869,-1.328 -20.163,-3.985c-6.294,-2.657 -11.797,-6.358 -16.51,-11.102c-4.713,-4.744 -8.429,-10.39 -11.149,-16.937c-2.72,-6.547 -4.08,-13.742 -4.08,-21.586c0,-8.034 1.36,-15.372 4.08,-22.014c2.72,-6.642 6.436,-12.303 11.149,-16.984c4.713,-4.681 10.216,-8.318 16.51,-10.912c6.294,-2.594 13.015,-3.89 20.163,-3.89c4.238,0 8.382,0.506 12.43,1.518c4.049,1.012 7.891,2.467 11.529,4.365c3.637,1.897 7.037,4.222 10.2,6.974c3.163,2.751 5.946,5.835 8.35,9.251l-48.582,58.544Zm13.284,-53.42c-1.202,-0.443 -2.388,-0.728 -3.558,-0.854c-1.17,-0.127 -2.388,-0.19 -3.653,-0.19c-3.542,0 -6.879,0.648 -10.01,1.945c-3.132,1.297 -5.852,3.147 -8.16,5.551c-2.309,2.404 -4.128,5.298 -5.456,8.682c-1.329,3.384 -1.993,7.195 -1.993,11.434c0,0.949 0.047,2.024 0.142,3.226c0.095,1.202 0.253,2.419 0.475,3.653c0.221,1.233 0.49,2.419 0.806,3.558c0.317,1.139 0.728,2.151 1.234,3.036l30.173,-40.041Z" style="fill:#b8ea86;fill-rule:nonzero;"/><path d="M1283.66,172.222l-25.904,0l0,-101.622l6.263,0l8.539,12.05c4.175,-3.795 8.92,-6.721 14.233,-8.776c5.314,-2.056 10.817,-3.084 16.51,-3.084l22.868,0l0,25.809l-22.868,0c-2.72,0 -5.282,0.506 -7.685,1.518c-2.404,1.012 -4.492,2.404 -6.263,4.175c-1.771,1.771 -3.163,3.858 -4.175,6.262c-1.012,2.404 -1.518,4.966 -1.518,7.686l0,55.982Z" style="fill:#b8ea86;fill-rule:nonzero;"/><path d="M1366.07,172.222l-25.904,0l0,-101.622l6.263,0l8.54,9.868c4.174,-3.795 8.903,-6.721 14.185,-8.777c5.282,-2.056 10.801,-3.084 16.557,-3.084c6.2,0 12.051,1.186 17.554,3.559c5.504,2.372 10.311,5.629 14.423,9.773c4.111,4.143 7.353,8.982 9.726,14.517c2.372,5.535 3.558,11.434 3.558,17.696l0,58.07l-25.904,0l0,-58.07c0,-2.656 -0.506,-5.171 -1.518,-7.543c-1.012,-2.372 -2.404,-4.444 -4.175,-6.215c-1.771,-1.771 -3.827,-3.163 -6.168,-4.175c-2.34,-1.012 -4.839,-1.518 -7.496,-1.518c-2.72,0 -5.282,0.506 -7.685,1.518c-2.404,1.012 -4.492,2.404 -6.263,4.175c-1.771,1.771 -3.163,3.843 -4.175,6.215c-1.012,2.372 -1.518,4.887 -1.518,7.543l0,58.07Z" style="fill:#b8ea86;fill-rule:nonzero;"/><g transform="matrix(0.391578,0,0,0.391578,337.91,-111.427)"><g transform="matrix(225.314,0,0,225.314,524.908,971.124)"><path d="M0.751,-0.347c0,0.033 -0.004,0.065 -0.013,0.096c-0.009,0.031 -0.021,0.059 -0.036,0.086c-0.016,0.027 -0.035,0.052 -0.057,0.074c-0.022,0.022 -0.047,0.041 -0.073,0.057c-0.027,0.015 -0.056,0.028 -0.087,0.036c-0.031,0.009 -0.063,0.013 -0.096,0.013c-0.033,0 -0.065,-0.004 -0.096,-0.013c-0.031,-0.008 -0.059,-0.021 -0.086,-0.036c-0.027,-0.016 -0.052,-0.035 -0.074,-0.057c-0.022,-0.022 -0.041,-0.047 -0.057,-0.074c-0.015,-0.027 -0.028,-0.055 -0.036,-0.086c-0.009,-0.031 -0.013,-0.063 -0.013,-0.096c0,-0.033 0.004,-0.065 0.013,-0.096c0.008,-0.031 0.021,-0.06 0.036,-0.087c0.016,-0.026 0.035,-0.051 0.057,-0.073c0.022,-0.022 0.047,-0.041 0.074,-0.057c0.027,-0.015 0.055,-0.027 0.086,-0.036c0.031,-0.009 0.063,-0.013 0.096,-0.013c0.033,0 0.065,0.004 0.096,0.013c0.031,0.009 0.06,0.021 0.087,0.036c0.026,0.016 0.051,0.035 0.073,0.057c0.022,0.022 0.041,0.047 0.057,0.073c0.015,0.027 0.027,0.056 0.036,0.087c0.009,0.031 0.013,0.063 0.013,0.096Zm-0.139,0c0,-0.031 -0.006,-0.06 -0.018,-0.087c-0.011,-0.027 -0.027,-0.051 -0.047,-0.071c-0.02,-0.02 -0.044,-0.036 -0.071,-0.047c-0.027,-0.012 -0.056,-0.018 -0.087,-0.018c-0.031,0 -0.06,0.006 -0.087,0.018c-0.027,0.011 -0.05,0.027 -0.071,0.047c-0.02,0.02 -0.036,0.044 -0.047,0.071c-0.012,0.027 -0.018,0.056 -0.018,0.087c0,0.03 0.006,0.059 0.018,0.086c0.011,0.027 0.027,0.05 0.047,0.071c0.021,0.02 0.044,0.036 0.071,0.047c0.027,0.012 0.056,0.018 0.087,0.018c0.031,0 0.06,-0.006 0.087,-0.018c0.027,-0.011 0.051,-0.027 0.071,-0.047c0.02,-0.021 0.036,-0.044 0.047,-0.071c0.012,-0.027 0.018,-0.056 0.018,-0.086Z" style="fill:#dcc5dc;fill-rule:nonzero;"/></g><g transform="matrix(225.314,0,0,225.314,767.759,971.124)"><path d="M0.205,-0.56l0,0.28l0.14,0c0.019,0 0.037,-0.003 0.054,-0.011c0.017,-0.007 0.032,-0.017 0.045,-0.03c0.013,-0.012 0.023,-0.027 0.03,-0.044c0.007,-0.018 0.011,-0.036 0.011,-0.055c0,-0.019 -0.004,-0.037 -0.011,-0.054c-0.007,-0.017 -0.017,-0.032 -0.03,-0.045c-0.013,-0.013 -0.028,-0.023 -0.045,-0.03c-0.017,-0.007 -0.035,-0.011 -0.054,-0.011l-0.14,0Zm0,0.56l-0.14,0l0,-0.7l0.28,0c0.026,0 0.051,0.003 0.074,0.01c0.024,0.006 0.046,0.016 0.067,0.028c0.021,0.012 0.04,0.027 0.057,0.044c0.017,0.017 0.031,0.036 0.044,0.057c0.012,0.021 0.021,0.043 0.028,0.067c0.007,0.024 0.01,0.048 0.01,0.074c0,0.038 -0.007,0.075 -0.022,0.109c-0.015,0.034 -0.035,0.063 -0.06,0.089c-0.025,0.025 -0.055,0.045 -0.089,0.06c-0.034,0.015 -0.07,0.022 -0.109,0.022l-0.14,0l0,0.14Z" style="fill:#dcc5dc;fill-rule:nonzero;"/></g><g transform="matrix(225.314,0,0,225.314,980.025,971.124)"><path d="M0.545,0l-0.48,0l0,-0.7l0.48,0l0,0.14l-0.34,0l0,0.14l0.23,0l0,0.14l-0.23,0l0,0.14l0.34,0l0,0.14Z" style="fill:#dcc5dc;fill-rule:nonzero;"/></g><g transform="matrix(225.314,0,0,225.314,1177.88,971.124)"><path d="M0.625,0l-0.15,0l-0.27,-0.461l0,0.461l-0.14,0l0,-0.7l0.15,0l0.27,0.461l0,-0.461l0.14,0l0,0.7Z" style="fill:#dcc5dc;fill-rule:nonzero;"/></g><g transform="matrix(225.314,0,0,225.314,1574.86,971.124)"><path d="M0.024,-0.49c0,-0.029 0.005,-0.056 0.017,-0.082c0.011,-0.025 0.026,-0.047 0.045,-0.066c0.019,-0.019 0.041,-0.035 0.066,-0.046c0.026,-0.011 0.053,-0.016 0.082,-0.016l0.321,0l0,0.14l-0.321,0c-0.01,0 -0.019,0.002 -0.027,0.005c-0.009,0.004 -0.016,0.009 -0.023,0.015c-0.006,0.007 -0.011,0.014 -0.015,0.022c-0.003,0.009 -0.005,0.018 -0.005,0.028c0,0.01 0.002,0.019 0.005,0.027c0.004,0.009 0.009,0.016 0.015,0.023c0.007,0.006 0.014,0.011 0.023,0.015c0.008,0.003 0.017,0.005 0.027,0.005l0.14,0c0.029,0 0.056,0.006 0.082,0.016c0.025,0.011 0.048,0.026 0.067,0.045c0.019,0.019 0.034,0.042 0.045,0.067c0.011,0.026 0.016,0.053 0.016,0.082c0,0.029 -0.005,0.056 -0.016,0.082c-0.011,0.025 -0.026,0.047 -0.045,0.066c-0.019,0.019 -0.042,0.034 -0.067,0.045c-0.026,0.011 -0.053,0.017 -0.082,0.017l-0.311,0l0,-0.14l0.311,0c0.01,0 0.019,-0.002 0.027,-0.006c0.009,-0.003 0.016,-0.008 0.023,-0.014c0.006,-0.007 0.011,-0.014 0.014,-0.023c0.004,-0.008 0.006,-0.017 0.006,-0.027c0,-0.01 -0.002,-0.019 -0.006,-0.027c-0.003,-0.009 -0.008,-0.016 -0.014,-0.023c-0.007,-0.006 -0.014,-0.011 -0.023,-0.014c-0.008,-0.004 -0.017,-0.006 -0.027,-0.006l-0.14,0c-0.029,0 -0.056,-0.005 -0.082,-0.016c-0.025,-0.011 -0.047,-0.027 -0.066,-0.046c-0.019,-0.019 -0.034,-0.041 -0.045,-0.066c-0.012,-0.026 -0.017,-0.053 -0.017,-0.082Z" style="fill:#dcc5dc;fill-rule:nonzero;"/></g><g transform="matrix(225.314,0,0,225.314,1780.09,971.124)"><path d="M0.751,-0.347c0,0.033 -0.004,0.065 -0.013,0.096c-0.009,0.031 -0.021,0.059 -0.036,0.086c-0.016,0.027 -0.035,0.052 -0.057,0.074c-0.022,0.022 -0.047,0.041 -0.073,0.057c-0.027,0.015 -0.056,0.028 -0.087,0.036c-0.031,0.009 -0.063,0.013 -0.096,0.013c-0.033,0 -0.065,-0.004 -0.096,-0.013c-0.031,-0.008 -0.059,-0.021 -0.086,-0.036c-0.027,-0.016 -0.052,-0.035 -0.074,-0.057c-0.022,-0.022 -0.041,-0.047 -0.057,-0.074c-0.015,-0.027 -0.028,-0.055 -0.036,-0.086c-0.009,-0.031 -0.013,-0.063 -0.013,-0.096c0,-0.033 0.004,-0.065 0.013,-0.096c0.008,-0.031 0.021,-0.06 0.036,-0.087c0.016,-0.026 0.035,-0.051 0.057,-0.073c0.022,-0.022 0.047,-0.041 0.074,-0.057c0.027,-0.015 0.055,-0.027 0.086,-0.036c0.031,-0.009 0.063,-0.013 0.096,-0.013c0.033,0 0.065,0.004 0.096,0.013c0.031,0.009 0.06,0.021 0.087,0.036c0.026,0.016 0.051,0.035 0.073,0.057c0.022,0.022 0.041,0.047 0.057,0.073c0.015,0.027 0.027,0.056 0.036,0.087c0.009,0.031 0.013,0.063 0.013,0.096Zm-0.139,0c0,-0.031 -0.006,-0.06 -0.018,-0.087c-0.011,-0.027 -0.027,-0.051 -0.047,-0.071c-0.02,-0.02 -0.044,-0.036 -0.071,-0.047c-0.027,-0.012 -0.056,-0.018 -0.087,-0.018c-0.031,0 -0.06,0.006 -0.087,0.018c-0.027,0.011 -0.05,0.027 -0.071,0.047c-0.02,0.02 -0.036,0.044 -0.047,0.071c-0.012,0.027 -0.018,0.056 -0.018,0.087c0,0.03 0.006,0.059 0.018,0.086c0.011,0.027 0.027,0.05 0.047,0.071c0.021,0.02 0.044,0.036 0.071,0.047c0.027,0.012 0.056,0.018 0.087,0.018c0.031,0 0.06,-0.006 0.087,-0.018c0.027,-0.011 0.051,-0.027 0.071,-0.047c0.02,-0.021 0.036,-0.044 0.047,-0.071c0.012,-0.027 0.018,-0.056 0.018,-0.086Z" style="fill:#dcc5dc;fill-rule:nonzero;"/></g><g transform="matrix(225.314,0,0,225.314,2022.94,971.124)"><path d="M0.617,-0.28c0,0.039 -0.007,0.075 -0.022,0.109c-0.014,0.034 -0.034,0.064 -0.06,0.089c-0.025,0.025 -0.055,0.045 -0.089,0.06c-0.034,0.015 -0.07,0.022 -0.109,0.022c-0.039,0 -0.075,-0.007 -0.109,-0.022c-0.034,-0.015 -0.064,-0.035 -0.089,-0.06c-0.025,-0.025 -0.045,-0.055 -0.06,-0.089c-0.015,-0.034 -0.022,-0.07 -0.022,-0.109l0,-0.42l0.14,0l0,0.42c0,0.019 0.003,0.037 0.011,0.054c0.007,0.017 0.017,0.032 0.03,0.045c0.012,0.013 0.027,0.023 0.044,0.03c0.018,0.007 0.036,0.011 0.055,0.011c0.019,0 0.037,-0.004 0.054,-0.011c0.017,-0.007 0.032,-0.017 0.045,-0.03c0.013,-0.013 0.023,-0.028 0.03,-0.045c0.007,-0.017 0.011,-0.035 0.011,-0.054l0,-0.42l0.14,0l0,0.42Z" style="fill:#dcc5dc;fill-rule:nonzero;"/></g><g transform="matrix(225.314,0,0,225.314,2242.35,971.124)"><path d="M0.205,-0.56l0,0.28l0.14,0c0.019,0 0.037,-0.003 0.054,-0.011c0.017,-0.007 0.032,-0.017 0.045,-0.03c0.013,-0.012 0.023,-0.027 0.03,-0.044c0.007,-0.018 0.011,-0.036 0.011,-0.055c0,-0.019 -0.004,-0.037 -0.011,-0.054c-0.007,-0.017 -0.017,-0.032 -0.03,-0.045c-0.013,-0.013 -0.028,-0.023 -0.045,-0.03c-0.017,-0.007 -0.035,-0.011 -0.054,-0.011l-0.14,0Zm0,0.56l-0.14,0l0,-0.7l0.28,0c0.026,0 0.051,0.003 0.074,0.01c0.024,0.006 0.046,0.016 0.067,0.028c0.021,0.012 0.04,0.027 0.057,0.044c0.017,0.017 0.031,0.036 0.044,0.057c0.012,0.021 0.021,0.043 0.028,0.067c0.007,0.024 0.01,0.048 0.01,0.074c0,0.024 -0.003,0.048 -0.009,0.07c-0.006,0.023 -0.015,0.045 -0.026,0.065c-0.011,0.021 -0.025,0.04 -0.041,0.057c-0.016,0.017 -0.035,0.032 -0.055,0.045l0.078,0.183l-0.149,0l-0.061,-0.141l-0.157,0.001l0,0.14Z" style="fill:#dcc5dc;fill-rule:nonzero;"/></g><g transform="matrix(225.314,0,0,225.314,2456.82,971.124)"><path d="M0.624,-0.072c-0.033,0.028 -0.069,0.05 -0.109,0.065c-0.041,0.015 -0.083,0.022 -0.126,0.022c-0.033,0 -0.065,-0.004 -0.096,-0.013c-0.031,-0.008 -0.059,-0.021 -0.086,-0.036c-0.027,-0.016 -0.052,-0.035 -0.074,-0.057c-0.022,-0.022 -0.041,-0.047 -0.057,-0.074c-0.015,-0.027 -0.028,-0.055 -0.036,-0.086c-0.009,-0.031 -0.013,-0.063 -0.013,-0.096c0,-0.033 0.004,-0.065 0.013,-0.096c0.008,-0.031 0.021,-0.06 0.036,-0.087c0.016,-0.027 0.035,-0.051 0.057,-0.074c0.022,-0.022 0.047,-0.041 0.074,-0.056c0.027,-0.016 0.055,-0.028 0.086,-0.037c0.031,-0.009 0.063,-0.013 0.096,-0.013c0.043,0 0.085,0.007 0.126,0.022c0.04,0.015 0.076,0.037 0.109,0.065l-0.074,0.122c-0.021,-0.022 -0.045,-0.039 -0.073,-0.051c-0.028,-0.012 -0.057,-0.018 -0.088,-0.018c-0.031,0 -0.06,0.006 -0.087,0.018c-0.027,0.011 -0.05,0.027 -0.071,0.047c-0.02,0.02 -0.036,0.044 -0.047,0.071c-0.012,0.027 -0.018,0.056 -0.018,0.087c0,0.03 0.006,0.059 0.018,0.086c0.011,0.027 0.027,0.05 0.047,0.071c0.021,0.02 0.044,0.036 0.071,0.047c0.027,0.012 0.056,0.018 0.087,0.018c0.031,0 0.06,-0.006 0.088,-0.018c0.028,-0.012 0.052,-0.029 0.073,-0.051l0.074,0.122Z" style="fill:#dcc5dc;fill-rule:nonzero;"/></g><g transform="matrix(225.314,0,0,225.314,2668.65,971.124)"><path d="M0.545,0l-0.48,0l0,-0.7l0.48,0l0,0.14l-0.34,0l0,0.14l0.23,0l0,0.14l-0.23,0l0,0.14l0.34,0l0,0.14Z" style="fill:#dcc5dc;fill-rule:nonzero;"/></g></g></svg>