<?xml version="1.0" encoding="UTF-8" standalone="no"?><!DOCTYPE svg PUBLIC "-//W3C//DTD SVG 1.1//EN" "http://www.w3.org/Graphics/SVG/1.1/DTD/svg11.dtd"><svg width="100%" height="100%" viewBox="0 0 1260 301" version="1.1" xmlns="http://www.w3.org/2000/svg" xmlns:xlink="http://www.w3.org/1999/xlink" xml:space="preserve" xmlns:serif="http://www.serif.com/" style="fill-rule:evenodd;clip-rule:evenodd;stroke-linejoin:round;stroke-miterlimit:2;"><rect id="os-logo-blue-purple-no-bg" x="0" y="0" width="1260" height="300.358" style="fill:none;"/><g><path d="M133.307,157.485l46.507,-46.507c0.908,-0.908 1.952,-1.56 3.132,-1.955c1.18,-0.394 2.398,-0.554 3.654,-0.479c1.256,0.075 2.494,0.39 3.715,0.945c1.22,0.554 2.343,1.344 3.367,2.368c1.024,1.024 1.813,2.146 2.368,3.367c0.554,1.22 0.869,2.458 0.944,3.715c0.075,1.256 -0.093,2.465 -0.505,3.628c-0.411,1.162 -1.071,2.198 -1.98,3.106l-46.507,46.508l14.695,14.695l46.508,-46.507c0.908,-0.909 1.943,-1.569 3.106,-1.98c1.163,-0.412 2.372,-0.58 3.628,-0.505c1.256,0.075 2.495,0.39 3.715,0.944c1.221,0.555 2.343,1.344 3.367,2.368c1.024,1.024 1.814,2.147 2.368,3.367c0.555,1.221 0.869,2.459 0.945,3.715c0.075,1.256 -0.093,2.466 -0.505,3.628c-0.412,1.163 -1.072,2.199 -1.98,3.107l-46.508,46.507l14.696,14.696l46.507,-46.508c2.695,-2.695 4.659,-5.802 5.892,-9.322c1.233,-3.521 1.737,-7.165 1.512,-10.933c-0.226,-3.769 -1.171,-7.5 -2.837,-11.194c-1.665,-3.694 -4.017,-7.06 -7.055,-10.098c-2.731,-2.731 -5.791,-4.927 -9.18,-6.591c-3.389,-1.663 -6.908,-2.684 -10.557,-3.063c-0.379,-3.649 -1.391,-7.159 -3.037,-10.531c-1.646,-3.372 -3.835,-6.423 -6.565,-9.154c-3.038,-3.038 -6.405,-5.39 -10.098,-7.055c-3.694,-1.666 -7.426,-2.611 -11.194,-2.837c-3.768,-0.225 -7.412,0.278 -10.933,1.512c-3.52,1.233 -6.628,3.197 -9.322,5.892l-46.508,46.507l0.031,0.031l-46.507,46.508c-0.908,0.908 -1.952,1.559 -3.132,1.954c-1.18,0.395 -2.398,0.555 -3.654,0.479c-1.256,-0.075 -2.494,-0.39 -3.715,-0.944c-1.22,-0.555 -2.343,-1.344 -3.367,-2.368c-1.024,-1.024 -1.813,-2.146 -2.368,-3.367c-0.554,-1.221 -0.869,-2.459 -0.944,-3.715c-0.075,-1.256 0.093,-2.465 0.505,-3.628c0.411,-1.163 1.071,-2.198 1.98,-3.107l46.507,-46.507l-14.695,-14.695l-46.508,46.507c-0.908,0.908 -1.943,1.568 -3.106,1.98c-1.163,0.412 -2.372,0.58 -3.628,0.505c-1.256,-0.075 -2.495,-0.39 -3.715,-0.945c-1.221,-0.554 -2.343,-1.343 -3.367,-2.368c-1.024,-1.024 -1.814,-2.146 -2.368,-3.367c-0.555,-1.22 -0.869,-2.458 -0.945,-3.714c-0.075,-1.257 0.093,-2.466 0.505,-3.629c0.412,-1.162 1.072,-2.198 1.98,-3.106l46.508,-46.508l-14.696,-14.695l-46.507,46.507c-2.695,2.695 -4.659,5.803 -5.892,9.323c-1.233,3.52 -1.737,7.165 -1.512,10.933c0.226,3.768 1.171,7.499 2.837,11.193c1.665,3.694 4.017,7.06 7.055,10.098c2.731,2.731 5.791,4.928 9.18,6.591c3.389,1.663 6.908,2.684 10.557,3.063c0.379,3.649 1.391,7.16 3.037,10.532c1.646,3.372 3.835,6.423 6.565,9.154c3.038,3.038 6.405,5.39 10.098,7.055c3.694,1.665 7.426,2.611 11.194,2.836c3.768,0.226 7.412,-0.278 10.933,-1.511c3.52,-1.233 6.628,-3.197 9.322,-5.892l46.508,-46.508" style="fill:#ea86ea;"/><path d="M133.338,157.516l46.507,-46.507c2.695,-2.695 4.659,-5.802 5.892,-9.323c1.233,-3.52 1.737,-7.164 1.512,-10.932c-0.226,-3.769 -1.172,-7.5 -2.837,-11.194c-1.665,-3.694 -4.017,-7.06 -7.055,-10.098c-2.731,-2.731 -5.791,-4.928 -9.18,-6.591c-3.389,-1.663 -6.908,-2.684 -10.557,-3.063c-0.379,-3.649 -1.391,-7.159 -3.037,-10.531c-1.646,-3.372 -3.835,-6.423 -6.566,-9.154c-3.038,-3.038 -6.404,-5.39 -10.098,-7.055c-3.694,-1.666 -7.425,-2.611 -11.193,-2.837c-3.768,-0.226 -7.412,0.278 -10.933,1.512c-3.52,1.233 -6.628,3.197 -9.322,5.892l-46.508,46.507l14.644,14.644l46.508,-46.507c0.908,-0.908 1.952,-1.56 3.132,-1.955c1.18,-0.394 2.398,-0.554 3.654,-0.479c1.256,0.075 2.494,0.39 3.715,0.945c1.22,0.554 2.343,1.343 3.367,2.367c1.024,1.025 1.813,2.147 2.367,3.367c0.555,1.221 0.87,2.459 0.945,3.715c0.075,1.256 -0.093,2.466 -0.505,3.629c-0.412,1.162 -1.072,2.198 -1.98,3.106l-46.507,46.508l14.695,14.695l46.507,-46.507c0.909,-0.909 1.944,-1.569 3.107,-1.981c1.163,-0.411 2.372,-0.58 3.628,-0.504c1.256,0.075 2.495,0.39 3.715,0.944c1.221,0.555 2.343,1.344 3.367,2.368c1.024,1.024 1.814,2.146 2.368,3.367c0.554,1.221 0.869,2.459 0.945,3.715c0.075,1.256 -0.094,2.465 -0.505,3.628c-0.412,1.163 -1.072,2.198 -1.98,3.107l-46.508,46.507l0.02,0.02l-46.507,46.507c-2.695,2.695 -4.659,5.803 -5.892,9.323c-1.233,3.521 -1.737,7.165 -1.512,10.933c0.226,3.768 1.172,7.499 2.837,11.193c1.665,3.694 4.017,7.06 7.055,10.098c2.731,2.731 5.791,4.928 9.18,6.591c3.389,1.663 6.908,2.684 10.557,3.063c0.379,3.649 1.391,7.16 3.037,10.532c1.646,3.372 3.835,6.423 6.566,9.154c3.038,3.038 6.404,5.39 10.098,7.055c3.694,1.665 7.425,2.611 11.193,2.836c3.768,0.226 7.412,-0.278 10.933,-1.511c3.52,-1.233 6.628,-3.197 9.322,-5.892l46.508,-46.507l-14.644,-14.645l-46.508,46.508c-0.908,0.908 -1.952,1.56 -3.132,1.954c-1.18,0.395 -2.398,0.555 -3.654,0.479c-1.256,-0.075 -2.494,-0.39 -3.715,-0.944c-1.22,-0.555 -2.343,-1.344 -3.367,-2.368c-1.024,-1.024 -1.813,-2.146 -2.367,-3.367c-0.555,-1.22 -0.87,-2.459 -0.945,-3.715c-0.075,-1.256 0.093,-2.465 0.505,-3.628c0.412,-1.163 1.072,-2.198 1.98,-3.107l46.507,-46.507l-14.695,-14.695l-46.507,46.507c-0.909,0.908 -1.944,1.568 -3.107,1.98c-1.163,0.412 -2.372,0.58 -3.628,0.505c-1.256,-0.075 -2.495,-0.39 -3.715,-0.945c-1.221,-0.554 -2.343,-1.343 -3.367,-2.367c-1.024,-1.024 -1.814,-2.147 -2.368,-3.367c-0.554,-1.221 -0.869,-2.459 -0.945,-3.715c-0.075,-1.256 0.094,-2.466 0.505,-3.629c0.412,-1.162 1.072,-2.198 1.98,-3.106l46.508,-46.507" style="fill:#b8ea86;"/></g><path d="M408.777,167.814l-21.71,0l0,-77.731c0,-1.518 -0.291,-2.935 -0.873,-4.25c-0.582,-1.316 -1.366,-2.467 -2.353,-3.454c-0.987,-0.987 -2.138,-1.759 -3.454,-2.315c-1.316,-0.557 -2.733,-0.835 -4.251,-0.835c-1.518,0 -2.935,0.278 -4.251,0.835c-1.316,0.556 -2.467,1.328 -3.454,2.315c-0.986,0.987 -1.758,2.138 -2.315,3.454c-0.556,1.315 -0.835,2.732 -0.835,4.25l0,77.731l-21.786,0l0,-77.731c0,-1.518 -0.278,-2.935 -0.835,-4.25c-0.556,-1.316 -1.328,-2.467 -2.315,-3.454c-0.987,-0.987 -2.138,-1.759 -3.454,-2.315c-1.315,-0.557 -2.732,-0.835 -4.25,-0.835c-1.519,0 -2.936,0.278 -4.251,0.835c-1.316,0.556 -2.467,1.328 -3.454,2.315c-0.987,0.987 -1.759,2.138 -2.315,3.454c-0.557,1.315 -0.835,2.732 -0.835,4.25l0,77.731l-21.786,0l0,-77.731c0,-4.503 0.848,-8.742 2.543,-12.714c1.695,-3.973 4.023,-7.439 6.983,-10.4c2.961,-2.96 6.427,-5.288 10.4,-6.983c3.972,-1.696 8.211,-2.543 12.715,-2.543c4.048,0 7.945,0.721 11.689,2.163c3.745,1.442 7.111,3.53 10.096,6.263c2.986,-2.733 6.339,-4.821 10.058,-6.263c3.72,-1.442 7.604,-2.163 11.652,-2.163c4.504,0 8.742,0.847 12.715,2.543c3.972,1.695 7.439,4.023 10.399,6.983c2.961,2.961 5.288,6.427 6.984,10.4c1.695,3.972 2.543,8.211 2.543,12.714l0,77.731Z" style="fill:#b8ea86;fill-rule:nonzero;"/><path d="M462.098,147.926c0.809,0.253 1.619,0.417 2.429,0.493c0.809,0.076 1.619,0.114 2.429,0.114c2.024,0 3.972,-0.278 5.845,-0.835c1.872,-0.557 3.631,-1.354 5.275,-2.391c1.645,-1.038 3.113,-2.303 4.403,-3.796c1.291,-1.493 2.341,-3.15 3.15,-4.972l15.182,15.258c-1.923,2.733 -4.137,5.187 -6.642,7.363c-2.505,2.176 -5.212,4.023 -8.122,5.541c-2.91,1.518 -5.972,2.67 -9.185,3.454c-3.214,0.785 -6.516,1.177 -9.906,1.177c-5.719,0 -11.095,-1.063 -16.131,-3.188c-5.035,-2.126 -9.438,-5.086 -13.208,-8.882c-3.77,-3.795 -6.743,-8.312 -8.919,-13.549c-2.176,-5.238 -3.264,-10.994 -3.264,-17.269c0,-6.427 1.088,-12.298 3.264,-17.611c2.176,-5.314 5.149,-9.843 8.919,-13.588c3.77,-3.745 8.173,-6.654 13.208,-8.729c5.036,-2.075 10.412,-3.113 16.131,-3.113c3.39,0 6.705,0.405 9.944,1.215c3.239,0.81 6.313,1.974 9.223,3.492c2.91,1.518 5.63,3.378 8.16,5.579c2.53,2.201 4.757,4.668 6.68,7.401l-38.865,46.836Zm10.627,-42.737c-0.962,-0.354 -1.91,-0.582 -2.847,-0.683c-0.936,-0.101 -1.91,-0.152 -2.922,-0.152c-2.834,0 -5.504,0.519 -8.008,1.556c-2.505,1.038 -4.682,2.518 -6.529,4.441c-1.847,1.923 -3.302,4.238 -4.364,6.946c-1.063,2.707 -1.594,5.756 -1.594,9.147c0,0.759 0.038,1.619 0.113,2.58c0.076,0.962 0.203,1.936 0.38,2.923c0.177,0.987 0.392,1.936 0.645,2.846c0.253,0.911 0.582,1.721 0.987,2.43l24.139,-32.034Z" style="fill:#b8ea86;fill-rule:nonzero;"/><path d="M556.789,167.814c-5.01,0 -9.716,-0.949 -14.119,-2.847c-4.403,-1.898 -8.262,-4.504 -11.576,-7.819c-3.315,-3.314 -5.921,-7.173 -7.819,-11.576c-1.897,-4.402 -2.846,-9.109 -2.846,-14.119l0,-24.138l-10.096,0l0,-20.647l10.096,0l0,-32.489l20.647,0l0,32.489l31.426,0l0,20.647l-31.426,0l0,24.138c0,2.177 0.405,4.213 1.214,6.111c0.81,1.898 1.923,3.555 3.34,4.972c1.417,1.417 3.087,2.543 5.01,3.378c1.923,0.835 3.973,1.253 6.149,1.253l15.713,0l0,20.647l-15.713,0Z" style="fill:#b8ea86;fill-rule:nonzero;"/><path d="M667.497,167.814l-5.01,0l-8.047,-11.159c-1.973,1.771 -4.061,3.429 -6.262,4.972c-2.201,1.544 -4.517,2.885 -6.946,4.023c-2.429,1.139 -4.921,2.037 -7.477,2.695c-2.555,0.658 -5.149,0.987 -7.78,0.987c-5.719,0 -11.096,-0.962 -16.131,-2.885c-5.035,-1.923 -9.438,-4.719 -13.208,-8.388c-3.77,-3.669 -6.743,-8.16 -8.919,-13.473c-2.176,-5.314 -3.264,-11.361 -3.264,-18.142c0,-6.326 1.088,-12.133 3.264,-17.421c2.176,-5.289 5.149,-9.831 8.919,-13.626c3.77,-3.795 8.173,-6.743 13.208,-8.843c5.035,-2.1 10.412,-3.151 16.131,-3.151c2.631,0 5.237,0.329 7.818,0.987c2.581,0.658 5.086,1.569 7.515,2.733c2.429,1.164 4.744,2.53 6.946,4.099c2.201,1.569 4.263,3.264 6.186,5.086l8.047,-9.64l5.01,0l0,81.146Zm-20.875,-41.37c0,-2.834 -0.544,-5.58 -1.632,-8.237c-1.088,-2.656 -2.568,-5.009 -4.441,-7.059c-1.872,-2.05 -4.061,-3.694 -6.566,-4.934c-2.505,-1.24 -5.174,-1.86 -8.008,-1.86c-2.834,0 -5.504,0.481 -8.009,1.442c-2.505,0.962 -4.681,2.379 -6.528,4.251c-1.847,1.873 -3.302,4.188 -4.364,6.946c-1.063,2.758 -1.595,5.908 -1.595,9.451c0,3.542 0.532,6.692 1.595,9.45c1.062,2.758 2.517,5.073 4.364,6.946c1.847,1.872 4.023,3.289 6.528,4.251c2.505,0.961 5.175,1.442 8.009,1.442c2.834,0 5.503,-0.62 8.008,-1.86c2.505,-1.24 4.694,-2.884 6.566,-4.934c1.873,-2.049 3.353,-4.403 4.441,-7.059c1.088,-2.657 1.632,-5.403 1.632,-8.236Z" style="fill:#b8ea86;fill-rule:nonzero;"/><path d="M791.336,167.814l-20.647,0l0,-51.618c0,-1.417 -0.265,-2.758 -0.797,-4.023c-0.531,-1.265 -1.277,-2.379 -2.239,-3.34c-0.961,-0.962 -2.075,-1.708 -3.34,-2.24c-1.265,-0.531 -2.606,-0.797 -4.023,-0.797c-1.417,0 -2.745,0.266 -3.985,0.797c-1.24,0.532 -2.328,1.278 -3.264,2.24c-0.936,0.961 -1.67,2.075 -2.202,3.34c-0.531,1.265 -0.797,2.606 -0.797,4.023l0,51.618l-20.723,0l0,-51.618c0,-1.417 -0.265,-2.758 -0.797,-4.023c-0.531,-1.265 -1.277,-2.379 -2.239,-3.34c-0.961,-0.962 -2.075,-1.708 -3.34,-2.24c-1.265,-0.531 -2.606,-0.797 -4.023,-0.797c-1.417,0 -2.745,0.266 -3.985,0.797c-1.24,0.532 -2.328,1.278 -3.264,2.24c-0.937,0.961 -1.67,2.075 -2.202,3.34c-0.531,1.265 -0.797,2.606 -0.797,4.023l0,51.618l-20.723,0l0,-81.298l5.01,0l5.617,6.224c2.885,-2.429 6.06,-4.314 9.527,-5.655c3.466,-1.341 7.072,-2.012 10.817,-2.012c3.795,0 7.502,0.709 11.12,2.126c3.619,1.417 6.794,3.871 9.527,7.363c1.265,-1.721 2.707,-3.188 4.327,-4.403c1.619,-1.214 3.327,-2.201 5.124,-2.96c1.796,-0.759 3.656,-1.303 5.579,-1.632c1.923,-0.329 3.821,-0.494 5.693,-0.494c4.301,0 8.337,0.81 12.107,2.43c3.77,1.619 7.06,3.833 9.868,6.642c2.809,2.808 5.023,6.11 6.642,9.906c1.62,3.795 2.429,7.843 2.429,12.145l0,51.618Z" style="fill:#b8ea86;fill-rule:nonzero;"/><path d="M889.671,126.444c0,6.072 -1.088,11.727 -3.264,16.965c-2.176,5.238 -5.136,9.767 -8.881,13.588c-3.745,3.82 -8.135,6.831 -13.17,9.033c-5.036,2.201 -10.438,3.302 -16.207,3.302c-5.718,0 -11.095,-1.101 -16.13,-3.302c-5.035,-2.202 -9.438,-5.213 -13.208,-9.033c-3.77,-3.821 -6.743,-8.35 -8.919,-13.588c-2.177,-5.238 -3.265,-10.893 -3.265,-16.965c0,-6.174 1.088,-11.893 3.265,-17.156c2.176,-5.263 5.149,-9.805 8.919,-13.625c3.77,-3.821 8.173,-6.819 13.208,-8.995c5.035,-2.176 10.412,-3.265 16.13,-3.265c5.769,0 11.171,1.025 16.207,3.075c5.035,2.049 9.425,4.959 13.17,8.729c3.745,3.77 6.705,8.3 8.881,13.588c2.176,5.288 3.264,11.171 3.264,17.649Zm-20.875,0c0,-3.34 -0.544,-6.364 -1.632,-9.072c-1.088,-2.707 -2.568,-5.035 -4.44,-6.983c-1.873,-1.948 -4.061,-3.441 -6.566,-4.479c-2.505,-1.037 -5.175,-1.556 -8.009,-1.556c-2.834,0 -5.503,0.519 -8.008,1.556c-2.505,1.038 -4.681,2.531 -6.528,4.479c-1.847,1.948 -3.302,4.276 -4.365,6.983c-1.063,2.708 -1.594,5.732 -1.594,9.072c0,3.137 0.531,6.047 1.594,8.729c1.063,2.682 2.518,5.01 4.365,6.984c1.847,1.973 4.023,3.529 6.528,4.668c2.505,1.139 5.174,1.708 8.008,1.708c2.834,0 5.504,-0.532 8.009,-1.594c2.505,-1.063 4.693,-2.556 6.566,-4.479c1.872,-1.923 3.352,-4.251 4.44,-6.983c1.088,-2.733 1.632,-5.744 1.632,-9.033Z" style="fill:#b8ea86;fill-rule:nonzero;"/><path d="M984.362,167.814l-5.01,0l-8.046,-11.159c-1.974,1.771 -4.061,3.429 -6.262,4.972c-2.202,1.544 -4.517,2.885 -6.946,4.023c-2.429,1.139 -4.921,2.037 -7.477,2.695c-2.556,0.658 -5.149,0.987 -7.781,0.987c-5.718,0 -11.095,-1.076 -16.13,-3.226c-5.035,-2.151 -9.438,-5.137 -13.208,-8.958c-3.77,-3.82 -6.743,-8.349 -8.919,-13.587c-2.176,-5.238 -3.264,-10.944 -3.264,-17.117c0,-6.124 1.088,-11.817 3.264,-17.08c2.176,-5.263 5.149,-9.817 8.919,-13.663c3.77,-3.846 8.173,-6.857 13.208,-9.033c5.035,-2.176 10.412,-3.265 16.13,-3.265c1.822,0 3.707,0.152 5.656,0.456c1.948,0.304 3.846,0.797 5.693,1.48c1.847,0.683 3.58,1.582 5.199,2.695c1.62,1.113 2.986,2.48 4.099,4.099l0,-37.954l20.875,0l0,113.635Zm-20.875,-41.37c0,-2.834 -0.544,-5.58 -1.632,-8.237c-1.088,-2.656 -2.568,-5.009 -4.44,-7.059c-1.873,-2.05 -4.061,-3.694 -6.566,-4.934c-2.505,-1.24 -5.175,-1.86 -8.009,-1.86c-2.834,0 -5.503,0.506 -8.008,1.518c-2.505,1.012 -4.681,2.467 -6.528,4.365c-1.847,1.898 -3.302,4.213 -4.365,6.946c-1.062,2.732 -1.594,5.819 -1.594,9.261c0,2.985 0.532,5.819 1.594,8.501c1.063,2.682 2.518,5.036 4.365,7.06c1.847,2.024 4.023,3.618 6.528,4.782c2.505,1.164 5.174,1.746 8.008,1.746c2.834,0 5.504,-0.62 8.009,-1.86c2.505,-1.24 4.693,-2.884 6.566,-4.934c1.872,-2.049 3.352,-4.403 4.44,-7.059c1.088,-2.657 1.632,-5.403 1.632,-8.236Z" style="fill:#b8ea86;fill-rule:nonzero;"/><path d="M1037.15,147.926c0.81,0.253 1.619,0.417 2.429,0.493c0.81,0.076 1.619,0.114 2.429,0.114c2.024,0 3.973,-0.278 5.845,-0.835c1.872,-0.557 3.631,-1.354 5.276,-2.391c1.644,-1.038 3.112,-2.303 4.402,-3.796c1.291,-1.493 2.341,-3.15 3.151,-4.972l15.181,15.258c-1.923,2.733 -4.137,5.187 -6.642,7.363c-2.505,2.176 -5.212,4.023 -8.122,5.541c-2.91,1.518 -5.971,2.67 -9.185,3.454c-3.213,0.785 -6.515,1.177 -9.906,1.177c-5.718,0 -11.095,-1.063 -16.13,-3.188c-5.036,-2.126 -9.438,-5.086 -13.208,-8.882c-3.771,-3.795 -6.744,-8.312 -8.92,-13.549c-2.176,-5.238 -3.264,-10.994 -3.264,-17.269c0,-6.427 1.088,-12.298 3.264,-17.611c2.176,-5.314 5.149,-9.843 8.92,-13.588c3.77,-3.745 8.172,-6.654 13.208,-8.729c5.035,-2.075 10.412,-3.113 16.13,-3.113c3.391,0 6.705,0.405 9.944,1.215c3.239,0.81 6.313,1.974 9.223,3.492c2.91,1.518 5.63,3.378 8.16,5.579c2.53,2.201 4.757,4.668 6.68,7.401l-38.865,46.836Zm10.627,-42.737c-0.961,-0.354 -1.91,-0.582 -2.846,-0.683c-0.937,-0.101 -1.911,-0.152 -2.923,-0.152c-2.834,0 -5.503,0.519 -8.008,1.556c-2.505,1.038 -4.681,2.518 -6.528,4.441c-1.847,1.923 -3.302,4.238 -4.365,6.946c-1.063,2.707 -1.594,5.756 -1.594,9.147c0,0.759 0.038,1.619 0.114,2.58c0.076,0.962 0.202,1.936 0.379,2.923c0.177,0.987 0.392,1.936 0.645,2.846c0.254,0.911 0.582,1.721 0.987,2.43l24.139,-32.034Z" style="fill:#b8ea86;fill-rule:nonzero;"/><path d="M1111.8,167.814l-20.723,0l0,-81.298l5.01,0l6.832,9.64c3.34,-3.036 7.135,-5.377 11.386,-7.021c4.251,-1.645 8.654,-2.467 13.208,-2.467l18.294,0l0,20.647l-18.294,0c-2.176,0 -4.225,0.404 -6.148,1.214c-1.923,0.81 -3.593,1.923 -5.01,3.34c-1.417,1.417 -2.531,3.087 -3.34,5.01c-0.81,1.923 -1.215,3.973 -1.215,6.149l0,44.786Z" style="fill:#b8ea86;fill-rule:nonzero;"/><path d="M1180.84,167.814l-20.723,0l0,-81.298l5.01,0l6.832,7.894c3.34,-3.036 7.123,-5.377 11.348,-7.021c4.226,-1.645 8.641,-2.467 13.246,-2.467c4.96,0 9.641,0.949 14.043,2.846c4.403,1.898 8.249,4.504 11.538,7.819c3.29,3.314 5.883,7.186 7.781,11.614c1.898,4.428 2.847,9.147 2.847,14.157l0,46.456l-20.723,0l0,-46.456c0,-2.126 -0.405,-4.137 -1.215,-6.035c-0.81,-1.898 -1.923,-3.555 -3.34,-4.972c-1.417,-1.417 -3.061,-2.53 -4.934,-3.34c-1.872,-0.81 -3.871,-1.215 -5.997,-1.215c-2.176,0 -4.225,0.405 -6.148,1.215c-1.923,0.81 -3.593,1.923 -5.01,3.34c-1.417,1.417 -2.53,3.074 -3.34,4.972c-0.81,1.898 -1.215,3.909 -1.215,6.035l0,46.456Z" style="fill:#b8ea86;fill-rule:nonzero;"/><g transform="matrix(0.313262,0,0,0.313262,358.312,-59.1062)"><g transform="matrix(225.314,0,0,225.314,524.908,971.124)"><path d="M0.751,-0.347c0,0.033 -0.004,0.065 -0.013,0.096c-0.009,0.031 -0.021,0.059 -0.036,0.086c-0.016,0.027 -0.035,0.052 -0.057,0.074c-0.022,0.022 -0.047,0.041 -0.073,0.057c-0.027,0.015 -0.056,0.028 -0.087,0.036c-0.031,0.009 -0.063,0.013 -0.096,0.013c-0.033,0 -0.065,-0.004 -0.096,-0.013c-0.031,-0.008 -0.059,-0.021 -0.086,-0.036c-0.027,-0.016 -0.052,-0.035 -0.074,-0.057c-0.022,-0.022 -0.041,-0.047 -0.057,-0.074c-0.015,-0.027 -0.028,-0.055 -0.036,-0.086c-0.009,-0.031 -0.013,-0.063 -0.013,-0.096c0,-0.033 0.004,-0.065 0.013,-0.096c0.008,-0.031 0.021,-0.06 0.036,-0.087c0.016,-0.026 0.035,-0.051 0.057,-0.073c0.022,-0.022 0.047,-0.041 0.074,-0.057c0.027,-0.015 0.055,-0.027 0.086,-0.036c0.031,-0.009 0.063,-0.013 0.096,-0.013c0.033,0 0.065,0.004 0.096,0.013c0.031,0.009 0.06,0.021 0.087,0.036c0.026,0.016 0.051,0.035 0.073,0.057c0.022,0.022 0.041,0.047 0.057,0.073c0.015,0.027 0.027,0.056 0.036,0.087c0.009,0.031 0.013,0.063 0.013,0.096Zm-0.139,0c0,-0.031 -0.006,-0.06 -0.018,-0.087c-0.011,-0.027 -0.027,-0.051 -0.047,-0.071c-0.02,-0.02 -0.044,-0.036 -0.071,-0.047c-0.027,-0.012 -0.056,-0.018 -0.087,-0.018c-0.031,0 -0.06,0.006 -0.087,0.018c-0.027,0.011 -0.05,0.027 -0.071,0.047c-0.02,0.02 -0.036,0.044 -0.047,0.071c-0.012,0.027 -0.018,0.056 -0.018,0.087c0,0.03 0.006,0.059 0.018,0.086c0.011,0.027 0.027,0.05 0.047,0.071c0.021,0.02 0.044,0.036 0.071,0.047c0.027,0.012 0.056,0.018 0.087,0.018c0.031,0 0.06,-0.006 0.087,-0.018c0.027,-0.011 0.051,-0.027 0.071,-0.047c0.02,-0.021 0.036,-0.044 0.047,-0.071c0.012,-0.027 0.018,-0.056 0.018,-0.086Z" style="fill:#dad6e6;fill-rule:nonzero;"/></g><g transform="matrix(225.314,0,0,225.314,767.759,971.124)"><path d="M0.205,-0.56l0,0.28l0.14,0c0.019,0 0.037,-0.003 0.054,-0.011c0.017,-0.007 0.032,-0.017 0.045,-0.03c0.013,-0.012 0.023,-0.027 0.03,-0.044c0.007,-0.018 0.011,-0.036 0.011,-0.055c0,-0.019 -0.004,-0.037 -0.011,-0.054c-0.007,-0.017 -0.017,-0.032 -0.03,-0.045c-0.013,-0.013 -0.028,-0.023 -0.045,-0.03c-0.017,-0.007 -0.035,-0.011 -0.054,-0.011l-0.14,0Zm0,0.56l-0.14,0l0,-0.7l0.28,0c0.026,0 0.051,0.003 0.074,0.01c0.024,0.006 0.046,0.016 0.067,0.028c0.021,0.012 0.04,0.027 0.057,0.044c0.017,0.017 0.031,0.036 0.044,0.057c0.012,0.021 0.021,0.043 0.028,0.067c0.007,0.024 0.01,0.048 0.01,0.074c0,0.038 -0.007,0.075 -0.022,0.109c-0.015,0.034 -0.035,0.063 -0.06,0.089c-0.025,0.025 -0.055,0.045 -0.089,0.06c-0.034,0.015 -0.07,0.022 -0.109,0.022l-0.14,0l0,0.14Z" style="fill:#dad6e6;fill-rule:nonzero;"/></g><g transform="matrix(225.314,0,0,225.314,980.025,971.124)"><path d="M0.545,0l-0.48,0l0,-0.7l0.48,0l0,0.14l-0.34,0l0,0.14l0.23,0l0,0.14l-0.23,0l0,0.14l0.34,0l0,0.14Z" style="fill:#dad6e6;fill-rule:nonzero;"/></g><g transform="matrix(225.314,0,0,225.314,1177.88,971.124)"><path d="M0.625,0l-0.15,0l-0.27,-0.461l0,0.461l-0.14,0l0,-0.7l0.15,0l0.27,0.461l0,-0.461l0.14,0l0,0.7Z" style="fill:#dad6e6;fill-rule:nonzero;"/></g><g transform="matrix(225.314,0,0,225.314,1574.86,971.124)"><path d="M0.024,-0.49c0,-0.029 0.005,-0.056 0.017,-0.082c0.011,-0.025 0.026,-0.047 0.045,-0.066c0.019,-0.019 0.041,-0.035 0.066,-0.046c0.026,-0.011 0.053,-0.016 0.082,-0.016l0.321,0l0,0.14l-0.321,0c-0.01,0 -0.019,0.002 -0.027,0.005c-0.009,0.004 -0.016,0.009 -0.023,0.015c-0.006,0.007 -0.011,0.014 -0.015,0.022c-0.003,0.009 -0.005,0.018 -0.005,0.028c0,0.01 0.002,0.019 0.005,0.027c0.004,0.009 0.009,0.016 0.015,0.023c0.007,0.006 0.014,0.011 0.023,0.015c0.008,0.003 0.017,0.005 0.027,0.005l0.14,0c0.029,0 0.056,0.006 0.082,0.016c0.025,0.011 0.048,0.026 0.067,0.045c0.019,0.019 0.034,0.042 0.045,0.067c0.011,0.026 0.016,0.053 0.016,0.082c0,0.029 -0.005,0.056 -0.016,0.082c-0.011,0.025 -0.026,0.047 -0.045,0.066c-0.019,0.019 -0.042,0.034 -0.067,0.045c-0.026,0.011 -0.053,0.017 -0.082,0.017l-0.311,0l0,-0.14l0.311,0c0.01,0 0.019,-0.002 0.027,-0.006c0.009,-0.003 0.016,-0.008 0.023,-0.014c0.006,-0.007 0.011,-0.014 0.014,-0.023c0.004,-0.008 0.006,-0.017 0.006,-0.027c0,-0.01 -0.002,-0.019 -0.006,-0.027c-0.003,-0.009 -0.008,-0.016 -0.014,-0.023c-0.007,-0.006 -0.014,-0.011 -0.023,-0.014c-0.008,-0.004 -0.017,-0.006 -0.027,-0.006l-0.14,0c-0.029,0 -0.056,-0.005 -0.082,-0.016c-0.025,-0.011 -0.047,-0.027 -0.066,-0.046c-0.019,-0.019 -0.034,-0.041 -0.045,-0.066c-0.012,-0.026 -0.017,-0.053 -0.017,-0.082Z" style="fill:#dad6e6;fill-rule:nonzero;"/></g><g transform="matrix(225.314,0,0,225.314,1780.09,971.124)"><path d="M0.751,-0.347c0,0.033 -0.004,0.065 -0.013,0.096c-0.009,0.031 -0.021,0.059 -0.036,0.086c-0.016,0.027 -0.035,0.052 -0.057,0.074c-0.022,0.022 -0.047,0.041 -0.073,0.057c-0.027,0.015 -0.056,0.028 -0.087,0.036c-0.031,0.009 -0.063,0.013 -0.096,0.013c-0.033,0 -0.065,-0.004 -0.096,-0.013c-0.031,-0.008 -0.059,-0.021 -0.086,-0.036c-0.027,-0.016 -0.052,-0.035 -0.074,-0.057c-0.022,-0.022 -0.041,-0.047 -0.057,-0.074c-0.015,-0.027 -0.028,-0.055 -0.036,-0.086c-0.009,-0.031 -0.013,-0.063 -0.013,-0.096c0,-0.033 0.004,-0.065 0.013,-0.096c0.008,-0.031 0.021,-0.06 0.036,-0.087c0.016,-0.026 0.035,-0.051 0.057,-0.073c0.022,-0.022 0.047,-0.041 0.074,-0.057c0.027,-0.015 0.055,-0.027 0.086,-0.036c0.031,-0.009 0.063,-0.013 0.096,-0.013c0.033,0 0.065,0.004 0.096,0.013c0.031,0.009 0.06,0.021 0.087,0.036c0.026,0.016 0.051,0.035 0.073,0.057c0.022,0.022 0.041,0.047 0.057,0.073c0.015,0.027 0.027,0.056 0.036,0.087c0.009,0.031 0.013,0.063 0.013,0.096Zm-0.139,0c0,-0.031 -0.006,-0.06 -0.018,-0.087c-0.011,-0.027 -0.027,-0.051 -0.047,-0.071c-0.02,-0.02 -0.044,-0.036 -0.071,-0.047c-0.027,-0.012 -0.056,-0.018 -0.087,-0.018c-0.031,0 -0.06,0.006 -0.087,0.018c-0.027,0.011 -0.05,0.027 -0.071,0.047c-0.02,0.02 -0.036,0.044 -0.047,0.071c-0.012,0.027 -0.018,0.056 -0.018,0.087c0,0.03 0.006,0.059 0.018,0.086c0.011,0.027 0.027,0.05 0.047,0.071c0.021,0.02 0.044,0.036 0.071,0.047c0.027,0.012 0.056,0.018 0.087,0.018c0.031,0 0.06,-0.006 0.087,-0.018c0.027,-0.011 0.051,-0.027 0.071,-0.047c0.02,-0.021 0.036,-0.044 0.047,-0.071c0.012,-0.027 0.018,-0.056 0.018,-0.086Z" style="fill:#dad6e6;fill-rule:nonzero;"/></g><g transform="matrix(225.314,0,0,225.314,2022.94,971.124)"><path d="M0.617,-0.28c0,0.039 -0.007,0.075 -0.022,0.109c-0.014,0.034 -0.034,0.064 -0.06,0.089c-0.025,0.025 -0.055,0.045 -0.089,0.06c-0.034,0.015 -0.07,0.022 -0.109,0.022c-0.039,0 -0.075,-0.007 -0.109,-0.022c-0.034,-0.015 -0.064,-0.035 -0.089,-0.06c-0.025,-0.025 -0.045,-0.055 -0.06,-0.089c-0.015,-0.034 -0.022,-0.07 -0.022,-0.109l0,-0.42l0.14,0l0,0.42c0,0.019 0.003,0.037 0.011,0.054c0.007,0.017 0.017,0.032 0.03,0.045c0.012,0.013 0.027,0.023 0.044,0.03c0.018,0.007 0.036,0.011 0.055,0.011c0.019,0 0.037,-0.004 0.054,-0.011c0.017,-0.007 0.032,-0.017 0.045,-0.03c0.013,-0.013 0.023,-0.028 0.03,-0.045c0.007,-0.017 0.011,-0.035 0.011,-0.054l0,-0.42l0.14,0l0,0.42Z" style="fill:#dad6e6;fill-rule:nonzero;"/></g><g transform="matrix(225.314,0,0,225.314,2242.35,971.124)"><path d="M0.205,-0.56l0,0.28l0.14,0c0.019,0 0.037,-0.003 0.054,-0.011c0.017,-0.007 0.032,-0.017 0.045,-0.03c0.013,-0.012 0.023,-0.027 0.03,-0.044c0.007,-0.018 0.011,-0.036 0.011,-0.055c0,-0.019 -0.004,-0.037 -0.011,-0.054c-0.007,-0.017 -0.017,-0.032 -0.03,-0.045c-0.013,-0.013 -0.028,-0.023 -0.045,-0.03c-0.017,-0.007 -0.035,-0.011 -0.054,-0.011l-0.14,0Zm0,0.56l-0.14,0l0,-0.7l0.28,0c0.026,0 0.051,0.003 0.074,0.01c0.024,0.006 0.046,0.016 0.067,0.028c0.021,0.012 0.04,0.027 0.057,0.044c0.017,0.017 0.031,0.036 0.044,0.057c0.012,0.021 0.021,0.043 0.028,0.067c0.007,0.024 0.01,0.048 0.01,0.074c0,0.024 -0.003,0.048 -0.009,0.07c-0.006,0.023 -0.015,0.045 -0.026,0.065c-0.011,0.021 -0.025,0.04 -0.041,0.057c-0.016,0.017 -0.035,0.032 -0.055,0.045l0.078,0.183l-0.149,0l-0.061,-0.141l-0.157,0.001l0,0.14Z" style="fill:#dad6e6;fill-rule:nonzero;"/></g><g transform="matrix(225.314,0,0,225.314,2456.82,971.124)"><path d="M0.624,-0.072c-0.033,0.028 -0.069,0.05 -0.109,0.065c-0.041,0.015 -0.083,0.022 -0.126,0.022c-0.033,0 -0.065,-0.004 -0.096,-0.013c-0.031,-0.008 -0.059,-0.021 -0.086,-0.036c-0.027,-0.016 -0.052,-0.035 -0.074,-0.057c-0.022,-0.022 -0.041,-0.047 -0.057,-0.074c-0.015,-0.027 -0.028,-0.055 -0.036,-0.086c-0.009,-0.031 -0.013,-0.063 -0.013,-0.096c0,-0.033 0.004,-0.065 0.013,-0.096c0.008,-0.031 0.021,-0.06 0.036,-0.087c0.016,-0.027 0.035,-0.051 0.057,-0.074c0.022,-0.022 0.047,-0.041 0.074,-0.056c0.027,-0.016 0.055,-0.028 0.086,-0.037c0.031,-0.009 0.063,-0.013 0.096,-0.013c0.043,0 0.085,0.007 0.126,0.022c0.04,0.015 0.076,0.037 0.109,0.065l-0.074,0.122c-0.021,-0.022 -0.045,-0.039 -0.073,-0.051c-0.028,-0.012 -0.057,-0.018 -0.088,-0.018c-0.031,0 -0.06,0.006 -0.087,0.018c-0.027,0.011 -0.05,0.027 -0.071,0.047c-0.02,0.02 -0.036,0.044 -0.047,0.071c-0.012,0.027 -0.018,0.056 -0.018,0.087c0,0.03 0.006,0.059 0.018,0.086c0.011,0.027 0.027,0.05 0.047,0.071c0.021,0.02 0.044,0.036 0.071,0.047c0.027,0.012 0.056,0.018 0.087,0.018c0.031,0 0.06,-0.006 0.088,-0.018c0.028,-0.012 0.052,-0.029 0.073,-0.051l0.074,0.122Z" style="fill:#dad6e6;fill-rule:nonzero;"/></g><g transform="matrix(225.314,0,0,225.314,2668.65,971.124)"><path d="M0.545,0l-0.48,0l0,-0.7l0.48,0l0,0.14l-0.34,0l0,0.14l0.23,0l0,0.14l-0.23,0l0,0.14l0.34,0l0,0.14Z" style="fill:#dad6e6;fill-rule:nonzero;"/></g></g></svg>