<?xml version="1.0" encoding="UTF-8" standalone="no"?><!DOCTYPE svg PUBLIC "-//W3C//DTD SVG 1.1//EN" "http://www.w3.org/Graphics/SVG/1.1/DTD/svg11.dtd"><svg width="100%" height="100%" viewBox="0 0 252 252" version="1.1" xmlns="http://www.w3.org/2000/svg" xmlns:xlink="http://www.w3.org/1999/xlink" xml:space="preserve" xmlns:serif="http://www.serif.com/" style="fill-rule:evenodd;clip-rule:evenodd;stroke-linejoin:round;stroke-miterlimit:2;"><rect id="square-logo-blue-purple-no-bg" x="0" y="0" width="252" height="252" style="fill:none;"/><g><path d="M131.633,131.633l35.855,-35.855c0.701,-0.701 1.506,-1.203 2.415,-1.507c0.91,-0.304 1.849,-0.428 2.817,-0.37c0.968,0.058 1.923,0.301 2.864,0.729c0.941,0.427 1.806,1.036 2.596,1.825c0.789,0.79 1.398,1.655 1.825,2.596c0.428,0.941 0.671,1.896 0.729,2.864c0.058,0.968 -0.072,1.901 -0.39,2.797c-0.317,0.897 -0.826,1.695 -1.526,2.395l-35.855,35.856l11.329,11.329l35.855,-35.855c0.701,-0.7 1.499,-1.209 2.395,-1.527c0.897,-0.317 1.829,-0.447 2.798,-0.389c0.968,0.058 1.923,0.301 2.864,0.728c0.941,0.428 1.806,1.036 2.596,1.826c0.789,0.789 1.398,1.655 1.825,2.596c0.427,0.941 0.67,1.895 0.728,2.864c0.058,0.968 -0.072,1.9 -0.389,2.797c-0.317,0.896 -0.826,1.695 -1.527,2.395l-35.855,35.855l11.33,11.33l35.855,-35.856c2.078,-2.077 3.592,-4.473 4.543,-7.187c0.95,-2.714 1.339,-5.524 1.165,-8.429c-0.174,-2.905 -0.903,-5.781 -2.187,-8.629c-1.284,-2.848 -3.097,-5.443 -5.439,-7.786c-2.106,-2.105 -4.465,-3.799 -7.077,-5.081c-2.613,-1.282 -5.326,-2.069 -8.139,-2.361c-0.293,-2.814 -1.073,-5.52 -2.342,-8.12c-1.269,-2.599 -2.956,-4.952 -5.062,-7.057c-2.342,-2.342 -4.937,-4.155 -7.785,-5.439c-2.848,-1.284 -5.724,-2.013 -8.63,-2.187c-2.905,-0.174 -5.714,0.214 -8.428,1.165c-2.714,0.951 -5.11,2.465 -7.188,4.543l-35.855,35.855l0.024,0.024l-35.855,35.855c-0.701,0.701 -1.506,1.203 -2.415,1.507c-0.91,0.304 -1.849,0.428 -2.817,0.37c-0.968,-0.058 -1.923,-0.301 -2.864,-0.729c-0.941,-0.427 -1.806,-1.036 -2.596,-1.825c-0.789,-0.79 -1.398,-1.655 -1.825,-2.596c-0.428,-0.941 -0.671,-1.896 -0.729,-2.864c-0.058,-0.968 0.072,-1.901 0.39,-2.797c0.317,-0.897 0.826,-1.695 1.526,-2.395l35.855,-35.856l-11.329,-11.329l-35.855,35.855c-0.701,0.7 -1.499,1.209 -2.395,1.527c-0.897,0.317 -1.829,0.447 -2.798,0.389c-0.968,-0.058 -1.923,-0.301 -2.864,-0.728c-0.941,-0.428 -1.806,-1.036 -2.596,-1.826c-0.789,-0.789 -1.398,-1.655 -1.825,-2.596c-0.427,-0.941 -0.67,-1.895 -0.728,-2.864c-0.058,-0.968 0.072,-1.9 0.389,-2.797c0.317,-0.896 0.826,-1.695 1.527,-2.395l35.855,-35.855l-11.33,-11.33l-35.855,35.856c-2.078,2.077 -3.592,4.473 -4.543,7.187c-0.95,2.714 -1.339,5.524 -1.165,8.429c0.174,2.905 0.903,5.781 2.187,8.629c1.284,2.848 3.097,5.443 5.439,7.786c2.106,2.105 4.465,3.799 7.077,5.081c2.613,1.282 5.326,2.069 8.139,2.361c0.293,2.814 1.073,5.52 2.342,8.12c1.269,2.599 2.956,4.952 5.062,7.057c2.342,2.342 4.937,4.155 7.785,5.439c2.848,1.284 5.724,2.013 8.63,2.187c2.905,0.174 5.714,-0.214 8.428,-1.165c2.714,-0.951 5.11,-2.465 7.188,-4.543l35.855,-35.855" style="fill:#ea86ea;"/><path d="M131.657,131.657l35.855,-35.855c2.078,-2.078 3.592,-4.474 4.543,-7.188c0.951,-2.714 1.339,-5.523 1.165,-8.428c-0.174,-2.906 -0.903,-5.782 -2.187,-8.63c-1.284,-2.848 -3.097,-5.443 -5.439,-7.785c-2.105,-2.106 -4.464,-3.799 -7.077,-5.082c-2.613,-1.282 -5.326,-2.069 -8.139,-2.361c-0.292,-2.813 -1.073,-5.52 -2.342,-8.119c-1.269,-2.6 -2.956,-4.952 -5.061,-7.058c-2.343,-2.342 -4.938,-4.155 -7.786,-5.439c-2.848,-1.284 -5.724,-2.013 -8.629,-2.187c-2.905,-0.174 -5.715,0.215 -8.429,1.165c-2.714,0.951 -5.11,2.465 -7.187,4.543l-35.856,35.855l11.29,11.29l35.856,-35.855c0.7,-0.7 1.505,-1.202 2.414,-1.507c0.91,-0.304 1.849,-0.427 2.817,-0.369c0.969,0.058 1.923,0.301 2.864,0.728c0.941,0.427 1.807,1.036 2.596,1.825c0.79,0.79 1.398,1.655 1.826,2.596c0.427,0.941 0.67,1.896 0.728,2.864c0.058,0.969 -0.072,1.901 -0.389,2.798c-0.318,0.896 -0.827,1.694 -1.527,2.395l-35.855,35.855l11.329,11.329l35.856,-35.855c0.7,-0.7 1.498,-1.209 2.395,-1.526c0.896,-0.318 1.829,-0.448 2.797,-0.39c0.968,0.058 1.923,0.301 2.864,0.729c0.941,0.427 1.806,1.036 2.596,1.825c0.789,0.79 1.398,1.655 1.825,2.596c0.428,0.941 0.671,1.896 0.729,2.864c0.058,0.968 -0.072,1.901 -0.39,2.797c-0.317,0.897 -0.826,1.695 -1.526,2.395l-35.856,35.855l0.016,0.016l-35.855,35.855c-2.078,2.078 -3.592,4.474 -4.543,7.188c-0.951,2.714 -1.339,5.523 -1.165,8.428c0.174,2.906 0.903,5.782 2.187,8.63c1.284,2.848 3.097,5.443 5.439,7.785c2.105,2.106 4.464,3.799 7.077,5.082c2.613,1.282 5.326,2.069 8.139,2.361c0.292,2.813 1.073,5.52 2.342,8.119c1.269,2.6 2.956,4.952 5.061,7.058c2.343,2.342 4.938,4.155 7.786,5.439c2.848,1.284 5.724,2.013 8.629,2.187c2.905,0.174 5.715,-0.215 8.429,-1.165c2.714,-0.951 5.11,-2.465 7.187,-4.543l35.856,-35.855l-11.29,-11.29l-35.856,35.855c-0.7,0.7 -1.505,1.202 -2.414,1.507c-0.91,0.304 -1.849,0.427 -2.817,0.369c-0.969,-0.058 -1.923,-0.301 -2.864,-0.728c-0.941,-0.427 -1.807,-1.036 -2.596,-1.825c-0.79,-0.79 -1.398,-1.655 -1.826,-2.596c-0.427,-0.941 -0.67,-1.896 -0.728,-2.864c-0.058,-0.969 0.072,-1.901 0.389,-2.798c0.318,-0.896 0.827,-1.694 1.527,-2.395l35.855,-35.855l-11.329,-11.329l-35.856,35.855c-0.7,0.7 -1.498,1.209 -2.395,1.526c-0.896,0.318 -1.829,0.448 -2.797,0.39c-0.968,-0.058 -1.923,-0.301 -2.864,-0.729c-0.941,-0.427 -1.806,-1.036 -2.596,-1.825c-0.789,-0.79 -1.398,-1.655 -1.825,-2.596c-0.428,-0.941 -0.671,-1.896 -0.729,-2.864c-0.058,-0.968 0.072,-1.901 0.39,-2.797c0.317,-0.897 0.826,-1.695 1.526,-2.395l35.856,-35.855" style="fill:#b8ea86;"/></g></svg>