<?xml version="1.0" encoding="UTF-8" standalone="no"?><!DOCTYPE svg PUBLIC "-//W3C//DTD SVG 1.1//EN" "http://www.w3.org/Graphics/SVG/1.1/DTD/svg11.dtd"><svg width="100%" height="100%" viewBox="0 0 1200 251" version="1.1" xmlns="http://www.w3.org/2000/svg" xmlns:xlink="http://www.w3.org/1999/xlink" xml:space="preserve" xmlns:serif="http://www.serif.com/" style="fill-rule:evenodd;clip-rule:evenodd;stroke-linejoin:round;stroke-miterlimit:2;"><rect id="os-logo-blue-purple-no-bg" x="0" y="0" width="1200" height="250.298" style="fill:none;"/><g><path d="M133.307,132.456l46.507,-46.508c0.908,-0.908 1.952,-1.56 3.132,-1.954c1.18,-0.395 2.398,-0.555 3.654,-0.48c1.256,0.076 2.494,0.391 3.715,0.945c1.22,0.554 2.343,1.344 3.367,2.368c1.024,1.024 1.813,2.146 2.368,3.367c0.554,1.22 0.869,2.459 0.944,3.715c0.075,1.256 -0.093,2.465 -0.505,3.628c-0.411,1.163 -1.071,2.198 -1.98,3.107l-46.507,46.507l14.695,14.695l46.508,-46.507c0.908,-0.908 1.943,-1.568 3.106,-1.98c1.163,-0.412 2.372,-0.58 3.628,-0.505c1.256,0.075 2.495,0.39 3.715,0.945c1.221,0.554 2.343,1.343 3.367,2.367c1.024,1.024 1.814,2.147 2.368,3.367c0.555,1.221 0.869,2.459 0.945,3.715c0.075,1.256 -0.093,2.466 -0.505,3.628c-0.412,1.163 -1.072,2.199 -1.98,3.107l-46.508,46.507l14.696,14.696l46.507,-46.508c2.695,-2.694 4.659,-5.802 5.892,-9.322c1.233,-3.521 1.737,-7.165 1.512,-10.933c-0.226,-3.768 -1.171,-7.499 -2.837,-11.193c-1.665,-3.694 -4.017,-7.06 -7.055,-10.098c-2.731,-2.731 -5.791,-4.928 -9.18,-6.591c-3.389,-1.663 -6.908,-2.685 -10.557,-3.064c-0.379,-3.649 -1.391,-7.159 -3.037,-10.531c-1.646,-3.372 -3.835,-6.423 -6.565,-9.154c-3.038,-3.038 -6.405,-5.39 -10.098,-7.055c-3.694,-1.665 -7.426,-2.611 -11.194,-2.837c-3.768,-0.225 -7.412,0.279 -10.933,1.512c-3.52,1.233 -6.628,3.197 -9.322,5.892l-46.508,46.507l0.031,0.031l-46.507,46.508c-0.908,0.908 -1.952,1.56 -3.132,1.954c-1.18,0.395 -2.398,0.555 -3.654,0.48c-1.256,-0.076 -2.494,-0.391 -3.715,-0.945c-1.22,-0.554 -2.343,-1.344 -3.367,-2.368c-1.024,-1.024 -1.813,-2.146 -2.368,-3.367c-0.554,-1.22 -0.869,-2.459 -0.944,-3.715c-0.075,-1.256 0.093,-2.465 0.505,-3.628c0.411,-1.163 1.071,-2.198 1.98,-3.107l46.507,-46.507l-14.695,-14.695l-46.508,46.507c-0.908,0.908 -1.943,1.568 -3.106,1.98c-1.163,0.412 -2.372,0.58 -3.628,0.505c-1.256,-0.075 -2.495,-0.39 -3.715,-0.945c-1.221,-0.554 -2.343,-1.343 -3.367,-2.367c-1.024,-1.024 -1.814,-2.147 -2.368,-3.367c-0.555,-1.221 -0.869,-2.459 -0.945,-3.715c-0.075,-1.256 0.093,-2.466 0.505,-3.628c0.412,-1.163 1.072,-2.199 1.98,-3.107l46.508,-46.507l-14.696,-14.696l-46.507,46.508c-2.695,2.694 -4.659,5.802 -5.892,9.322c-1.233,3.521 -1.737,7.165 -1.512,10.933c0.226,3.768 1.171,7.499 2.837,11.193c1.665,3.694 4.017,7.06 7.055,10.098c2.731,2.731 5.791,4.928 9.18,6.591c3.389,1.663 6.908,2.684 10.557,3.063c0.379,3.649 1.391,7.16 3.037,10.532c1.646,3.372 3.835,6.423 6.565,9.154c3.038,3.038 6.405,5.39 10.098,7.055c3.694,1.665 7.426,2.611 11.194,2.837c3.768,0.225 7.412,-0.279 10.933,-1.512c3.52,-1.233 6.628,-3.197 9.322,-5.892l46.508,-46.507" style="fill:#ea86ea;"/><path d="M133.338,132.487l46.507,-46.508c2.695,-2.694 4.659,-5.802 5.892,-9.322c1.233,-3.521 1.737,-7.165 1.512,-10.933c-0.226,-3.768 -1.172,-7.5 -2.837,-11.194c-1.665,-3.694 -4.017,-7.06 -7.055,-10.098c-2.731,-2.73 -5.791,-4.927 -9.18,-6.591c-3.389,-1.663 -6.908,-2.684 -10.557,-3.063c-0.379,-3.649 -1.391,-7.159 -3.037,-10.531c-1.646,-3.372 -3.835,-6.423 -6.566,-9.154c-3.038,-3.038 -6.404,-5.39 -10.098,-7.055c-3.694,-1.666 -7.425,-2.611 -11.193,-2.837c-3.768,-0.225 -7.412,0.279 -10.933,1.512c-3.52,1.233 -6.628,3.197 -9.322,5.892l-46.508,46.507l14.644,14.644l46.508,-46.507c0.908,-0.908 1.952,-1.56 3.132,-1.954c1.18,-0.395 2.398,-0.555 3.654,-0.48c1.256,0.076 2.494,0.39 3.715,0.945c1.22,0.554 2.343,1.344 3.367,2.368c1.024,1.024 1.813,2.146 2.367,3.367c0.555,1.22 0.87,2.459 0.945,3.715c0.075,1.256 -0.093,2.465 -0.505,3.628c-0.412,1.163 -1.072,2.198 -1.98,3.106l-46.507,46.508l14.695,14.695l46.507,-46.507c0.909,-0.909 1.944,-1.569 3.107,-1.98c1.163,-0.412 2.372,-0.58 3.628,-0.505c1.256,0.075 2.495,0.39 3.715,0.944c1.221,0.555 2.343,1.344 3.367,2.368c1.024,1.024 1.814,2.147 2.368,3.367c0.554,1.221 0.869,2.459 0.945,3.715c0.075,1.256 -0.094,2.466 -0.505,3.628c-0.412,1.163 -1.072,2.199 -1.98,3.107l-46.508,46.507l0.02,0.02l-46.507,46.508c-2.695,2.694 -4.659,5.802 -5.892,9.322c-1.233,3.521 -1.737,7.165 -1.512,10.933c0.226,3.768 1.172,7.5 2.837,11.194c1.665,3.693 4.017,7.059 7.055,10.098c2.731,2.73 5.791,4.927 9.18,6.59c3.389,1.664 6.908,2.685 10.557,3.064c0.379,3.649 1.391,7.159 3.037,10.531c1.646,3.372 3.835,6.423 6.566,9.154c3.038,3.038 6.404,5.39 10.098,7.055c3.694,1.665 7.425,2.611 11.193,2.837c3.768,0.225 7.412,-0.279 10.933,-1.512c3.52,-1.233 6.628,-3.197 9.322,-5.892l46.508,-46.507l-14.644,-14.644l-46.508,46.507c-0.908,0.908 -1.952,1.56 -3.132,1.954c-1.18,0.395 -2.398,0.555 -3.654,0.48c-1.256,-0.076 -2.494,-0.39 -3.715,-0.945c-1.22,-0.554 -2.343,-1.344 -3.367,-2.368c-1.024,-1.024 -1.813,-2.146 -2.367,-3.367c-0.555,-1.22 -0.87,-2.459 -0.945,-3.715c-0.075,-1.256 0.093,-2.465 0.505,-3.628c0.412,-1.163 1.072,-2.198 1.98,-3.106l46.507,-46.508l-14.695,-14.695l-46.507,46.507c-0.909,0.909 -1.944,1.569 -3.107,1.98c-1.163,0.412 -2.372,0.58 -3.628,0.505c-1.256,-0.075 -2.495,-0.39 -3.715,-0.944c-1.221,-0.555 -2.343,-1.344 -3.367,-2.368c-1.024,-1.024 -1.814,-2.147 -2.368,-3.367c-0.554,-1.221 -0.869,-2.459 -0.945,-3.715c-0.075,-1.256 0.094,-2.466 0.505,-3.628c0.412,-1.163 1.072,-2.199 1.98,-3.107l46.508,-46.507" style="fill:#b8ea86;"/></g><path d="M401.978,141.682l-20.353,0l0,-72.872c0,-1.424 -0.273,-2.752 -0.818,-3.986c-0.546,-1.233 -1.281,-2.312 -2.206,-3.238c-0.925,-0.925 -2.005,-1.648 -3.238,-2.17c-1.234,-0.522 -2.562,-0.783 -3.985,-0.783c-1.424,0 -2.752,0.261 -3.986,0.783c-1.233,0.522 -2.312,1.245 -3.238,2.17c-0.925,0.926 -1.648,2.005 -2.17,3.238c-0.522,1.234 -0.783,2.562 -0.783,3.986l0,72.872l-20.424,0l0,-72.872c0,-1.424 -0.261,-2.752 -0.783,-3.986c-0.522,-1.233 -1.245,-2.312 -2.17,-3.238c-0.925,-0.925 -2.005,-1.648 -3.238,-2.17c-1.234,-0.522 -2.562,-0.783 -3.985,-0.783c-1.424,0 -2.752,0.261 -3.986,0.783c-1.233,0.522 -2.312,1.245 -3.238,2.17c-0.925,0.926 -1.648,2.005 -2.17,3.238c-0.522,1.234 -0.783,2.562 -0.783,3.986l0,72.872l-20.424,0l0,-72.872c0,-4.223 0.795,-8.196 2.384,-11.92c1.589,-3.725 3.772,-6.974 6.547,-9.75c2.775,-2.775 6.025,-4.958 9.75,-6.547c3.724,-1.589 7.697,-2.384 11.92,-2.384c3.795,0 7.448,0.676 10.959,2.028c3.511,1.352 6.666,3.309 9.465,5.871c2.799,-2.562 5.942,-4.519 9.429,-5.871c3.487,-1.352 7.128,-2.028 10.924,-2.028c4.222,0 8.195,0.795 11.92,2.384c3.724,1.589 6.974,3.772 9.749,6.547c2.775,2.776 4.958,6.025 6.547,9.75c1.589,3.724 2.384,7.697 2.384,11.92l0,72.872Z" style="fill:#b8ea86;fill-rule:nonzero;"/><path d="M449.052,123.037c0.759,0.237 1.518,0.391 2.277,0.462c0.759,0.071 1.518,0.107 2.277,0.107c1.898,0 3.724,-0.261 5.48,-0.783c1.755,-0.522 3.404,-1.269 4.946,-2.242c1.542,-0.972 2.917,-2.158 4.127,-3.558c1.21,-1.399 2.194,-2.953 2.954,-4.661l14.232,14.304c-1.802,2.562 -3.878,4.863 -6.226,6.903c-2.349,2.04 -4.887,3.772 -7.615,5.195c-2.728,1.423 -5.598,2.502 -8.611,3.238c-3.012,0.735 -6.108,1.103 -9.287,1.103c-5.361,0 -10.402,-0.996 -15.122,-2.989c-4.721,-1.993 -8.848,-4.768 -12.383,-8.326c-3.534,-3.558 -6.321,-7.793 -8.361,-12.703c-2.041,-4.91 -3.061,-10.307 -3.061,-16.19c0,-6.025 1.02,-11.528 3.061,-16.51c2.04,-4.981 4.827,-9.227 8.361,-12.738c3.535,-3.511 7.662,-6.239 12.383,-8.184c4.72,-1.945 9.761,-2.918 15.122,-2.918c3.179,0 6.286,0.38 9.323,1.139c3.036,0.759 5.918,1.85 8.646,3.273c2.728,1.424 5.278,3.167 7.65,5.231c2.372,2.064 4.46,4.376 6.263,6.938l-36.436,43.909Zm9.963,-40.066c-0.902,-0.332 -1.791,-0.545 -2.669,-0.64c-0.878,-0.095 -1.791,-0.143 -2.74,-0.143c-2.657,0 -5.159,0.487 -7.508,1.459c-2.348,0.973 -4.388,2.361 -6.12,4.163c-1.731,1.803 -3.095,3.974 -4.092,6.512c-0.996,2.538 -1.494,5.397 -1.494,8.575c0,0.712 0.036,1.518 0.107,2.42c0.071,0.901 0.189,1.814 0.355,2.74c0.167,0.925 0.368,1.814 0.605,2.668c0.238,0.854 0.546,1.613 0.926,2.277l22.63,-30.031Z" style="fill:#b8ea86;fill-rule:nonzero;"/><path d="M534.91,141.682c-4.697,0 -9.109,-0.89 -13.237,-2.669c-4.127,-1.779 -7.745,-4.222 -10.852,-7.33c-3.108,-3.107 -5.551,-6.725 -7.33,-10.852c-1.779,-4.128 -2.669,-8.54 -2.669,-13.237l0,-22.63l-9.465,0l0,-19.357l9.465,0l0,-30.458l19.357,0l0,30.458l29.462,0l0,19.357l-29.462,0l0,22.63c0,2.04 0.379,3.95 1.138,5.729c0.759,1.779 1.803,3.333 3.132,4.661c1.328,1.328 2.894,2.384 4.696,3.167c1.803,0.783 3.725,1.174 5.765,1.174l14.731,0l0,19.357l-14.731,0Z" style="fill:#b8ea86;fill-rule:nonzero;"/><path d="M635.783,141.682l-4.696,0l-7.544,-10.462c-1.85,1.661 -3.807,3.215 -5.871,4.662c-2.064,1.447 -4.234,2.704 -6.511,3.771c-2.278,1.068 -4.614,1.91 -7.01,2.527c-2.396,0.617 -4.827,0.925 -7.294,0.925c-5.361,0 -10.402,-0.902 -15.123,-2.704c-4.72,-1.803 -8.848,-4.424 -12.382,-7.864c-3.535,-3.44 -6.322,-7.65 -8.362,-12.632c-2.04,-4.981 -3.06,-10.65 -3.06,-17.008c0,-5.93 1.02,-11.374 3.06,-16.332c2.04,-4.958 4.827,-9.216 8.362,-12.774c3.534,-3.558 7.662,-6.322 12.382,-8.291c4.721,-1.968 9.762,-2.953 15.123,-2.953c2.467,0 4.91,0.309 7.33,0.925c2.419,0.617 4.768,1.471 7.045,2.562c2.277,1.091 4.448,2.372 6.511,3.843c2.064,1.471 3.997,3.06 5.8,4.768l7.544,-9.038l4.696,0l0,76.075Zm-19.57,-38.785c0,-2.657 -0.51,-5.23 -1.53,-7.721c-1.02,-2.491 -2.407,-4.697 -4.163,-6.618c-1.755,-1.922 -3.807,-3.464 -6.156,-4.626c-2.348,-1.162 -4.851,-1.744 -7.507,-1.744c-2.657,0 -5.16,0.451 -7.508,1.353c-2.349,0.901 -4.389,2.229 -6.12,3.985c-1.732,1.755 -3.096,3.926 -4.092,6.511c-0.997,2.586 -1.495,5.539 -1.495,8.86c0,3.321 0.498,6.274 1.495,8.86c0.996,2.586 2.36,4.756 4.092,6.512c1.731,1.755 3.771,3.083 6.12,3.985c2.348,0.901 4.851,1.352 7.508,1.352c2.656,0 5.159,-0.581 7.507,-1.744c2.349,-1.162 4.401,-2.704 6.156,-4.625c1.756,-1.922 3.143,-4.128 4.163,-6.619c1.02,-2.49 1.53,-5.064 1.53,-7.721Z" style="fill:#b8ea86;fill-rule:nonzero;"/><path d="M748.968,141.682l-19.356,0l0,-48.392c0,-1.328 -0.249,-2.586 -0.747,-3.772c-0.499,-1.186 -1.198,-2.229 -2.1,-3.131c-0.901,-0.901 -1.945,-1.601 -3.131,-2.099c-1.186,-0.498 -2.443,-0.747 -3.772,-0.747c-1.328,0 -2.573,0.249 -3.736,0.747c-1.162,0.498 -2.182,1.198 -3.06,2.099c-0.878,0.902 -1.565,1.945 -2.064,3.131c-0.498,1.186 -0.747,2.444 -0.747,3.772l0,48.392l-19.428,0l0,-48.392c0,-1.328 -0.249,-2.586 -0.747,-3.772c-0.498,-1.186 -1.198,-2.229 -2.099,-3.131c-0.902,-0.901 -1.945,-1.601 -3.131,-2.099c-1.186,-0.498 -2.444,-0.747 -3.772,-0.747c-1.328,0 -2.574,0.249 -3.736,0.747c-1.163,0.498 -2.183,1.198 -3.06,2.099c-0.878,0.902 -1.566,1.945 -2.064,3.131c-0.498,1.186 -0.747,2.444 -0.747,3.772l0,48.392l-19.428,0l0,-76.217l4.697,0l5.266,5.835c2.704,-2.277 5.681,-4.044 8.931,-5.301c3.25,-1.258 6.63,-1.886 10.141,-1.886c3.558,0 7.033,0.664 10.425,1.992c3.393,1.329 6.37,3.63 8.932,6.903c1.186,-1.613 2.538,-2.989 4.056,-4.127c1.518,-1.139 3.119,-2.064 4.803,-2.776c1.685,-0.711 3.428,-1.221 5.231,-1.53c1.803,-0.308 3.582,-0.462 5.337,-0.462c4.033,0 7.817,0.759 11.351,2.277c3.534,1.518 6.618,3.594 9.251,6.227c2.633,2.633 4.709,5.729 6.227,9.287c1.518,3.558 2.277,7.353 2.277,11.386l0,48.392Z" style="fill:#b8ea86;fill-rule:nonzero;"/><path d="M838.242,102.897c0,5.693 -1.02,10.995 -3.06,15.905c-2.04,4.911 -4.815,9.157 -8.326,12.739c-3.511,3.582 -7.626,6.404 -12.347,8.468c-4.72,2.064 -9.785,3.096 -15.193,3.096c-5.361,0 -10.402,-1.032 -15.123,-3.096c-4.72,-2.064 -8.848,-4.886 -12.382,-8.468c-3.535,-3.582 -6.322,-7.828 -8.362,-12.739c-2.04,-4.91 -3.06,-10.212 -3.06,-15.905c0,-5.788 1.02,-11.149 3.06,-16.083c2.04,-4.934 4.827,-9.192 8.362,-12.774c3.534,-3.582 7.662,-6.393 12.382,-8.433c4.721,-2.04 9.762,-3.06 15.123,-3.06c5.408,0 10.473,0.961 15.193,2.882c4.721,1.922 8.836,4.65 12.347,8.184c3.511,3.535 6.286,7.781 8.326,12.739c2.04,4.957 3.06,10.473 3.06,16.545Zm-19.57,0c0,-3.131 -0.51,-5.966 -1.53,-8.504c-1.02,-2.538 -2.408,-4.72 -4.163,-6.547c-1.755,-1.827 -3.807,-3.226 -6.156,-4.199c-2.348,-0.972 -4.851,-1.459 -7.507,-1.459c-2.657,0 -5.16,0.487 -7.508,1.459c-2.349,0.973 -4.389,2.372 -6.12,4.199c-1.732,1.827 -3.096,4.009 -4.092,6.547c-0.997,2.538 -1.495,5.373 -1.495,8.504c0,2.942 0.498,5.67 1.495,8.184c0.996,2.515 2.36,4.697 4.092,6.547c1.731,1.85 3.771,3.309 6.12,4.377c2.348,1.067 4.851,1.601 7.508,1.601c2.656,0 5.159,-0.498 7.507,-1.495c2.349,-0.996 4.401,-2.395 6.156,-4.198c1.755,-1.803 3.143,-3.985 4.163,-6.547c1.02,-2.562 1.53,-5.385 1.53,-8.469Z" style="fill:#b8ea86;fill-rule:nonzero;"/><path d="M924.1,141.682l-4.696,0l-7.544,-10.462c-1.85,1.661 -3.807,3.215 -5.871,4.662c-2.064,1.447 -4.234,2.704 -6.511,3.771c-2.278,1.068 -4.614,1.91 -7.01,2.527c-2.396,0.617 -4.827,0.925 -7.294,0.925c-5.361,0 -10.402,-1.008 -15.123,-3.025c-4.72,-2.016 -8.848,-4.815 -12.382,-8.397c-3.535,-3.582 -6.322,-7.828 -8.362,-12.738c-2.04,-4.911 -3.06,-10.26 -3.06,-16.048c0,-5.74 1.02,-11.078 3.06,-16.012c2.04,-4.934 4.827,-9.204 8.362,-12.809c3.534,-3.606 7.662,-6.429 12.382,-8.469c4.721,-2.04 9.762,-3.06 15.123,-3.06c1.708,0 3.475,0.142 5.301,0.427c1.827,0.285 3.606,0.747 5.338,1.388c1.731,0.64 3.356,1.482 4.874,2.526c1.519,1.044 2.799,2.325 3.843,3.843l0,-35.582l19.57,0l0,106.533Zm-19.57,-38.785c0,-2.657 -0.51,-5.23 -1.53,-7.721c-1.02,-2.491 -2.408,-4.697 -4.163,-6.618c-1.755,-1.922 -3.807,-3.464 -6.156,-4.626c-2.348,-1.162 -4.851,-1.744 -7.507,-1.744c-2.657,0 -5.16,0.475 -7.508,1.424c-2.349,0.949 -4.389,2.313 -6.12,4.092c-1.732,1.779 -3.096,3.949 -4.092,6.511c-0.997,2.562 -1.495,5.456 -1.495,8.682c0,2.799 0.498,5.456 1.495,7.971c0.996,2.514 2.36,4.72 4.092,6.618c1.731,1.898 3.771,3.392 6.12,4.483c2.348,1.091 4.851,1.637 7.508,1.637c2.656,0 5.159,-0.581 7.507,-1.744c2.349,-1.162 4.401,-2.704 6.156,-4.625c1.755,-1.922 3.143,-4.128 4.163,-6.619c1.02,-2.49 1.53,-5.064 1.53,-7.721Z" style="fill:#b8ea86;fill-rule:nonzero;"/><path d="M970.676,123.037c0.759,0.237 1.518,0.391 2.277,0.462c0.759,0.071 1.518,0.107 2.277,0.107c1.898,0 3.725,-0.261 5.48,-0.783c1.755,-0.522 3.404,-1.269 4.946,-2.242c1.542,-0.972 2.918,-2.158 4.127,-3.558c1.21,-1.399 2.195,-2.953 2.954,-4.661l14.232,14.304c-1.802,2.562 -3.878,4.863 -6.226,6.903c-2.349,2.04 -4.887,3.772 -7.615,5.195c-2.728,1.423 -5.598,2.502 -8.611,3.238c-3.012,0.735 -6.108,1.103 -9.287,1.103c-5.361,0 -10.402,-0.996 -15.122,-2.989c-4.721,-1.993 -8.848,-4.768 -12.383,-8.326c-3.534,-3.558 -6.321,-7.793 -8.361,-12.703c-2.04,-4.91 -3.06,-10.307 -3.06,-16.19c0,-6.025 1.02,-11.528 3.06,-16.51c2.04,-4.981 4.827,-9.227 8.361,-12.738c3.535,-3.511 7.662,-6.239 12.383,-8.184c4.72,-1.945 9.761,-2.918 15.122,-2.918c3.179,0 6.286,0.38 9.323,1.139c3.036,0.759 5.918,1.85 8.646,3.273c2.728,1.424 5.278,3.167 7.65,5.231c2.373,2.064 4.46,4.376 6.263,6.938l-36.436,43.909Zm9.963,-40.066c-0.902,-0.332 -1.791,-0.545 -2.669,-0.64c-0.878,-0.095 -1.791,-0.143 -2.74,-0.143c-2.656,0 -5.159,0.487 -7.507,1.459c-2.349,0.973 -4.389,2.361 -6.121,4.163c-1.731,1.803 -3.095,3.974 -4.092,6.512c-0.996,2.538 -1.494,5.397 -1.494,8.575c0,0.712 0.036,1.518 0.107,2.42c0.071,0.901 0.19,1.814 0.356,2.74c0.166,0.925 0.367,1.814 0.604,2.668c0.238,0.854 0.546,1.613 0.926,2.277l22.63,-30.031Z" style="fill:#b8ea86;fill-rule:nonzero;"/><path d="M1037.75,141.682l-19.428,0l0,-76.217l4.697,0l6.404,9.038c3.132,-2.847 6.69,-5.041 10.675,-6.583c3.985,-1.542 8.113,-2.313 12.382,-2.313l17.151,0l0,19.357l-17.151,0c-2.04,0 -3.961,0.379 -5.764,1.138c-1.803,0.76 -3.368,1.803 -4.697,3.132c-1.328,1.328 -2.372,2.894 -3.131,4.697c-0.759,1.802 -1.138,3.724 -1.138,5.764l0,41.987Z" style="fill:#b8ea86;fill-rule:nonzero;"/><path d="M1099.55,141.682l-19.428,0l0,-76.217l4.697,0l6.405,7.401c3.131,-2.847 6.677,-5.041 10.639,-6.583c3.961,-1.542 8.101,-2.313 12.418,-2.313c4.649,0 9.038,0.89 13.165,2.669c4.128,1.779 7.734,4.222 10.817,7.33c3.084,3.107 5.516,6.737 7.295,10.888c1.779,4.151 2.668,8.575 2.668,13.272l0,43.553l-19.427,0l0,-43.553c0,-1.992 -0.38,-3.878 -1.139,-5.657c-0.759,-1.779 -1.803,-3.333 -3.131,-4.662c-1.329,-1.328 -2.871,-2.372 -4.626,-3.131c-1.755,-0.759 -3.629,-1.138 -5.622,-1.138c-2.04,0 -3.961,0.379 -5.764,1.138c-1.803,0.759 -3.369,1.803 -4.697,3.131c-1.328,1.329 -2.372,2.883 -3.131,4.662c-0.759,1.779 -1.139,3.665 -1.139,5.657l0,43.553Z" style="fill:#b8ea86;fill-rule:nonzero;"/><g transform="matrix(0.293683,0,0,0.293683,328.432,-71.0557)"><g transform="matrix(225.314,0,0,225.314,524.908,971.124)"><path d="M0.751,-0.347c0,0.033 -0.004,0.065 -0.013,0.096c-0.009,0.031 -0.021,0.059 -0.036,0.086c-0.016,0.027 -0.035,0.052 -0.057,0.074c-0.022,0.022 -0.047,0.041 -0.073,0.057c-0.027,0.015 -0.056,0.028 -0.087,0.036c-0.031,0.009 -0.063,0.013 -0.096,0.013c-0.033,0 -0.065,-0.004 -0.096,-0.013c-0.031,-0.008 -0.059,-0.021 -0.086,-0.036c-0.027,-0.016 -0.052,-0.035 -0.074,-0.057c-0.022,-0.022 -0.041,-0.047 -0.057,-0.074c-0.015,-0.027 -0.028,-0.055 -0.036,-0.086c-0.009,-0.031 -0.013,-0.063 -0.013,-0.096c0,-0.033 0.004,-0.065 0.013,-0.096c0.008,-0.031 0.021,-0.06 0.036,-0.087c0.016,-0.026 0.035,-0.051 0.057,-0.073c0.022,-0.022 0.047,-0.041 0.074,-0.057c0.027,-0.015 0.055,-0.027 0.086,-0.036c0.031,-0.009 0.063,-0.013 0.096,-0.013c0.033,0 0.065,0.004 0.096,0.013c0.031,0.009 0.06,0.021 0.087,0.036c0.026,0.016 0.051,0.035 0.073,0.057c0.022,0.022 0.041,0.047 0.057,0.073c0.015,0.027 0.027,0.056 0.036,0.087c0.009,0.031 0.013,0.063 0.013,0.096Zm-0.139,0c0,-0.031 -0.006,-0.06 -0.018,-0.087c-0.011,-0.027 -0.027,-0.051 -0.047,-0.071c-0.02,-0.02 -0.044,-0.036 -0.071,-0.047c-0.027,-0.012 -0.056,-0.018 -0.087,-0.018c-0.031,0 -0.06,0.006 -0.087,0.018c-0.027,0.011 -0.05,0.027 -0.071,0.047c-0.02,0.02 -0.036,0.044 -0.047,0.071c-0.012,0.027 -0.018,0.056 -0.018,0.087c0,0.03 0.006,0.059 0.018,0.086c0.011,0.027 0.027,0.05 0.047,0.071c0.021,0.02 0.044,0.036 0.071,0.047c0.027,0.012 0.056,0.018 0.087,0.018c0.031,0 0.06,-0.006 0.087,-0.018c0.027,-0.011 0.051,-0.027 0.071,-0.047c0.02,-0.021 0.036,-0.044 0.047,-0.071c0.012,-0.027 0.018,-0.056 0.018,-0.086Z" style="fill:#b8ea86;fill-rule:nonzero;"/></g><g transform="matrix(225.314,0,0,225.314,767.759,971.124)"><path d="M0.205,-0.56l0,0.28l0.14,0c0.019,0 0.037,-0.003 0.054,-0.011c0.017,-0.007 0.032,-0.017 0.045,-0.03c0.013,-0.012 0.023,-0.027 0.03,-0.044c0.007,-0.018 0.011,-0.036 0.011,-0.055c0,-0.019 -0.004,-0.037 -0.011,-0.054c-0.007,-0.017 -0.017,-0.032 -0.03,-0.045c-0.013,-0.013 -0.028,-0.023 -0.045,-0.03c-0.017,-0.007 -0.035,-0.011 -0.054,-0.011l-0.14,0Zm0,0.56l-0.14,0l0,-0.7l0.28,0c0.026,0 0.051,0.003 0.074,0.01c0.024,0.006 0.046,0.016 0.067,0.028c0.021,0.012 0.04,0.027 0.057,0.044c0.017,0.017 0.031,0.036 0.044,0.057c0.012,0.021 0.021,0.043 0.028,0.067c0.007,0.024 0.01,0.048 0.01,0.074c0,0.038 -0.007,0.075 -0.022,0.109c-0.015,0.034 -0.035,0.063 -0.06,0.089c-0.025,0.025 -0.055,0.045 -0.089,0.06c-0.034,0.015 -0.07,0.022 -0.109,0.022l-0.14,0l0,0.14Z" style="fill:#b8ea86;fill-rule:nonzero;"/></g><g transform="matrix(225.314,0,0,225.314,980.025,971.124)"><path d="M0.545,0l-0.48,0l0,-0.7l0.48,0l0,0.14l-0.34,0l0,0.14l0.23,0l0,0.14l-0.23,0l0,0.14l0.34,0l0,0.14Z" style="fill:#b8ea86;fill-rule:nonzero;"/></g><g transform="matrix(225.314,0,0,225.314,1177.88,971.124)"><path d="M0.625,0l-0.15,0l-0.27,-0.461l0,0.461l-0.14,0l0,-0.7l0.15,0l0.27,0.461l0,-0.461l0.14,0l0,0.7Z" style="fill:#b8ea86;fill-rule:nonzero;"/></g><g transform="matrix(225.314,0,0,225.314,1574.86,971.124)"><path d="M0.024,-0.49c0,-0.029 0.005,-0.056 0.017,-0.082c0.011,-0.025 0.026,-0.047 0.045,-0.066c0.019,-0.019 0.041,-0.035 0.066,-0.046c0.026,-0.011 0.053,-0.016 0.082,-0.016l0.321,0l0,0.14l-0.321,0c-0.01,0 -0.019,0.002 -0.027,0.005c-0.009,0.004 -0.016,0.009 -0.023,0.015c-0.006,0.007 -0.011,0.014 -0.015,0.022c-0.003,0.009 -0.005,0.018 -0.005,0.028c0,0.01 0.002,0.019 0.005,0.027c0.004,0.009 0.009,0.016 0.015,0.023c0.007,0.006 0.014,0.011 0.023,0.015c0.008,0.003 0.017,0.005 0.027,0.005l0.14,0c0.029,0 0.056,0.006 0.082,0.016c0.025,0.011 0.048,0.026 0.067,0.045c0.019,0.019 0.034,0.042 0.045,0.067c0.011,0.026 0.016,0.053 0.016,0.082c0,0.029 -0.005,0.056 -0.016,0.082c-0.011,0.025 -0.026,0.047 -0.045,0.066c-0.019,0.019 -0.042,0.034 -0.067,0.045c-0.026,0.011 -0.053,0.017 -0.082,0.017l-0.311,0l0,-0.14l0.311,0c0.01,0 0.019,-0.002 0.027,-0.006c0.009,-0.003 0.016,-0.008 0.023,-0.014c0.006,-0.007 0.011,-0.014 0.014,-0.023c0.004,-0.008 0.006,-0.017 0.006,-0.027c0,-0.01 -0.002,-0.019 -0.006,-0.027c-0.003,-0.009 -0.008,-0.016 -0.014,-0.023c-0.007,-0.006 -0.014,-0.011 -0.023,-0.014c-0.008,-0.004 -0.017,-0.006 -0.027,-0.006l-0.14,0c-0.029,0 -0.056,-0.005 -0.082,-0.016c-0.025,-0.011 -0.047,-0.027 -0.066,-0.046c-0.019,-0.019 -0.034,-0.041 -0.045,-0.066c-0.012,-0.026 -0.017,-0.053 -0.017,-0.082Z" style="fill:#b8ea86;fill-rule:nonzero;"/></g><g transform="matrix(225.314,0,0,225.314,1780.09,971.124)"><path d="M0.751,-0.347c0,0.033 -0.004,0.065 -0.013,0.096c-0.009,0.031 -0.021,0.059 -0.036,0.086c-0.016,0.027 -0.035,0.052 -0.057,0.074c-0.022,0.022 -0.047,0.041 -0.073,0.057c-0.027,0.015 -0.056,0.028 -0.087,0.036c-0.031,0.009 -0.063,0.013 -0.096,0.013c-0.033,0 -0.065,-0.004 -0.096,-0.013c-0.031,-0.008 -0.059,-0.021 -0.086,-0.036c-0.027,-0.016 -0.052,-0.035 -0.074,-0.057c-0.022,-0.022 -0.041,-0.047 -0.057,-0.074c-0.015,-0.027 -0.028,-0.055 -0.036,-0.086c-0.009,-0.031 -0.013,-0.063 -0.013,-0.096c0,-0.033 0.004,-0.065 0.013,-0.096c0.008,-0.031 0.021,-0.06 0.036,-0.087c0.016,-0.026 0.035,-0.051 0.057,-0.073c0.022,-0.022 0.047,-0.041 0.074,-0.057c0.027,-0.015 0.055,-0.027 0.086,-0.036c0.031,-0.009 0.063,-0.013 0.096,-0.013c0.033,0 0.065,0.004 0.096,0.013c0.031,0.009 0.06,0.021 0.087,0.036c0.026,0.016 0.051,0.035 0.073,0.057c0.022,0.022 0.041,0.047 0.057,0.073c0.015,0.027 0.027,0.056 0.036,0.087c0.009,0.031 0.013,0.063 0.013,0.096Zm-0.139,0c0,-0.031 -0.006,-0.06 -0.018,-0.087c-0.011,-0.027 -0.027,-0.051 -0.047,-0.071c-0.02,-0.02 -0.044,-0.036 -0.071,-0.047c-0.027,-0.012 -0.056,-0.018 -0.087,-0.018c-0.031,0 -0.06,0.006 -0.087,0.018c-0.027,0.011 -0.05,0.027 -0.071,0.047c-0.02,0.02 -0.036,0.044 -0.047,0.071c-0.012,0.027 -0.018,0.056 -0.018,0.087c0,0.03 0.006,0.059 0.018,0.086c0.011,0.027 0.027,0.05 0.047,0.071c0.021,0.02 0.044,0.036 0.071,0.047c0.027,0.012 0.056,0.018 0.087,0.018c0.031,0 0.06,-0.006 0.087,-0.018c0.027,-0.011 0.051,-0.027 0.071,-0.047c0.02,-0.021 0.036,-0.044 0.047,-0.071c0.012,-0.027 0.018,-0.056 0.018,-0.086Z" style="fill:#b8ea86;fill-rule:nonzero;"/></g><g transform="matrix(225.314,0,0,225.314,2022.94,971.124)"><path d="M0.617,-0.28c0,0.039 -0.007,0.075 -0.022,0.109c-0.014,0.034 -0.034,0.064 -0.06,0.089c-0.025,0.025 -0.055,0.045 -0.089,0.06c-0.034,0.015 -0.07,0.022 -0.109,0.022c-0.039,0 -0.075,-0.007 -0.109,-0.022c-0.034,-0.015 -0.064,-0.035 -0.089,-0.06c-0.025,-0.025 -0.045,-0.055 -0.06,-0.089c-0.015,-0.034 -0.022,-0.07 -0.022,-0.109l0,-0.42l0.14,0l0,0.42c0,0.019 0.003,0.037 0.011,0.054c0.007,0.017 0.017,0.032 0.03,0.045c0.012,0.013 0.027,0.023 0.044,0.03c0.018,0.007 0.036,0.011 0.055,0.011c0.019,0 0.037,-0.004 0.054,-0.011c0.017,-0.007 0.032,-0.017 0.045,-0.03c0.013,-0.013 0.023,-0.028 0.03,-0.045c0.007,-0.017 0.011,-0.035 0.011,-0.054l0,-0.42l0.14,0l0,0.42Z" style="fill:#b8ea86;fill-rule:nonzero;"/></g><g transform="matrix(225.314,0,0,225.314,2242.35,971.124)"><path d="M0.205,-0.56l0,0.28l0.14,0c0.019,0 0.037,-0.003 0.054,-0.011c0.017,-0.007 0.032,-0.017 0.045,-0.03c0.013,-0.012 0.023,-0.027 0.03,-0.044c0.007,-0.018 0.011,-0.036 0.011,-0.055c0,-0.019 -0.004,-0.037 -0.011,-0.054c-0.007,-0.017 -0.017,-0.032 -0.03,-0.045c-0.013,-0.013 -0.028,-0.023 -0.045,-0.03c-0.017,-0.007 -0.035,-0.011 -0.054,-0.011l-0.14,0Zm0,0.56l-0.14,0l0,-0.7l0.28,0c0.026,0 0.051,0.003 0.074,0.01c0.024,0.006 0.046,0.016 0.067,0.028c0.021,0.012 0.04,0.027 0.057,0.044c0.017,0.017 0.031,0.036 0.044,0.057c0.012,0.021 0.021,0.043 0.028,0.067c0.007,0.024 0.01,0.048 0.01,0.074c0,0.024 -0.003,0.048 -0.009,0.07c-0.006,0.023 -0.015,0.045 -0.026,0.065c-0.011,0.021 -0.025,0.04 -0.041,0.057c-0.016,0.017 -0.035,0.032 -0.055,0.045l0.078,0.183l-0.149,0l-0.061,-0.141l-0.157,0.001l0,0.14Z" style="fill:#b8ea86;fill-rule:nonzero;"/></g><g transform="matrix(225.314,0,0,225.314,2456.82,971.124)"><path d="M0.624,-0.072c-0.033,0.028 -0.069,0.05 -0.109,0.065c-0.041,0.015 -0.083,0.022 -0.126,0.022c-0.033,0 -0.065,-0.004 -0.096,-0.013c-0.031,-0.008 -0.059,-0.021 -0.086,-0.036c-0.027,-0.016 -0.052,-0.035 -0.074,-0.057c-0.022,-0.022 -0.041,-0.047 -0.057,-0.074c-0.015,-0.027 -0.028,-0.055 -0.036,-0.086c-0.009,-0.031 -0.013,-0.063 -0.013,-0.096c0,-0.033 0.004,-0.065 0.013,-0.096c0.008,-0.031 0.021,-0.06 0.036,-0.087c0.016,-0.027 0.035,-0.051 0.057,-0.074c0.022,-0.022 0.047,-0.041 0.074,-0.056c0.027,-0.016 0.055,-0.028 0.086,-0.037c0.031,-0.009 0.063,-0.013 0.096,-0.013c0.043,0 0.085,0.007 0.126,0.022c0.04,0.015 0.076,0.037 0.109,0.065l-0.074,0.122c-0.021,-0.022 -0.045,-0.039 -0.073,-0.051c-0.028,-0.012 -0.057,-0.018 -0.088,-0.018c-0.031,0 -0.06,0.006 -0.087,0.018c-0.027,0.011 -0.05,0.027 -0.071,0.047c-0.02,0.02 -0.036,0.044 -0.047,0.071c-0.012,0.027 -0.018,0.056 -0.018,0.087c0,0.03 0.006,0.059 0.018,0.086c0.011,0.027 0.027,0.05 0.047,0.071c0.021,0.02 0.044,0.036 0.071,0.047c0.027,0.012 0.056,0.018 0.087,0.018c0.031,0 0.06,-0.006 0.088,-0.018c0.028,-0.012 0.052,-0.029 0.073,-0.051l0.074,0.122Z" style="fill:#b8ea86;fill-rule:nonzero;"/></g><g transform="matrix(225.314,0,0,225.314,2668.65,971.124)"><path d="M0.545,0l-0.48,0l0,-0.7l0.48,0l0,0.14l-0.34,0l0,0.14l0.23,0l0,0.14l-0.23,0l0,0.14l0.34,0l0,0.14Z" style="fill:#b8ea86;fill-rule:nonzero;"/></g></g></svg>