<?xml version="1.0" encoding="UTF-8" standalone="no"?><!DOCTYPE svg PUBLIC "-//W3C//DTD SVG 1.1//EN" "http://www.w3.org/Graphics/SVG/1.1/DTD/svg11.dtd"><svg width="100%" height="100%" viewBox="0 0 5625 1250" version="1.1" xmlns="http://www.w3.org/2000/svg" xmlns:xlink="http://www.w3.org/1999/xlink" xml:space="preserve" xmlns:serif="http://www.serif.com/" style="fill-rule:evenodd;clip-rule:evenodd;stroke-linejoin:round;stroke-miterlimit:1.41421;"><rect id="os-logo-blue-purple-no-bg" x="0" y="0" width="5625" height="1250" style="fill:none;"/><path d="M553.819,656.211l198.666,-198.666c3.881,-3.88 8.34,-6.663 13.38,-8.349c5.04,-1.686 10.243,-2.369 15.608,-2.047c5.366,0.321 10.656,1.666 15.87,4.034c5.214,2.369 10.008,5.74 14.382,10.115c4.375,4.375 7.747,9.169 10.115,14.383c2.369,5.214 3.713,10.504 4.035,15.869c0.321,5.366 -0.398,10.532 -2.157,15.499c-1.758,4.967 -4.578,9.39 -8.458,13.27l-198.667,198.667l62.775,62.775l198.666,-198.667c3.881,-3.88 8.304,-6.7 13.271,-8.459c4.967,-1.758 10.133,-2.477 15.499,-2.156c5.365,0.321 10.655,1.666 15.869,4.035c5.214,2.368 10.008,5.74 14.383,10.114c4.374,4.375 7.746,9.169 10.114,14.383c2.369,5.214 3.714,10.504 4.035,15.87c0.322,5.365 -0.397,10.531 -2.156,15.498c-1.759,4.967 -4.578,9.391 -8.459,13.271l-198.666,198.666l62.774,62.775l198.667,-198.667c11.511,-11.511 19.901,-24.786 25.169,-39.824c5.269,-15.038 7.421,-30.605 6.457,-46.702c-0.964,-16.097 -5.003,-32.035 -12.117,-47.814c-7.114,-15.78 -17.159,-30.159 -30.137,-43.137c-11.666,-11.665 -24.737,-21.05 -39.213,-28.154c-14.477,-7.104 -29.509,-11.466 -45.097,-13.085c-1.619,-15.588 -5.944,-30.583 -12.975,-44.987c-7.032,-14.404 -16.38,-27.439 -28.046,-39.104c-12.977,-12.978 -27.356,-23.024 -43.136,-30.137c-15.779,-7.114 -31.717,-11.153 -47.814,-12.117c-16.097,-0.964 -31.664,1.188 -46.702,6.457c-15.039,5.268 -28.313,13.658 -39.825,25.169l-198.666,198.667l0.133,0.133l-198.667,198.666c-3.88,3.88 -8.34,6.663 -13.38,8.349c-5.039,1.686 -10.242,2.369 -15.608,2.047c-5.365,-0.321 -10.655,-1.666 -15.869,-4.034c-5.214,-2.369 -10.008,-5.74 -14.383,-10.115c-4.374,-4.375 -7.746,-9.169 -10.115,-14.383c-2.368,-5.214 -3.713,-10.504 -4.034,-15.869c-0.322,-5.366 0.397,-10.532 2.156,-15.499c1.759,-4.967 4.578,-9.39 8.459,-13.27l198.666,-198.667l-62.774,-62.775l-198.667,198.667c-3.88,3.88 -8.304,6.7 -13.271,8.459c-4.966,1.758 -10.133,2.477 -15.498,2.156c-5.366,-0.321 -10.656,-1.666 -15.87,-4.035c-5.214,-2.368 -10.008,-5.74 -14.382,-10.114c-4.375,-4.375 -7.746,-9.169 -10.115,-14.383c-2.368,-5.214 -3.713,-10.504 -4.035,-15.87c-0.321,-5.365 0.398,-10.531 2.157,-15.498c1.758,-4.967 4.578,-9.391 8.458,-13.271l198.667,-198.666l-62.775,-62.775l-198.666,198.667c-11.512,11.511 -19.901,24.786 -25.17,39.824c-5.268,15.038 -7.42,30.605 -6.456,46.702c0.964,16.097 5.002,32.035 12.116,47.814c7.114,15.78 17.16,30.159 30.138,43.137c11.665,11.665 24.736,21.05 39.213,28.154c14.477,7.104 29.509,11.466 45.096,13.085c1.619,15.588 5.944,30.583 12.976,44.987c7.031,14.404 16.38,27.439 28.045,39.104c12.978,12.978 27.357,23.024 43.136,30.137c15.78,7.114 31.718,11.153 47.815,12.117c16.096,0.964 31.664,-1.188 46.702,-6.457c15.038,-5.268 28.313,-13.658 39.824,-25.169l198.667,-198.667" style="fill:#d369d3;"/><path d="M553.952,656.344l198.666,-198.666c11.512,-11.511 19.901,-24.786 25.17,-39.824c5.268,-15.038 7.42,-30.606 6.456,-46.703c-0.964,-16.096 -5.003,-32.034 -12.116,-47.814c-7.114,-15.78 -17.16,-30.158 -30.138,-43.136c-11.665,-11.666 -24.736,-21.05 -39.213,-28.155c-14.477,-7.104 -29.509,-11.466 -45.097,-13.085c-1.618,-15.587 -5.944,-30.583 -12.975,-44.987c-7.031,-14.404 -16.38,-27.438 -28.045,-39.104c-12.978,-12.977 -27.357,-23.023 -43.136,-30.137c-15.78,-7.114 -31.718,-11.153 -47.815,-12.117c-16.097,-0.964 -31.664,1.189 -46.702,6.457c-15.038,5.268 -28.313,13.658 -39.824,25.169l-198.667,198.667l62.556,62.556l198.667,-198.667c3.88,-3.88 8.34,-6.663 13.38,-8.349c5.039,-1.686 10.242,-2.368 15.608,-2.047c5.365,0.321 10.655,1.666 15.869,4.035c5.214,2.368 10.008,5.74 14.383,10.114c4.374,4.375 7.746,9.169 10.114,14.383c2.369,5.214 3.714,10.504 4.035,15.87c0.321,5.365 -0.397,10.531 -2.156,15.498c-1.759,4.967 -4.579,9.391 -8.459,13.271l-198.666,198.666l62.774,62.775l198.667,-198.667c3.88,-3.88 8.304,-6.699 13.27,-8.458c4.967,-1.759 10.133,-2.478 15.499,-2.157c5.366,0.322 10.655,1.667 15.869,4.035c5.214,2.369 10.009,5.74 14.383,10.115c4.375,4.374 7.746,9.169 10.115,14.383c2.368,5.214 3.713,10.503 4.035,15.869c0.321,5.366 -0.398,10.532 -2.157,15.499c-1.759,4.966 -4.578,9.39 -8.458,13.27l-198.667,198.667l0.086,0.086l-198.667,198.666c-11.511,11.511 -19.901,24.786 -25.169,39.824c-5.268,15.038 -7.421,30.606 -6.457,46.703c0.964,16.096 5.003,32.034 12.117,47.814c7.114,15.78 17.159,30.158 30.137,43.136c11.666,11.666 24.737,21.05 39.214,28.155c14.476,7.104 29.508,11.466 45.096,13.085c1.619,15.587 5.944,30.583 12.975,44.987c7.032,14.404 16.38,27.438 28.046,39.104c12.978,12.977 27.356,23.023 43.136,30.137c15.779,7.114 31.718,11.153 47.814,12.117c16.097,0.964 31.665,-1.189 46.703,-6.457c15.038,-5.268 28.312,-13.658 39.824,-25.169l198.666,-198.667l-62.556,-62.556l-198.666,198.667c-3.88,3.88 -8.34,6.663 -13.38,8.349c-5.04,1.686 -10.243,2.368 -15.608,2.047c-5.366,-0.321 -10.655,-1.666 -15.869,-4.035c-5.214,-2.368 -10.009,-5.74 -14.383,-10.114c-4.375,-4.375 -7.746,-9.169 -10.115,-14.383c-2.368,-5.214 -3.713,-10.504 -4.035,-15.87c-0.321,-5.365 0.398,-10.531 2.157,-15.498c1.759,-4.967 4.578,-9.391 8.458,-13.271l198.667,-198.666l-62.775,-62.775l-198.666,198.667c-3.881,3.88 -8.304,6.699 -13.271,8.458c-4.967,1.759 -10.133,2.478 -15.499,2.157c-5.365,-0.322 -10.655,-1.667 -15.869,-4.035c-5.214,-2.369 -10.008,-5.74 -14.383,-10.115c-4.374,-4.374 -7.746,-9.169 -10.114,-14.383c-2.369,-5.214 -3.714,-10.503 -4.035,-15.869c-0.321,-5.366 0.397,-10.532 2.156,-15.499c1.759,-4.966 4.579,-9.39 8.459,-13.27l198.666,-198.667" style="fill:#9ed369;"/><path d="M1804.92,681.905l-97.62,0l0,-349.518c0,-6.827 -1.308,-13.198 -3.925,-19.115c-2.617,-5.916 -6.144,-11.093 -10.581,-15.53c-4.437,-4.437 -9.614,-7.907 -15.53,-10.41c-5.917,-2.503 -12.288,-3.755 -19.114,-3.755c-6.827,0 -13.198,1.252 -19.115,3.755c-5.916,2.503 -11.093,5.973 -15.53,10.41c-4.437,4.437 -7.907,9.614 -10.411,15.53c-2.503,5.917 -3.754,12.288 -3.754,19.115l0,349.518l-97.961,0l0,-349.518c0,-6.827 -1.251,-13.198 -3.754,-19.115c-2.503,-5.916 -5.973,-11.093 -10.411,-15.53c-4.437,-4.437 -9.614,-7.907 -15.53,-10.41c-5.916,-2.503 -12.288,-3.755 -19.114,-3.755c-6.827,0 -13.198,1.252 -19.115,3.755c-5.916,2.503 -11.093,5.973 -15.53,10.41c-4.437,4.437 -7.907,9.614 -10.41,15.53c-2.503,5.917 -3.755,12.288 -3.755,19.115l0,349.518l-97.96,0l0,-349.518c0,-20.252 3.811,-39.31 11.434,-57.172c7.623,-17.863 18.09,-33.45 31.402,-46.762c13.312,-13.312 28.899,-23.779 46.762,-31.402c17.862,-7.623 36.92,-11.434 57.172,-11.434c18.204,0 35.725,3.242 52.564,9.727c16.839,6.486 31.971,15.872 45.396,28.16c13.426,-12.288 28.501,-21.674 45.226,-28.16c16.725,-6.485 34.189,-9.727 52.394,-9.727c20.252,0 39.309,3.811 57.172,11.434c17.862,7.623 33.45,18.09 46.761,31.402c13.312,13.312 23.779,28.899 31.402,46.762c7.623,17.862 11.435,36.92 11.435,57.172l0,349.518Z" style="fill:#9ed369;fill-rule:nonzero;stroke:#1f1f1f;stroke-width:4.17px;"/><path d="M2044.68,592.477c3.641,1.138 7.281,1.877 10.922,2.219c3.641,0.341 7.282,0.512 10.923,0.512c9.102,0 17.862,-1.252 26.282,-3.755c8.419,-2.503 16.326,-6.087 23.722,-10.752c7.395,-4.664 13.994,-10.353 19.797,-17.066c5.802,-6.713 10.524,-14.165 14.165,-22.357l68.265,68.607c-8.647,12.288 -18.602,23.324 -29.866,33.108c-11.264,9.785 -23.438,18.091 -36.522,24.917c-13.084,6.827 -26.851,12.004 -41.3,15.531c-14.45,3.527 -29.297,5.29 -44.543,5.29c-25.714,0 -49.891,-4.778 -72.532,-14.336c-22.641,-9.557 -42.438,-22.868 -59.391,-39.935c-16.952,-17.066 -30.321,-37.375 -40.106,-60.926c-9.784,-23.552 -14.677,-49.436 -14.677,-77.652c0,-28.899 4.893,-55.295 14.677,-79.188c9.785,-23.893 23.154,-44.258 40.106,-61.097c16.953,-16.839 36.75,-29.923 59.391,-39.253c22.641,-9.329 46.818,-13.994 72.532,-13.994c15.246,0 30.15,1.82 44.713,5.461c14.564,3.641 28.387,8.875 41.471,15.701c13.085,6.827 25.315,15.189 36.693,25.088c11.378,9.898 21.39,20.991 30.037,33.279l-174.759,210.598Zm47.785,-192.166c-4.323,-1.593 -8.59,-2.617 -12.799,-3.072c-4.21,-0.455 -8.59,-0.683 -13.141,-0.683c-12.743,0 -24.747,2.332 -36.01,6.997c-11.264,4.665 -21.049,11.321 -29.354,19.968c-8.306,8.647 -14.848,19.057 -19.627,31.231c-4.778,12.174 -7.167,25.884 -7.167,41.13c0,3.413 0.17,7.282 0.512,11.605c0.341,4.323 0.91,8.704 1.706,13.141c0.797,4.437 1.764,8.704 2.901,12.8c1.138,4.096 2.617,7.737 4.438,10.922l108.541,-144.039Z" style="fill:#9ed369;fill-rule:nonzero;stroke:#1f1f1f;stroke-width:4.17px;"/><path d="M2470.46,681.905c-22.527,0 -43.689,-4.267 -63.486,-12.8c-19.797,-8.533 -37.148,-20.252 -52.052,-35.157c-14.905,-14.904 -26.624,-32.255 -35.157,-52.052c-8.533,-19.797 -12.8,-40.959 -12.8,-63.487l0,-108.541l-45.396,0l0,-92.841l45.396,0l0,-146.087l92.841,0l0,146.087l141.309,0l0,92.841l-141.309,0l0,108.541c0,9.785 1.82,18.944 5.461,27.477c3.641,8.533 8.647,15.986 15.019,22.357c6.371,6.371 13.88,11.434 22.527,15.189c8.647,3.755 17.863,5.632 27.647,5.632l70.655,0l0,92.841l-70.655,0Z" style="fill:#9ed369;fill-rule:nonzero;stroke:#1f1f1f;stroke-width:4.17px;"/><path d="M2968.27,681.905l-22.528,0l-36.18,-50.175c-8.875,7.964 -18.261,15.416 -28.159,22.357c-9.899,6.94 -20.309,12.97 -31.232,18.09c-10.922,5.12 -22.129,9.159 -33.62,12.117c-11.492,2.958 -23.154,4.437 -34.986,4.437c-25.714,0 -49.891,-4.323 -72.532,-12.97c-22.641,-8.647 -42.438,-21.219 -59.391,-37.717c-16.952,-16.497 -30.321,-36.692 -40.106,-60.585c-9.784,-23.893 -14.677,-51.085 -14.677,-81.577c0,-28.444 4.893,-54.555 14.677,-78.334c9.785,-23.779 23.154,-44.202 40.106,-61.268c16.953,-17.067 36.75,-30.322 59.391,-39.765c22.641,-9.443 46.818,-14.165 72.532,-14.165c11.832,0 23.551,1.479 35.156,4.437c11.605,2.958 22.869,7.054 33.792,12.288c10.922,5.234 21.332,11.378 31.231,18.432c9.898,7.054 19.171,14.677 27.818,22.868l36.18,-43.348l22.528,0l0,364.878Zm-93.865,-186.023c0,-12.743 -2.446,-25.088 -7.338,-37.034c-4.892,-11.946 -11.548,-22.527 -19.968,-31.743c-8.419,-9.216 -18.261,-16.611 -29.524,-22.186c-11.264,-5.575 -23.267,-8.363 -36.01,-8.363c-12.743,0 -24.746,2.162 -36.01,6.485c-11.264,4.324 -21.049,10.695 -29.354,19.114c-8.306,8.42 -14.848,18.83 -19.626,31.232c-4.779,12.401 -7.168,26.566 -7.168,42.495c0,15.928 2.389,30.093 7.168,42.495c4.778,12.402 11.32,22.812 19.626,31.231c8.305,8.42 18.09,14.791 29.354,19.115c11.264,4.323 23.267,6.485 36.01,6.485c12.743,0 24.746,-2.788 36.01,-8.363c11.263,-5.575 21.105,-12.97 29.524,-22.186c8.42,-9.216 15.076,-19.797 19.968,-31.743c4.892,-11.947 7.338,-24.291 7.338,-37.034Z" style="fill:#9ed369;fill-rule:nonzero;stroke:#1f1f1f;stroke-width:4.17px;"/><path d="M3525.12,681.905l-92.841,0l0,-232.102c0,-6.372 -1.194,-12.402 -3.584,-18.09c-2.389,-5.689 -5.745,-10.695 -10.069,-15.019c-4.323,-4.323 -9.329,-7.68 -15.018,-10.069c-5.689,-2.389 -11.719,-3.584 -18.09,-3.584c-6.372,0 -12.345,1.195 -17.92,3.584c-5.575,2.389 -10.467,5.746 -14.677,10.069c-4.21,4.324 -7.509,9.33 -9.898,15.019c-2.39,5.688 -3.584,11.718 -3.584,18.09l0,232.102l-93.182,0l0,-232.102c0,-6.372 -1.195,-12.402 -3.584,-18.09c-2.39,-5.689 -5.746,-10.695 -10.069,-15.019c-4.324,-4.323 -9.33,-7.68 -15.019,-10.069c-5.689,-2.389 -11.719,-3.584 -18.09,-3.584c-6.372,0 -12.345,1.195 -17.92,3.584c-5.575,2.389 -10.467,5.746 -14.677,10.069c-4.209,4.324 -7.509,9.33 -9.898,15.019c-2.389,5.688 -3.584,11.718 -3.584,18.09l0,232.102l-93.182,0l0,-365.561l22.527,0l25.259,27.989c12.97,-10.922 27.249,-19.399 42.836,-25.429c15.587,-6.03 31.8,-9.045 48.639,-9.045c17.066,0 33.734,3.186 50.004,9.557c16.27,6.372 30.549,17.408 42.837,33.109c5.688,-7.737 12.174,-14.336 19.455,-19.797c7.282,-5.461 14.962,-9.898 23.04,-13.312c8.078,-3.413 16.44,-5.859 25.087,-7.338c8.647,-1.479 17.18,-2.219 25.6,-2.219c19.341,0 37.489,3.641 54.441,10.923c16.953,7.281 31.743,17.237 44.372,29.866c12.63,12.629 22.585,27.476 29.867,44.543c7.281,17.066 10.922,35.27 10.922,54.612l0,232.102Z" style="fill:#9ed369;fill-rule:nonzero;stroke:#1f1f1f;stroke-width:4.17px;"/><path d="M3967.29,495.882c0,27.306 -4.892,52.735 -14.677,76.286c-9.784,23.552 -23.096,43.918 -39.935,61.098c-16.839,17.18 -36.579,30.719 -59.22,40.617c-22.641,9.899 -46.932,14.848 -72.873,14.848c-25.713,0 -49.891,-4.949 -72.532,-14.848c-22.641,-9.898 -42.438,-23.437 -59.391,-40.617c-16.952,-17.18 -30.321,-37.546 -40.105,-61.098c-9.785,-23.551 -14.677,-48.98 -14.677,-76.286c0,-27.761 4.892,-53.474 14.677,-77.14c9.784,-23.665 23.153,-44.088 40.105,-61.268c16.953,-17.18 36.75,-30.662 59.391,-40.447c22.641,-9.785 46.819,-14.677 72.532,-14.677c25.941,0 50.232,4.608 72.873,13.824c22.641,9.216 42.381,22.3 59.22,39.252c16.839,16.953 30.151,37.319 39.935,61.098c9.785,23.779 14.677,50.231 14.677,79.358Zm-93.864,0c0,-15.018 -2.447,-28.615 -7.339,-40.789c-4.892,-12.174 -11.548,-22.641 -19.967,-31.402c-8.42,-8.76 -18.261,-15.473 -29.525,-20.138c-11.264,-4.665 -23.267,-6.997 -36.01,-6.997c-12.743,0 -24.746,2.332 -36.01,6.997c-11.264,4.665 -21.048,11.378 -29.354,20.138c-8.306,8.761 -14.848,19.228 -19.626,31.402c-4.779,12.174 -7.168,25.771 -7.168,40.789c0,14.108 2.389,27.192 7.168,39.252c4.778,12.061 11.32,22.528 19.626,31.402c8.306,8.875 18.09,15.872 29.354,20.992c11.264,5.12 23.267,7.68 36.01,7.68c12.743,0 24.746,-2.389 36.01,-7.168c11.264,-4.779 21.105,-11.491 29.525,-20.138c8.419,-8.647 15.075,-19.115 19.967,-31.402c4.892,-12.288 7.339,-25.827 7.339,-40.618Z" style="fill:#9ed369;fill-rule:nonzero;stroke:#1f1f1f;stroke-width:4.17px;"/><path d="M4393.07,681.905l-22.527,0l-36.181,-50.175c-8.875,7.964 -18.261,15.416 -28.159,22.357c-9.899,6.94 -20.309,12.97 -31.232,18.09c-10.922,5.12 -22.129,9.159 -33.62,12.117c-11.492,2.958 -23.154,4.437 -34.986,4.437c-25.714,0 -49.891,-4.835 -72.532,-14.506c-22.641,-9.671 -42.438,-23.097 -59.391,-40.277c-16.952,-17.18 -30.321,-37.546 -40.106,-61.097c-9.784,-23.552 -14.677,-49.208 -14.677,-76.969c0,-27.534 4.893,-53.133 14.677,-76.798c9.785,-23.666 23.154,-44.145 40.106,-61.439c16.953,-17.294 36.75,-30.833 59.391,-40.618c22.641,-9.785 46.818,-14.677 72.532,-14.677c8.192,0 16.668,0.683 25.428,2.048c8.761,1.365 17.294,3.584 25.6,6.656c8.306,3.072 16.099,7.111 23.381,12.117c7.281,5.006 13.425,11.15 18.431,18.432l0,-170.663l93.865,0l0,510.965Zm-93.865,-186.023c0,-12.743 -2.446,-25.088 -7.338,-37.034c-4.892,-11.946 -11.548,-22.527 -19.968,-31.743c-8.419,-9.216 -18.261,-16.611 -29.524,-22.186c-11.264,-5.575 -23.267,-8.363 -36.01,-8.363c-12.743,0 -24.746,2.276 -36.01,6.827c-11.264,4.551 -21.049,11.093 -29.354,19.626c-8.306,8.533 -14.848,18.943 -19.626,31.231c-4.779,12.288 -7.168,26.168 -7.168,41.642c0,13.425 2.389,26.168 7.168,38.228c4.778,12.061 11.32,22.642 19.626,31.744c8.305,9.102 18.09,16.27 29.354,21.503c11.264,5.234 23.267,7.851 36.01,7.851c12.743,0 24.746,-2.788 36.01,-8.363c11.263,-5.575 21.105,-12.97 29.524,-22.186c8.42,-9.216 15.076,-19.797 19.968,-31.743c4.892,-11.947 7.338,-24.291 7.338,-37.034Z" style="fill:#9ed369;fill-rule:nonzero;stroke:#1f1f1f;stroke-width:4.17px;"/><path d="M4630.44,592.477c3.641,1.138 7.281,1.877 10.922,2.219c3.641,0.341 7.282,0.512 10.923,0.512c9.102,0 17.862,-1.252 26.282,-3.755c8.419,-2.503 16.327,-6.087 23.722,-10.752c7.395,-4.664 13.994,-10.353 19.797,-17.066c5.802,-6.713 10.524,-14.165 14.165,-22.357l68.265,68.607c-8.647,12.288 -18.602,23.324 -29.866,33.108c-11.264,9.785 -23.438,18.091 -36.522,24.917c-13.084,6.827 -26.851,12.004 -41.3,15.531c-14.45,3.527 -29.297,5.29 -44.543,5.29c-25.714,0 -49.891,-4.778 -72.532,-14.336c-22.641,-9.557 -42.438,-22.868 -59.391,-39.935c-16.952,-17.066 -30.321,-37.375 -40.106,-60.926c-9.784,-23.552 -14.677,-49.436 -14.677,-77.652c0,-28.899 4.893,-55.295 14.677,-79.188c9.785,-23.893 23.154,-44.258 40.106,-61.097c16.953,-16.839 36.75,-29.923 59.391,-39.253c22.641,-9.329 46.818,-13.994 72.532,-13.994c15.246,0 30.15,1.82 44.713,5.461c14.564,3.641 28.387,8.875 41.471,15.701c13.085,6.827 25.316,15.189 36.693,25.088c11.378,9.898 21.39,20.991 30.037,33.279l-174.759,210.598Zm47.785,-192.166c-4.323,-1.593 -8.59,-2.617 -12.799,-3.072c-4.21,-0.455 -8.59,-0.683 -13.141,-0.683c-12.743,0 -24.746,2.332 -36.01,6.997c-11.264,4.665 -21.049,11.321 -29.354,19.968c-8.306,8.647 -14.848,19.057 -19.627,31.231c-4.778,12.174 -7.167,25.884 -7.167,41.13c0,3.413 0.17,7.282 0.512,11.605c0.341,4.323 0.91,8.704 1.706,13.141c0.797,4.437 1.764,8.704 2.902,12.8c1.137,4.096 2.616,7.737 4.437,10.922l108.541,-144.039Z" style="fill:#9ed369;fill-rule:nonzero;stroke:#1f1f1f;stroke-width:4.17px;"/><path d="M4966.12,681.905l-93.182,0l0,-365.561l22.528,0l30.719,43.349c15.019,-13.653 32.085,-24.177 51.199,-31.573c19.114,-7.395 38.911,-11.093 59.391,-11.093l82.26,0l0,92.841l-82.26,0c-9.785,0 -19.001,1.82 -27.647,5.461c-8.647,3.641 -16.157,8.647 -22.528,15.018c-6.371,6.372 -11.378,13.881 -15.018,22.528c-3.641,8.647 -5.462,17.863 -5.462,27.647l0,201.383Z" style="fill:#9ed369;fill-rule:nonzero;stroke:#1f1f1f;stroke-width:4.17px;"/><path d="M5276.53,681.905l-93.182,0l0,-365.561l22.528,0l30.719,35.498c15.018,-13.653 32.028,-24.177 51.028,-31.572c19.001,-7.396 38.854,-11.093 59.561,-11.093c22.3,0 43.349,4.266 63.146,12.799c19.797,8.533 37.091,20.252 51.881,35.157c14.791,14.904 26.453,32.312 34.986,52.223c8.533,19.91 12.8,41.13 12.8,63.657l0,208.892l-93.182,0l0,-208.892c0,-9.557 -1.82,-18.602 -5.461,-27.135c-3.641,-8.533 -8.647,-15.986 -15.019,-22.357c-6.371,-6.372 -13.766,-11.378 -22.186,-15.019c-8.419,-3.64 -17.407,-5.461 -26.965,-5.461c-9.784,0 -19,1.821 -27.647,5.461c-8.647,3.641 -16.156,8.647 -22.527,15.019c-6.372,6.371 -11.378,13.824 -15.019,22.357c-3.641,8.533 -5.461,17.578 -5.461,27.135l0,208.892Z" style="fill:#9ed369;fill-rule:nonzero;stroke:#1f1f1f;stroke-width:4.17px;"/><g transform="matrix(1.4086,0,0,1.4086,1578,-293.67)"><g transform="matrix(225.314,0,0,225.314,524.908,971.124)"><path d="M0.751,-0.347c0,0.033 -0.004,0.065 -0.013,0.096c-0.009,0.031 -0.021,0.059 -0.036,0.086c-0.016,0.027 -0.035,0.052 -0.057,0.074c-0.022,0.022 -0.047,0.041 -0.073,0.057c-0.027,0.015 -0.056,0.028 -0.087,0.036c-0.031,0.009 -0.063,0.013 -0.096,0.013c-0.033,0 -0.065,-0.004 -0.096,-0.013c-0.031,-0.008 -0.059,-0.021 -0.086,-0.036c-0.027,-0.016 -0.052,-0.035 -0.074,-0.057c-0.022,-0.022 -0.041,-0.047 -0.057,-0.074c-0.015,-0.027 -0.028,-0.055 -0.036,-0.086c-0.009,-0.031 -0.013,-0.063 -0.013,-0.096c0,-0.033 0.004,-0.065 0.013,-0.096c0.008,-0.031 0.021,-0.06 0.036,-0.087c0.016,-0.026 0.035,-0.051 0.057,-0.073c0.022,-0.022 0.047,-0.041 0.074,-0.057c0.027,-0.015 0.055,-0.027 0.086,-0.036c0.031,-0.009 0.063,-0.013 0.096,-0.013c0.033,0 0.065,0.004 0.096,0.013c0.031,0.009 0.06,0.021 0.087,0.036c0.026,0.016 0.051,0.035 0.073,0.057c0.022,0.022 0.041,0.047 0.057,0.073c0.015,0.027 0.027,0.056 0.036,0.087c0.009,0.031 0.013,0.063 0.013,0.096Zm-0.139,0c0,-0.031 -0.006,-0.06 -0.018,-0.087c-0.011,-0.027 -0.027,-0.051 -0.047,-0.071c-0.02,-0.02 -0.044,-0.036 -0.071,-0.047c-0.027,-0.012 -0.056,-0.018 -0.087,-0.018c-0.031,0 -0.06,0.006 -0.087,0.018c-0.027,0.011 -0.05,0.027 -0.071,0.047c-0.02,0.02 -0.036,0.044 -0.047,0.071c-0.012,0.027 -0.018,0.056 -0.018,0.087c0,0.03 0.006,0.059 0.018,0.086c0.011,0.027 0.027,0.05 0.047,0.071c0.021,0.02 0.044,0.036 0.071,0.047c0.027,0.012 0.056,0.018 0.087,0.018c0.031,0 0.06,-0.006 0.087,-0.018c0.027,-0.011 0.051,-0.027 0.071,-0.047c0.02,-0.021 0.036,-0.044 0.047,-0.071c0.012,-0.027 0.018,-0.056 0.018,-0.086Z" style="fill:#d7d1eb;fill-rule:nonzero;"/></g><g transform="matrix(225.314,0,0,225.314,767.759,971.124)"><path d="M0.205,-0.56l0,0.28l0.14,0c0.019,0 0.037,-0.003 0.054,-0.011c0.017,-0.007 0.032,-0.017 0.045,-0.03c0.013,-0.012 0.023,-0.027 0.03,-0.044c0.007,-0.018 0.011,-0.036 0.011,-0.055c0,-0.019 -0.004,-0.037 -0.011,-0.054c-0.007,-0.017 -0.017,-0.032 -0.03,-0.045c-0.013,-0.013 -0.028,-0.023 -0.045,-0.03c-0.017,-0.007 -0.035,-0.011 -0.054,-0.011l-0.14,0Zm0,0.56l-0.14,0l0,-0.7l0.28,0c0.026,0 0.051,0.003 0.074,0.01c0.024,0.006 0.046,0.016 0.067,0.028c0.021,0.012 0.04,0.027 0.057,0.044c0.017,0.017 0.031,0.036 0.044,0.057c0.012,0.021 0.021,0.043 0.028,0.067c0.007,0.024 0.01,0.048 0.01,0.074c0,0.038 -0.007,0.075 -0.022,0.109c-0.015,0.034 -0.035,0.063 -0.06,0.089c-0.025,0.025 -0.055,0.045 -0.089,0.06c-0.034,0.015 -0.07,0.022 -0.109,0.022l-0.14,0l0,0.14Z" style="fill:#d7d1eb;fill-rule:nonzero;"/></g><g transform="matrix(225.314,0,0,225.314,980.025,971.124)"><path d="M0.545,0l-0.48,0l0,-0.7l0.48,0l0,0.14l-0.34,0l0,0.14l0.23,0l0,0.14l-0.23,0l0,0.14l0.34,0l0,0.14Z" style="fill:#d7d1eb;fill-rule:nonzero;"/></g><g transform="matrix(225.314,0,0,225.314,1177.88,971.124)"><path d="M0.625,0l-0.15,0l-0.27,-0.461l0,0.461l-0.14,0l0,-0.7l0.15,0l0.27,0.461l0,-0.461l0.14,0l0,0.7Z" style="fill:#d7d1eb;fill-rule:nonzero;"/></g><g transform="matrix(225.314,0,0,225.314,1574.86,971.124)"><path d="M0.024,-0.49c0,-0.029 0.005,-0.056 0.017,-0.082c0.011,-0.025 0.026,-0.047 0.045,-0.066c0.019,-0.019 0.041,-0.035 0.066,-0.046c0.026,-0.011 0.053,-0.016 0.082,-0.016l0.321,0l0,0.14l-0.321,0c-0.01,0 -0.019,0.002 -0.027,0.005c-0.009,0.004 -0.016,0.009 -0.023,0.015c-0.006,0.007 -0.011,0.014 -0.015,0.022c-0.003,0.009 -0.005,0.018 -0.005,0.028c0,0.01 0.002,0.019 0.005,0.027c0.004,0.009 0.009,0.016 0.015,0.023c0.007,0.006 0.014,0.011 0.023,0.015c0.008,0.003 0.017,0.005 0.027,0.005l0.14,0c0.029,0 0.056,0.006 0.082,0.016c0.025,0.011 0.048,0.026 0.067,0.045c0.019,0.019 0.034,0.042 0.045,0.067c0.011,0.026 0.016,0.053 0.016,0.082c0,0.029 -0.005,0.056 -0.016,0.082c-0.011,0.025 -0.026,0.047 -0.045,0.066c-0.019,0.019 -0.042,0.034 -0.067,0.045c-0.026,0.011 -0.053,0.017 -0.082,0.017l-0.311,0l0,-0.14l0.311,0c0.01,0 0.019,-0.002 0.027,-0.006c0.009,-0.003 0.016,-0.008 0.023,-0.014c0.006,-0.007 0.011,-0.014 0.014,-0.023c0.004,-0.008 0.006,-0.017 0.006,-0.027c0,-0.01 -0.002,-0.019 -0.006,-0.027c-0.003,-0.009 -0.008,-0.016 -0.014,-0.023c-0.007,-0.006 -0.014,-0.011 -0.023,-0.014c-0.008,-0.004 -0.017,-0.006 -0.027,-0.006l-0.14,0c-0.029,0 -0.056,-0.005 -0.082,-0.016c-0.025,-0.011 -0.047,-0.027 -0.066,-0.046c-0.019,-0.019 -0.034,-0.041 -0.045,-0.066c-0.012,-0.026 -0.017,-0.053 -0.017,-0.082Z" style="fill:#d7d1eb;fill-rule:nonzero;"/></g><g transform="matrix(225.314,0,0,225.314,1780.09,971.124)"><path d="M0.751,-0.347c0,0.033 -0.004,0.065 -0.013,0.096c-0.009,0.031 -0.021,0.059 -0.036,0.086c-0.016,0.027 -0.035,0.052 -0.057,0.074c-0.022,0.022 -0.047,0.041 -0.073,0.057c-0.027,0.015 -0.056,0.028 -0.087,0.036c-0.031,0.009 -0.063,0.013 -0.096,0.013c-0.033,0 -0.065,-0.004 -0.096,-0.013c-0.031,-0.008 -0.059,-0.021 -0.086,-0.036c-0.027,-0.016 -0.052,-0.035 -0.074,-0.057c-0.022,-0.022 -0.041,-0.047 -0.057,-0.074c-0.015,-0.027 -0.028,-0.055 -0.036,-0.086c-0.009,-0.031 -0.013,-0.063 -0.013,-0.096c0,-0.033 0.004,-0.065 0.013,-0.096c0.008,-0.031 0.021,-0.06 0.036,-0.087c0.016,-0.026 0.035,-0.051 0.057,-0.073c0.022,-0.022 0.047,-0.041 0.074,-0.057c0.027,-0.015 0.055,-0.027 0.086,-0.036c0.031,-0.009 0.063,-0.013 0.096,-0.013c0.033,0 0.065,0.004 0.096,0.013c0.031,0.009 0.06,0.021 0.087,0.036c0.026,0.016 0.051,0.035 0.073,0.057c0.022,0.022 0.041,0.047 0.057,0.073c0.015,0.027 0.027,0.056 0.036,0.087c0.009,0.031 0.013,0.063 0.013,0.096Zm-0.139,0c0,-0.031 -0.006,-0.06 -0.018,-0.087c-0.011,-0.027 -0.027,-0.051 -0.047,-0.071c-0.02,-0.02 -0.044,-0.036 -0.071,-0.047c-0.027,-0.012 -0.056,-0.018 -0.087,-0.018c-0.031,0 -0.06,0.006 -0.087,0.018c-0.027,0.011 -0.05,0.027 -0.071,0.047c-0.02,0.02 -0.036,0.044 -0.047,0.071c-0.012,0.027 -0.018,0.056 -0.018,0.087c0,0.03 0.006,0.059 0.018,0.086c0.011,0.027 0.027,0.05 0.047,0.071c0.021,0.02 0.044,0.036 0.071,0.047c0.027,0.012 0.056,0.018 0.087,0.018c0.031,0 0.06,-0.006 0.087,-0.018c0.027,-0.011 0.051,-0.027 0.071,-0.047c0.02,-0.021 0.036,-0.044 0.047,-0.071c0.012,-0.027 0.018,-0.056 0.018,-0.086Z" style="fill:#d7d1eb;fill-rule:nonzero;"/></g><g transform="matrix(225.314,0,0,225.314,2022.94,971.124)"><path d="M0.617,-0.28c0,0.039 -0.007,0.075 -0.022,0.109c-0.014,0.034 -0.034,0.064 -0.06,0.089c-0.025,0.025 -0.055,0.045 -0.089,0.06c-0.034,0.015 -0.07,0.022 -0.109,0.022c-0.039,0 -0.075,-0.007 -0.109,-0.022c-0.034,-0.015 -0.064,-0.035 -0.089,-0.06c-0.025,-0.025 -0.045,-0.055 -0.06,-0.089c-0.015,-0.034 -0.022,-0.07 -0.022,-0.109l0,-0.42l0.14,0l0,0.42c0,0.019 0.003,0.037 0.011,0.054c0.007,0.017 0.017,0.032 0.03,0.045c0.012,0.013 0.027,0.023 0.044,0.03c0.018,0.007 0.036,0.011 0.055,0.011c0.019,0 0.037,-0.004 0.054,-0.011c0.017,-0.007 0.032,-0.017 0.045,-0.03c0.013,-0.013 0.023,-0.028 0.03,-0.045c0.007,-0.017 0.011,-0.035 0.011,-0.054l0,-0.42l0.14,0l0,0.42Z" style="fill:#d7d1eb;fill-rule:nonzero;"/></g><g transform="matrix(225.314,0,0,225.314,2242.35,971.124)"><path d="M0.205,-0.56l0,0.28l0.14,0c0.019,0 0.037,-0.003 0.054,-0.011c0.017,-0.007 0.032,-0.017 0.045,-0.03c0.013,-0.012 0.023,-0.027 0.03,-0.044c0.007,-0.018 0.011,-0.036 0.011,-0.055c0,-0.019 -0.004,-0.037 -0.011,-0.054c-0.007,-0.017 -0.017,-0.032 -0.03,-0.045c-0.013,-0.013 -0.028,-0.023 -0.045,-0.03c-0.017,-0.007 -0.035,-0.011 -0.054,-0.011l-0.14,0Zm0,0.56l-0.14,0l0,-0.7l0.28,0c0.026,0 0.051,0.003 0.074,0.01c0.024,0.006 0.046,0.016 0.067,0.028c0.021,0.012 0.04,0.027 0.057,0.044c0.017,0.017 0.031,0.036 0.044,0.057c0.012,0.021 0.021,0.043 0.028,0.067c0.007,0.024 0.01,0.048 0.01,0.074c0,0.024 -0.003,0.048 -0.009,0.07c-0.006,0.023 -0.015,0.045 -0.026,0.065c-0.011,0.021 -0.025,0.04 -0.041,0.057c-0.016,0.017 -0.035,0.032 -0.055,0.045l0.078,0.183l-0.149,0l-0.061,-0.141l-0.157,0.001l0,0.14Z" style="fill:#d7d1eb;fill-rule:nonzero;"/></g><g transform="matrix(225.314,0,0,225.314,2456.82,971.124)"><path d="M0.624,-0.072c-0.033,0.028 -0.069,0.05 -0.109,0.065c-0.041,0.015 -0.083,0.022 -0.126,0.022c-0.033,0 -0.065,-0.004 -0.096,-0.013c-0.031,-0.008 -0.059,-0.021 -0.086,-0.036c-0.027,-0.016 -0.052,-0.035 -0.074,-0.057c-0.022,-0.022 -0.041,-0.047 -0.057,-0.074c-0.015,-0.027 -0.028,-0.055 -0.036,-0.086c-0.009,-0.031 -0.013,-0.063 -0.013,-0.096c0,-0.033 0.004,-0.065 0.013,-0.096c0.008,-0.031 0.021,-0.06 0.036,-0.087c0.016,-0.027 0.035,-0.051 0.057,-0.074c0.022,-0.022 0.047,-0.041 0.074,-0.056c0.027,-0.016 0.055,-0.028 0.086,-0.037c0.031,-0.009 0.063,-0.013 0.096,-0.013c0.043,0 0.085,0.007 0.126,0.022c0.04,0.015 0.076,0.037 0.109,0.065l-0.074,0.122c-0.021,-0.022 -0.045,-0.039 -0.073,-0.051c-0.028,-0.012 -0.057,-0.018 -0.088,-0.018c-0.031,0 -0.06,0.006 -0.087,0.018c-0.027,0.011 -0.05,0.027 -0.071,0.047c-0.02,0.02 -0.036,0.044 -0.047,0.071c-0.012,0.027 -0.018,0.056 -0.018,0.087c0,0.03 0.006,0.059 0.018,0.086c0.011,0.027 0.027,0.05 0.047,0.071c0.021,0.02 0.044,0.036 0.071,0.047c0.027,0.012 0.056,0.018 0.087,0.018c0.031,0 0.06,-0.006 0.088,-0.018c0.028,-0.012 0.052,-0.029 0.073,-0.051l0.074,0.122Z" style="fill:#d7d1eb;fill-rule:nonzero;"/></g><g transform="matrix(225.314,0,0,225.314,2668.65,971.124)"><path d="M0.545,0l-0.48,0l0,-0.7l0.48,0l0,0.14l-0.34,0l0,0.14l0.23,0l0,0.14l-0.23,0l0,0.14l0.34,0l0,0.14Z" style="fill:#d7d1eb;fill-rule:nonzero;"/></g></g></svg>